G04 #@! TF.GenerationSoftware,KiCad,Pcbnew,9.0.3-1.fc42app2*
G04 #@! TF.CreationDate,2025-09-30T12:27:43+03:00*
G04 #@! TF.ProjectId,ModulinV2,4d6f6475-6c69-46e5-9632-2e6b69636164,rev?*
G04 #@! TF.SameCoordinates,Original*
G04 #@! TF.FileFunction,Soldermask,Bot*
G04 #@! TF.FilePolarity,Negative*
%FSLAX46Y46*%
G04 Gerber Fmt 4.6, Leading zero omitted, Abs format (unit mm)*
G04 Created by KiCad (PCBNEW 9.0.3-1.fc42app2) date 2025-09-30 12:27:43*
%MOMM*%
%LPD*%
G01*
G04 APERTURE LIST*
G04 Aperture macros list*
%AMRoundRect*
0 Rectangle with rounded corners*
0 $1 Rounding radius*
0 $2 $3 $4 $5 $6 $7 $8 $9 X,Y pos of 4 corners*
0 Add a 4 corners polygon primitive as box body*
4,1,4,$2,$3,$4,$5,$6,$7,$8,$9,$2,$3,0*
0 Add four circle primitives for the rounded corners*
1,1,$1+$1,$2,$3*
1,1,$1+$1,$4,$5*
1,1,$1+$1,$6,$7*
1,1,$1+$1,$8,$9*
0 Add four rect primitives between the rounded corners*
20,1,$1+$1,$2,$3,$4,$5,0*
20,1,$1+$1,$4,$5,$6,$7,0*
20,1,$1+$1,$6,$7,$8,$9,0*
20,1,$1+$1,$8,$9,$2,$3,0*%
%AMFreePoly0*
4,1,6,1.000000,0.000000,0.500000,-0.750000,-0.500000,-0.750000,-0.500000,0.750000,0.500000,0.750000,1.000000,0.000000,1.000000,0.000000,$1*%
%AMFreePoly1*
4,1,6,0.500000,-0.750000,-0.650000,-0.750000,-0.150000,0.000000,-0.650000,0.750000,0.500000,0.750000,0.500000,-0.750000,0.500000,-0.750000,$1*%
G04 Aperture macros list end*
%ADD10C,1.200000*%
%ADD11C,2.000000*%
%ADD12C,1.800000*%
%ADD13C,4.455000*%
%ADD14C,5.460000*%
%ADD15C,4.740000*%
%ADD16C,1.550000*%
%ADD17C,4.980000*%
%ADD18R,1.300000X1.300000*%
%ADD19C,1.300000*%
%ADD20C,2.250000*%
%ADD21C,1.875000*%
%ADD22C,1.275000*%
%ADD23C,0.650000*%
%ADD24O,2.100000X1.000000*%
%ADD25O,1.800000X1.000000*%
%ADD26R,1.530000X1.530000*%
%ADD27C,1.530000*%
%ADD28R,1.500000X1.500000*%
%ADD29C,1.500000*%
%ADD30C,4.920000*%
%ADD31R,1.600000X1.600000*%
%ADD32C,1.600000*%
%ADD33C,3.000000*%
%ADD34C,2.550000*%
%ADD35RoundRect,0.300000X-0.700000X3.450000X-0.700000X-3.450000X0.700000X-3.450000X0.700000X3.450000X0*%
%ADD36RoundRect,0.300000X1.200000X0.700000X-1.200000X0.700000X-1.200000X-0.700000X1.200000X-0.700000X0*%
%ADD37R,2.250000X2.250000*%
%ADD38C,2.500000*%
%ADD39FreePoly0,0.000000*%
%ADD40FreePoly1,0.000000*%
%ADD41FreePoly0,180.000000*%
%ADD42RoundRect,0.237500X0.237500X-0.300000X0.237500X0.300000X-0.237500X0.300000X-0.237500X-0.300000X0*%
%ADD43RoundRect,0.237500X-0.300000X-0.237500X0.300000X-0.237500X0.300000X0.237500X-0.300000X0.237500X0*%
%ADD44RoundRect,0.237500X0.237500X-0.250000X0.237500X0.250000X-0.237500X0.250000X-0.237500X-0.250000X0*%
%ADD45RoundRect,0.237500X-0.237500X0.250000X-0.237500X-0.250000X0.237500X-0.250000X0.237500X0.250000X0*%
%ADD46RoundRect,0.237500X0.300000X0.237500X-0.300000X0.237500X-0.300000X-0.237500X0.300000X-0.237500X0*%
%ADD47R,0.425000X0.500000*%
%ADD48R,0.250000X0.500000*%
%ADD49RoundRect,0.237500X0.250000X0.237500X-0.250000X0.237500X-0.250000X-0.237500X0.250000X-0.237500X0*%
%ADD50RoundRect,0.237500X-0.250000X-0.237500X0.250000X-0.237500X0.250000X0.237500X-0.250000X0.237500X0*%
%ADD51RoundRect,0.237500X-0.237500X0.300000X-0.237500X-0.300000X0.237500X-0.300000X0.237500X0.300000X0*%
%ADD52FreePoly1,180.000000*%
%ADD53FreePoly0,90.000000*%
%ADD54FreePoly1,90.000000*%
G04 APERTURE END LIST*
G36*
X204816950Y-79140950D02*
G01*
X207266950Y-79140950D01*
X207266950Y-77640950D01*
X204816950Y-77640950D01*
X204816950Y-79140950D01*
G37*
G36*
X198566950Y-79140950D02*
G01*
X201016950Y-79140950D01*
X201016950Y-77640950D01*
X198566950Y-77640950D01*
X198566950Y-79140950D01*
G37*
G36*
X203791950Y-117390950D02*
G01*
X198791950Y-117390950D01*
X198791950Y-118890950D01*
X203791950Y-118890950D01*
X203791950Y-117390950D01*
G37*
G36*
X195066950Y-83140950D02*
G01*
X197516950Y-83140950D01*
X197516950Y-81640950D01*
X195066950Y-81640950D01*
X195066950Y-83140950D01*
G37*
G36*
X94066950Y-199890950D02*
G01*
X96516950Y-199890950D01*
X96516950Y-198390950D01*
X94066950Y-198390950D01*
X94066950Y-199890950D01*
G37*
G36*
X264275000Y-56000000D02*
G01*
X266725000Y-56000000D01*
X266725000Y-54500000D01*
X264275000Y-54500000D01*
X264275000Y-56000000D01*
G37*
G36*
X260775000Y-78750000D02*
G01*
X263225000Y-78750000D01*
X263225000Y-77250000D01*
X260775000Y-77250000D01*
X260775000Y-78750000D01*
G37*
G36*
X201816950Y-83140950D02*
G01*
X204266950Y-83140950D01*
X204266950Y-81640950D01*
X201816950Y-81640950D01*
X201816950Y-83140950D01*
G37*
G36*
X96516950Y-175140950D02*
G01*
X94066950Y-175140950D01*
X94066950Y-176640950D01*
X96516950Y-176640950D01*
X96516950Y-175140950D01*
G37*
G36*
X105041950Y-184865950D02*
G01*
X103541950Y-184865950D01*
X103541950Y-182415950D01*
X105041950Y-182415950D01*
X105041950Y-184865950D01*
G37*
G36*
X105041950Y-191115950D02*
G01*
X103541950Y-191115950D01*
X103541950Y-188665950D01*
X105041950Y-188665950D01*
X105041950Y-191115950D01*
G37*
G36*
X203791950Y-121390950D02*
G01*
X198791950Y-121390950D01*
X198791950Y-122890950D01*
X203791950Y-122890950D01*
X203791950Y-121390950D01*
G37*
D10*
X316337000Y-129190000D03*
X318877000Y-129190000D03*
X321417000Y-129190000D03*
D11*
X263250000Y-65250000D03*
X160541950Y-155890950D03*
X167291950Y-176140950D03*
D12*
X280750000Y-117725000D03*
X278750000Y-117725000D03*
X288750000Y-117725000D03*
X282750000Y-117725000D03*
X284750000Y-117725000D03*
X286750000Y-117725000D03*
D13*
X277950000Y-106725000D03*
X289550000Y-106725000D03*
D11*
X167291950Y-171640950D03*
X99041950Y-204140950D03*
X215041950Y-113140950D03*
D14*
X103291950Y-60990950D03*
D15*
X97291950Y-60990950D03*
X100291950Y-65690950D03*
D11*
X225430000Y-75586250D03*
D12*
X223500000Y-67975000D03*
X221500000Y-67975000D03*
X231500000Y-67975000D03*
X225500000Y-67975000D03*
X227500000Y-67975000D03*
X229500000Y-67975000D03*
D13*
X220700000Y-56975000D03*
X232300000Y-56975000D03*
D16*
X215791950Y-128180950D03*
X215791950Y-125640950D03*
X218331950Y-128180950D03*
X218331950Y-125640950D03*
X220871950Y-128180950D03*
X220871950Y-125640950D03*
X223411950Y-128180950D03*
X223411950Y-125640950D03*
D11*
X213291950Y-107640950D03*
D12*
X177291950Y-61440950D03*
X179791950Y-61440950D03*
X182291950Y-61440950D03*
D17*
X175391950Y-54440950D03*
X184191950Y-54440950D03*
D10*
X268429450Y-209828950D03*
X268429450Y-207288950D03*
X268429450Y-204748950D03*
D11*
X213541950Y-63640950D03*
X162541950Y-169640950D03*
D18*
X170041950Y-190890950D03*
D19*
X172041950Y-190890950D03*
X174041950Y-190890950D03*
D20*
X167941950Y-190890950D03*
X176141950Y-190890950D03*
D11*
X265041950Y-164503450D03*
D10*
X281541950Y-181140950D03*
X281541950Y-178600950D03*
X281541950Y-176060950D03*
D11*
X104541950Y-195390950D03*
D19*
X95941950Y-182890950D03*
X95941950Y-184890950D03*
X95941950Y-186890950D03*
X95941950Y-188890950D03*
X95941950Y-190890950D03*
X95941950Y-192890950D03*
X93441950Y-182890950D03*
X93441950Y-184890950D03*
X93441950Y-186890950D03*
X93441950Y-188890950D03*
X93441950Y-190890950D03*
X93441950Y-192890950D03*
D21*
X97491950Y-181290950D03*
X91891950Y-194490950D03*
D11*
X265041950Y-169003450D03*
X162541950Y-176390950D03*
D22*
X132329450Y-95140950D03*
X132329450Y-98640950D03*
D10*
X273291950Y-181140950D03*
X273291950Y-178600950D03*
X273291950Y-176060950D03*
X290878950Y-182390950D03*
X293418950Y-182390950D03*
X295958950Y-182390950D03*
D11*
X284791950Y-124140950D03*
X136041950Y-126890950D03*
D23*
X95783824Y-129500950D03*
X95783824Y-135280950D03*
D24*
X96283824Y-128070950D03*
D25*
X92103824Y-128070950D03*
D24*
X96283824Y-136710950D03*
D25*
X92103824Y-136710950D03*
D12*
X134291950Y-207440950D03*
X136791950Y-207440950D03*
X139291950Y-207440950D03*
D17*
X132391950Y-200440950D03*
X141191950Y-200440950D03*
D12*
X177291950Y-99190950D03*
X179791950Y-99190950D03*
X182291950Y-99190950D03*
D17*
X175391950Y-92190950D03*
X184191950Y-92190950D03*
D26*
X150791950Y-111390950D03*
D27*
X153331950Y-111390950D03*
X155871950Y-111390950D03*
X158411950Y-111390950D03*
D11*
X213541950Y-50390950D03*
D28*
X145791950Y-141890950D03*
D29*
X150791950Y-141890950D03*
X145791950Y-156390950D03*
X150791950Y-156390950D03*
X148291950Y-156390950D03*
D30*
X142691950Y-148890950D03*
X153891950Y-148890950D03*
D16*
X215791950Y-120640950D03*
X215791950Y-118100950D03*
X218331950Y-120640950D03*
X218331950Y-118100950D03*
X220871950Y-120640950D03*
X220871950Y-118100950D03*
X223411950Y-120640950D03*
X223411950Y-118100950D03*
D10*
X265041950Y-181053950D03*
X265041950Y-178513950D03*
X265041950Y-175973950D03*
X125291950Y-111977950D03*
X125291950Y-114517950D03*
X125291950Y-117057950D03*
D11*
X219791950Y-75640950D03*
X96791950Y-82140950D03*
X193291950Y-183390950D03*
X202041950Y-142640950D03*
X104541950Y-204140950D03*
X163541950Y-97140950D03*
D10*
X223395700Y-191617200D03*
X220855700Y-191617200D03*
X218315700Y-191617200D03*
D31*
X120791950Y-86640950D03*
D32*
X120791950Y-81640950D03*
D11*
X249541950Y-158503450D03*
X323500000Y-149440000D03*
X162541950Y-165140950D03*
X327500000Y-149440000D03*
X263250000Y-95000000D03*
D33*
X330160000Y-54095000D03*
D20*
X339710000Y-63395000D03*
D33*
X336510000Y-63395000D03*
X336510000Y-51965000D03*
D20*
X339710000Y-51965000D03*
X327010000Y-51965000D03*
X327010000Y-63395000D03*
D11*
X213541950Y-59390950D03*
X162541950Y-180890950D03*
X270500000Y-98750000D03*
X213155000Y-101905000D03*
X271000000Y-74250000D03*
X193291950Y-169890950D03*
X307000000Y-146440000D03*
D32*
X164291950Y-78890950D03*
X164291950Y-82390950D03*
D11*
X193291950Y-178890950D03*
D12*
X282825000Y-74750000D03*
X282825000Y-78250000D03*
X288075000Y-75550000D03*
X336075000Y-77450000D03*
X341325000Y-74750000D03*
X341325000Y-78250000D03*
D34*
X288175000Y-72300000D03*
X286975000Y-80700000D03*
X335975000Y-72300000D03*
X337175000Y-80700000D03*
D11*
X327000000Y-100190000D03*
X175791950Y-204640950D03*
D16*
X229041950Y-120680950D03*
X229041950Y-118140950D03*
X231581950Y-120680950D03*
X231581950Y-118140950D03*
X234121950Y-120680950D03*
X234121950Y-118140950D03*
X236661950Y-120680950D03*
X236661950Y-118140950D03*
D31*
X122291950Y-55640950D03*
D32*
X122291950Y-50640950D03*
D11*
X202041950Y-138140950D03*
X96791950Y-72140950D03*
D35*
X294041950Y-134140950D03*
X283041950Y-134140950D03*
X272041950Y-134140950D03*
D12*
X341175000Y-92500000D03*
X341175000Y-89000000D03*
X282675000Y-92500000D03*
D34*
X335825000Y-94950000D03*
X337025000Y-86550000D03*
X288025000Y-94950000D03*
X286825000Y-86550000D03*
D11*
X208541950Y-183390950D03*
X286750000Y-52000000D03*
X149041950Y-203140950D03*
D12*
X152541950Y-197190950D03*
X155041950Y-197190950D03*
X157541950Y-197190950D03*
D17*
X150641950Y-190190950D03*
X159441950Y-190190950D03*
D36*
X195541950Y-210090950D03*
X195541950Y-205390950D03*
X195541950Y-200690950D03*
D32*
X163291950Y-58890950D03*
X163291950Y-55390950D03*
D11*
X165791950Y-146390950D03*
D10*
X239605700Y-196704200D03*
X239605700Y-199244200D03*
X239605700Y-201784200D03*
D11*
X235250000Y-101500000D03*
D10*
X316337000Y-102690000D03*
X318877000Y-102690000D03*
X321417000Y-102690000D03*
D11*
X93291950Y-204140950D03*
D10*
X106041950Y-111977950D03*
X106041950Y-114517950D03*
X106041950Y-117057950D03*
D11*
X167291950Y-185140950D03*
X163541950Y-103390950D03*
X299791950Y-109390950D03*
X307000000Y-150940000D03*
X190291950Y-54890950D03*
D37*
X135641950Y-66640950D03*
D38*
X116891950Y-66640950D03*
D12*
X114791950Y-188940950D03*
X117291950Y-188940950D03*
X119791950Y-188940950D03*
D17*
X112891950Y-181940950D03*
X121691950Y-181940950D03*
D12*
X252250000Y-123300000D03*
X254750000Y-123300000D03*
X257250000Y-123300000D03*
D17*
X250350000Y-116300000D03*
X259150000Y-116300000D03*
D12*
X177291950Y-117940950D03*
X179791950Y-117940950D03*
X182291950Y-117940950D03*
D17*
X175391950Y-110940950D03*
X184191950Y-110940950D03*
D31*
X150791950Y-55640950D03*
D32*
X150791950Y-50640950D03*
D11*
X192041950Y-146390950D03*
X307000000Y-141940000D03*
X309000000Y-102690000D03*
X208541950Y-174140950D03*
X136041950Y-120640950D03*
D12*
X177291950Y-79940950D03*
X179791950Y-79940950D03*
X182291950Y-79940950D03*
D17*
X175391950Y-72940950D03*
X184191950Y-72940950D03*
D11*
X213541950Y-68140950D03*
X307000000Y-155690000D03*
D16*
X229041950Y-128160950D03*
X229041950Y-125620950D03*
X231581950Y-128160950D03*
X231581950Y-125620950D03*
X234121950Y-128160950D03*
X234121950Y-125620950D03*
X236661950Y-128160950D03*
X236661950Y-125620950D03*
D11*
X286750000Y-57750000D03*
X291291950Y-124140950D03*
D12*
X114791950Y-207440950D03*
X117291950Y-207440950D03*
X119791950Y-207440950D03*
D17*
X112891950Y-200440950D03*
X121691950Y-200440950D03*
D11*
X112791950Y-122640950D03*
X327000000Y-132690000D03*
X297500000Y-113440000D03*
D10*
X284087000Y-64750000D03*
X286627000Y-64750000D03*
X289167000Y-64750000D03*
D11*
X235250000Y-75750000D03*
X206541950Y-138115950D03*
X94291950Y-140390950D03*
X94041950Y-122640950D03*
X302500000Y-127690000D03*
D10*
X256791950Y-181053950D03*
X256791950Y-178513950D03*
X256791950Y-175973950D03*
D11*
X193291950Y-174390950D03*
X265041950Y-160003450D03*
X228655000Y-102155000D03*
X213541950Y-54890950D03*
X206541950Y-142615950D03*
X177541950Y-185140950D03*
X336730000Y-168288000D03*
X167291950Y-180640950D03*
D10*
X259592450Y-191415950D03*
X257052450Y-191415950D03*
X254512450Y-191415950D03*
D28*
X177041950Y-123390950D03*
D29*
X182041950Y-123390950D03*
X177041950Y-137890950D03*
X182041950Y-137890950D03*
X179541950Y-137890950D03*
D30*
X173941950Y-130390950D03*
X185141950Y-130390950D03*
D11*
X96791950Y-91140950D03*
X135541950Y-155890950D03*
X198000000Y-189000000D03*
X190291950Y-50390950D03*
X309000000Y-127690000D03*
D19*
X207041950Y-53290950D03*
X205041950Y-53290950D03*
X203041950Y-53290950D03*
X201041950Y-53290950D03*
X199041950Y-53290950D03*
X197041950Y-53290950D03*
X207041950Y-50790950D03*
X205041950Y-50790950D03*
X203041950Y-50790950D03*
X201041950Y-50790950D03*
X199041950Y-50790950D03*
X197041950Y-50790950D03*
D21*
X208641950Y-54840950D03*
X195441950Y-49240950D03*
D10*
X232105700Y-209780200D03*
X232105700Y-207240200D03*
X232105700Y-204700200D03*
X275929450Y-201828950D03*
X275929450Y-199288950D03*
X275929450Y-196748950D03*
D11*
X265041950Y-155503450D03*
D12*
X134291950Y-188940950D03*
X136791950Y-188940950D03*
X139291950Y-188940950D03*
D17*
X132391950Y-181940950D03*
X141191950Y-181940950D03*
D32*
X98541950Y-98140950D03*
X95041950Y-98140950D03*
D10*
X290878950Y-174890950D03*
X293418950Y-174890950D03*
X295958950Y-174890950D03*
D11*
X213541950Y-72640950D03*
X172541950Y-185140950D03*
X297500000Y-118940000D03*
D39*
X205316950Y-78390950D03*
D40*
X206766950Y-78390950D03*
D39*
X199066950Y-78390950D03*
D40*
X200516950Y-78390950D03*
D41*
X203291950Y-118140950D03*
D39*
X199291950Y-118140950D03*
D42*
X247041950Y-181253450D03*
X247041950Y-179528450D03*
D43*
X305679450Y-186910950D03*
X307404450Y-186910950D03*
X253887500Y-94250000D03*
X255612500Y-94250000D03*
D44*
X256750000Y-110912500D03*
X256750000Y-109087500D03*
D43*
X253887500Y-98000000D03*
X255612500Y-98000000D03*
D45*
X119791950Y-137478450D03*
X119791950Y-139303450D03*
D39*
X195566950Y-82390950D03*
D40*
X197016950Y-82390950D03*
D46*
X289404450Y-136140950D03*
X287679450Y-136140950D03*
D47*
X177453950Y-144640950D03*
D48*
X178040950Y-144640950D03*
X178540950Y-144640950D03*
X179040950Y-144640950D03*
X179540950Y-144640950D03*
X180040950Y-144640950D03*
X180540950Y-144640950D03*
D47*
X181129950Y-144640950D03*
X181129950Y-146140950D03*
D48*
X180540950Y-146140950D03*
X180040950Y-146140950D03*
X179540950Y-146140950D03*
X179040950Y-146140950D03*
X178540950Y-146140950D03*
X178040950Y-146140950D03*
D47*
X177453950Y-146140950D03*
D43*
X305679450Y-181890950D03*
X307404450Y-181890950D03*
D42*
X239291950Y-181253450D03*
X239291950Y-179528450D03*
D49*
X289454450Y-132140950D03*
X287629450Y-132140950D03*
D45*
X252750000Y-109087500D03*
X252750000Y-110912500D03*
D50*
X276629450Y-132140950D03*
X278454450Y-132140950D03*
D43*
X253887500Y-68750000D03*
X255612500Y-68750000D03*
X276679450Y-136140950D03*
X278404450Y-136140950D03*
D39*
X94566950Y-199140950D03*
D40*
X96016950Y-199140950D03*
D39*
X264775000Y-55250000D03*
D40*
X266225000Y-55250000D03*
D51*
X322541950Y-177028450D03*
X322541950Y-178753450D03*
D39*
X261275000Y-78000000D03*
D40*
X262725000Y-78000000D03*
D37*
X135641950Y-73290950D03*
D20*
X116891950Y-73290950D03*
D51*
X318041950Y-177028450D03*
X318041950Y-178753450D03*
D39*
X202316950Y-82390950D03*
D40*
X203766950Y-82390950D03*
D45*
X116791950Y-137478450D03*
X116791950Y-139303450D03*
D41*
X96016950Y-175890950D03*
D52*
X94566950Y-175890950D03*
D53*
X104291950Y-184365950D03*
D54*
X104291950Y-182915950D03*
D43*
X253887500Y-65000000D03*
X255612500Y-65000000D03*
D53*
X104291950Y-190615950D03*
D54*
X104291950Y-189165950D03*
D41*
X203291950Y-122140950D03*
D39*
X199291950Y-122140950D03*
D47*
X212203950Y-151640950D03*
D48*
X212790950Y-151640950D03*
X213290950Y-151640950D03*
X213790950Y-151640950D03*
X214290950Y-151640950D03*
X214790950Y-151640950D03*
X215290950Y-151640950D03*
D47*
X215879950Y-151640950D03*
X215879950Y-153140950D03*
D48*
X215290950Y-153140950D03*
X214790950Y-153140950D03*
X214290950Y-153140950D03*
X213790950Y-153140950D03*
X213290950Y-153140950D03*
X212790950Y-153140950D03*
D47*
X212203950Y-153140950D03*
M02*
