G04 #@! TF.GenerationSoftware,KiCad,Pcbnew,9.0.3-1.fc42app2*
G04 #@! TF.CreationDate,2025-10-05T13:47:13+03:00*
G04 #@! TF.ProjectId,ModulinV2,4d6f6475-6c69-46e5-9632-2e6b69636164,rev?*
G04 #@! TF.SameCoordinates,Original*
G04 #@! TF.FileFunction,Paste,Top*
G04 #@! TF.FilePolarity,Positive*
%FSLAX46Y46*%
G04 Gerber Fmt 4.6, Leading zero omitted, Abs format (unit mm)*
G04 Created by KiCad (PCBNEW 9.0.3-1.fc42app2) date 2025-10-05 13:47:13*
%MOMM*%
%LPD*%
G01*
G04 APERTURE LIST*
G04 Aperture macros list*
%AMRoundRect*
0 Rectangle with rounded corners*
0 $1 Rounding radius*
0 $2 $3 $4 $5 $6 $7 $8 $9 X,Y pos of 4 corners*
0 Add a 4 corners polygon primitive as box body*
4,1,4,$2,$3,$4,$5,$6,$7,$8,$9,$2,$3,0*
0 Add four circle primitives for the rounded corners*
1,1,$1+$1,$2,$3*
1,1,$1+$1,$4,$5*
1,1,$1+$1,$6,$7*
1,1,$1+$1,$8,$9*
0 Add four rect primitives between the rounded corners*
20,1,$1+$1,$2,$3,$4,$5,0*
20,1,$1+$1,$4,$5,$6,$7,0*
20,1,$1+$1,$6,$7,$8,$9,0*
20,1,$1+$1,$8,$9,$2,$3,0*%
G04 Aperture macros list end*
%ADD10RoundRect,0.237500X0.237500X-0.250000X0.237500X0.250000X-0.237500X0.250000X-0.237500X-0.250000X0*%
%ADD11RoundRect,0.237500X0.300000X0.237500X-0.300000X0.237500X-0.300000X-0.237500X0.300000X-0.237500X0*%
%ADD12RoundRect,0.237500X-0.237500X0.300000X-0.237500X-0.300000X0.237500X-0.300000X0.237500X0.300000X0*%
%ADD13RoundRect,0.237500X0.237500X-0.300000X0.237500X0.300000X-0.237500X0.300000X-0.237500X-0.300000X0*%
%ADD14R,1.525000X0.650000*%
%ADD15RoundRect,0.237500X-0.300000X-0.237500X0.300000X-0.237500X0.300000X0.237500X-0.300000X0.237500X0*%
%ADD16R,3.700000X7.900000*%
%ADD17RoundRect,0.237500X-0.237500X0.250000X-0.237500X-0.250000X0.237500X-0.250000X0.237500X0.250000X0*%
%ADD18RoundRect,0.237500X-0.250000X-0.237500X0.250000X-0.237500X0.250000X0.237500X-0.250000X0.237500X0*%
%ADD19R,0.750000X1.150000*%
%ADD20RoundRect,0.237500X0.250000X0.237500X-0.250000X0.237500X-0.250000X-0.237500X0.250000X-0.237500X0*%
%ADD21RoundRect,0.250000X-0.625000X0.400000X-0.625000X-0.400000X0.625000X-0.400000X0.625000X0.400000X0*%
%ADD22RoundRect,0.150000X0.150000X-0.825000X0.150000X0.825000X-0.150000X0.825000X-0.150000X-0.825000X0*%
%ADD23R,0.650000X1.525000*%
%ADD24R,1.900000X5.100000*%
%ADD25R,0.300000X1.400000*%
%ADD26RoundRect,0.250000X0.400000X0.625000X-0.400000X0.625000X-0.400000X-0.625000X0.400000X-0.625000X0*%
%ADD27R,0.700000X1.525000*%
%ADD28RoundRect,0.250000X-0.450000X0.350000X-0.450000X-0.350000X0.450000X-0.350000X0.450000X0.350000X0*%
%ADD29RoundRect,0.250000X0.450000X-0.350000X0.450000X0.350000X-0.450000X0.350000X-0.450000X-0.350000X0*%
%ADD30R,1.000000X0.750000*%
%ADD31R,0.950000X0.950000*%
%ADD32RoundRect,0.150000X-0.150000X-0.200000X0.150000X-0.200000X0.150000X0.200000X-0.150000X0.200000X0*%
%ADD33R,0.850000X0.300000*%
%ADD34RoundRect,0.150000X-0.425000X0.150000X-0.425000X-0.150000X0.425000X-0.150000X0.425000X0.150000X0*%
%ADD35RoundRect,0.075000X-0.500000X0.075000X-0.500000X-0.075000X0.500000X-0.075000X0.500000X0.075000X0*%
%ADD36O,2.100000X1.000000*%
%ADD37O,1.800000X1.000000*%
%ADD38RoundRect,0.250000X-0.350000X-0.450000X0.350000X-0.450000X0.350000X0.450000X-0.350000X0.450000X0*%
%ADD39R,1.200000X0.600000*%
%ADD40R,1.525000X0.700000*%
%ADD41RoundRect,0.250000X0.625000X-0.400000X0.625000X0.400000X-0.625000X0.400000X-0.625000X-0.400000X0*%
%ADD42RoundRect,0.150000X-0.875000X-0.150000X0.875000X-0.150000X0.875000X0.150000X-0.875000X0.150000X0*%
%ADD43R,5.100000X1.900000*%
%ADD44RoundRect,0.250000X-0.400000X-0.625000X0.400000X-0.625000X0.400000X0.625000X-0.400000X0.625000X0*%
%ADD45R,1.050000X2.800000*%
%ADD46R,10.500000X6.850000*%
%ADD47R,0.300000X0.850000*%
%ADD48RoundRect,0.450000X3.550000X1.050000X-3.550000X1.050000X-3.550000X-1.050000X3.550000X-1.050000X0*%
%ADD49R,3.680000X1.270000*%
%ADD50R,0.800000X0.900000*%
%ADD51RoundRect,0.150000X-0.825000X-0.150000X0.825000X-0.150000X0.825000X0.150000X-0.825000X0.150000X0*%
%ADD52R,1.075000X0.300000*%
%ADD53RoundRect,0.250000X0.650000X-0.412500X0.650000X0.412500X-0.650000X0.412500X-0.650000X-0.412500X0*%
%ADD54R,0.700000X1.050000*%
%ADD55RoundRect,0.250000X-0.412500X-0.650000X0.412500X-0.650000X0.412500X0.650000X-0.412500X0.650000X0*%
%ADD56RoundRect,0.150000X-0.150000X0.825000X-0.150000X-0.825000X0.150000X-0.825000X0.150000X0.825000X0*%
%ADD57R,0.600000X1.200000*%
%ADD58R,0.300000X1.475000*%
%ADD59R,1.475000X0.300000*%
%ADD60R,1.400000X0.300000*%
%ADD61RoundRect,0.150000X0.150000X0.200000X-0.150000X0.200000X-0.150000X-0.200000X0.150000X-0.200000X0*%
%ADD62RoundRect,0.225000X2.775000X0.525000X-2.775000X0.525000X-2.775000X-0.525000X2.775000X-0.525000X0*%
%ADD63R,0.300000X0.800000*%
%ADD64R,0.800000X0.300000*%
%ADD65R,1.750000X1.750000*%
%ADD66R,0.650000X1.100000*%
%ADD67R,3.500000X1.600000*%
%ADD68R,9.750000X12.200000*%
%ADD69RoundRect,0.450000X-3.550000X-1.050000X3.550000X-1.050000X3.550000X1.050000X-3.550000X1.050000X0*%
%ADD70RoundRect,0.250000X-0.650000X0.412500X-0.650000X-0.412500X0.650000X-0.412500X0.650000X0.412500X0*%
%ADD71R,1.140000X1.680000*%
G04 APERTURE END LIST*
D10*
X206791950Y-210303450D03*
X206791950Y-208478450D03*
D11*
X252313500Y-53799000D03*
X250588500Y-53799000D03*
D12*
X301250000Y-121827500D03*
X301250000Y-123552500D03*
D13*
X103041950Y-153828450D03*
X103041950Y-152103450D03*
D14*
X211599810Y-156871090D03*
X211599810Y-158141090D03*
X211599810Y-159411090D03*
X211599810Y-160681090D03*
X211599810Y-161951090D03*
X211599810Y-163221090D03*
X211599810Y-164491090D03*
X211599810Y-165761090D03*
X217023810Y-165761090D03*
X217023810Y-164491090D03*
X217023810Y-163221090D03*
X217023810Y-161951090D03*
X217023810Y-160681090D03*
X217023810Y-159411090D03*
X217023810Y-158141090D03*
X217023810Y-156871090D03*
D15*
X246929450Y-133890950D03*
X248654450Y-133890950D03*
D11*
X218924310Y-152871090D03*
X217199310Y-152871090D03*
D16*
X153191950Y-68640950D03*
X163391950Y-68640950D03*
D12*
X238291950Y-134278450D03*
X238291950Y-136003450D03*
D11*
X193041950Y-115140950D03*
X191316950Y-115140950D03*
D17*
X103041950Y-144878450D03*
X103041950Y-146703450D03*
D18*
X286629450Y-207303450D03*
X288454450Y-207303450D03*
D19*
X101041950Y-126540950D03*
X101041950Y-128240950D03*
D20*
X176954450Y-141890950D03*
X175129450Y-141890950D03*
D11*
X229767500Y-80405000D03*
X228042500Y-80405000D03*
D12*
X304250000Y-121827500D03*
X304250000Y-123552500D03*
D17*
X123041950Y-125978450D03*
X123041950Y-127803450D03*
D21*
X265750000Y-111200000D03*
X265750000Y-114300000D03*
D18*
X292629450Y-206303450D03*
X294454450Y-206303450D03*
D22*
X196596950Y-120115950D03*
X197866950Y-120115950D03*
X199136950Y-120115950D03*
X200406950Y-120115950D03*
X201676950Y-120115950D03*
X202946950Y-120115950D03*
X204216950Y-120115950D03*
X205486950Y-120115950D03*
X205486950Y-115165950D03*
X204216950Y-115165950D03*
X202946950Y-115165950D03*
X201676950Y-115165950D03*
X200406950Y-115165950D03*
X199136950Y-115165950D03*
X197866950Y-115165950D03*
X196596950Y-115165950D03*
D10*
X265402000Y-90010500D03*
X265402000Y-88185500D03*
D15*
X190929450Y-78640950D03*
X192654450Y-78640950D03*
D23*
X155601950Y-168928950D03*
X154331950Y-168928950D03*
X153061950Y-168928950D03*
X151791950Y-168928950D03*
X150521950Y-168928950D03*
X149251950Y-168928950D03*
X147981950Y-168928950D03*
X147981950Y-174352950D03*
X149251950Y-174352950D03*
X150521950Y-174352950D03*
X151791950Y-174352950D03*
X153061950Y-174352950D03*
X154331950Y-174352950D03*
X155601950Y-174352950D03*
D10*
X99541950Y-119053450D03*
X99541950Y-117228450D03*
D24*
X135891950Y-81640950D03*
X131691950Y-81640950D03*
D11*
X189174310Y-170121090D03*
X187449310Y-170121090D03*
D17*
X283291950Y-203140950D03*
X283291950Y-204965950D03*
D15*
X132179450Y-148890950D03*
X133904450Y-148890950D03*
D10*
X244451000Y-65711500D03*
X244451000Y-63886500D03*
D11*
X232042500Y-75586250D03*
X230317500Y-75586250D03*
D10*
X99291950Y-78053450D03*
X99291950Y-76228450D03*
D11*
X300904450Y-149390950D03*
X299179450Y-149390950D03*
D10*
X326895000Y-104602500D03*
X326895000Y-102777500D03*
D13*
X135329450Y-105253450D03*
X135329450Y-103528450D03*
D11*
X125404450Y-150390950D03*
X123679450Y-150390950D03*
D18*
X116629450Y-122890950D03*
X118454450Y-122890950D03*
D25*
X191791950Y-64590950D03*
X192291950Y-64590950D03*
X192791950Y-64590950D03*
X193291950Y-64590950D03*
X193791950Y-64590950D03*
X193791950Y-60190950D03*
X193291950Y-60190950D03*
X192791950Y-60190950D03*
X192291950Y-60190950D03*
X191791950Y-60190950D03*
D11*
X313475000Y-154190000D03*
X311750000Y-154190000D03*
D15*
X323408182Y-141940000D03*
X325133182Y-141940000D03*
X191679450Y-99390950D03*
X193404450Y-99390950D03*
D13*
X287541950Y-166753450D03*
X287541950Y-165028450D03*
D12*
X242791950Y-134278450D03*
X242791950Y-136003450D03*
D26*
X217841950Y-174140950D03*
X214741950Y-174140950D03*
D27*
X240210000Y-115370750D03*
X241480000Y-115370750D03*
X242750000Y-115370750D03*
X244020000Y-115370750D03*
X244020000Y-109946750D03*
X242750000Y-109946750D03*
X241480000Y-109946750D03*
X240210000Y-109946750D03*
D11*
X269291950Y-194915950D03*
X267566950Y-194915950D03*
D28*
X254201000Y-72799000D03*
X254201000Y-74799000D03*
D11*
X300904450Y-144370950D03*
X299179450Y-144370950D03*
D18*
X207129450Y-76890950D03*
X208954450Y-76890950D03*
D29*
X235791950Y-183640950D03*
X235791950Y-181640950D03*
D15*
X210743200Y-205280200D03*
X212468200Y-205280200D03*
D30*
X93541950Y-147040950D03*
X98041950Y-147040950D03*
X93541950Y-144890950D03*
X98041950Y-144890950D03*
D11*
X112654450Y-66640950D03*
X110929450Y-66640950D03*
D15*
X143679450Y-161140950D03*
X145404450Y-161140950D03*
D11*
X255266950Y-149390950D03*
X253541950Y-149390950D03*
D31*
X204311810Y-151621090D03*
X205811810Y-151621090D03*
D14*
X193023810Y-165816090D03*
X193023810Y-164546090D03*
X193023810Y-163276090D03*
X193023810Y-162006090D03*
X193023810Y-160736090D03*
X193023810Y-159466090D03*
X193023810Y-158196090D03*
X193023810Y-156926090D03*
X187599810Y-156926090D03*
X187599810Y-158196090D03*
X187599810Y-159466090D03*
X187599810Y-160736090D03*
X187599810Y-162006090D03*
X187599810Y-163276090D03*
X187599810Y-164546090D03*
X187599810Y-165816090D03*
D31*
X94291950Y-76390950D03*
X94291950Y-77890950D03*
D25*
X118541950Y-167192950D03*
X118041950Y-167192950D03*
X117541950Y-167192950D03*
X117041950Y-167192950D03*
X116541950Y-167192950D03*
X116541950Y-171592950D03*
X117041950Y-171592950D03*
X117541950Y-171592950D03*
X118041950Y-171592950D03*
X118541950Y-171592950D03*
D17*
X270902000Y-85935500D03*
X270902000Y-87760500D03*
D23*
X271981950Y-149602950D03*
X273251950Y-149602950D03*
X274521950Y-149602950D03*
X275791950Y-149602950D03*
X277061950Y-149602950D03*
X278331950Y-149602950D03*
X279601950Y-149602950D03*
X279601950Y-144178950D03*
X278331950Y-144178950D03*
X277061950Y-144178950D03*
X275791950Y-144178950D03*
X274521950Y-144178950D03*
X273251950Y-144178950D03*
X271981950Y-144178950D03*
D26*
X242202000Y-100848000D03*
X239102000Y-100848000D03*
D11*
X104654450Y-104640950D03*
X102929450Y-104640950D03*
X198654450Y-174390950D03*
X196929450Y-174390950D03*
D31*
X224791950Y-152890950D03*
X226291950Y-152890950D03*
D27*
X314145000Y-118902000D03*
X315415000Y-118902000D03*
X316685000Y-118902000D03*
X317955000Y-118902000D03*
X317955000Y-113478000D03*
X316685000Y-113478000D03*
X315415000Y-113478000D03*
X314145000Y-113478000D03*
D10*
X326895000Y-124852500D03*
X326895000Y-123027500D03*
D12*
X115541950Y-154028450D03*
X115541950Y-155753450D03*
D31*
X197311810Y-151621090D03*
X198811810Y-151621090D03*
D15*
X283429450Y-187053450D03*
X285154450Y-187053450D03*
D14*
X202503950Y-87200950D03*
X202503950Y-85930950D03*
X202503950Y-84660950D03*
X202503950Y-83390950D03*
X202503950Y-82120950D03*
X202503950Y-80850950D03*
X202503950Y-79580950D03*
X197079950Y-79580950D03*
X197079950Y-80850950D03*
X197079950Y-82120950D03*
X197079950Y-83390950D03*
X197079950Y-84660950D03*
X197079950Y-85930950D03*
X197079950Y-87200950D03*
D13*
X118291950Y-133253450D03*
X118291950Y-131528450D03*
D32*
X319828950Y-186390950D03*
X318428950Y-186390950D03*
D15*
X246929450Y-149390950D03*
X248654450Y-149390950D03*
D11*
X197404450Y-133390950D03*
X195679450Y-133390950D03*
D25*
X202291950Y-73840950D03*
X202791950Y-73840950D03*
X203291950Y-73840950D03*
X203791950Y-73840950D03*
X204291950Y-73840950D03*
X204291950Y-69440950D03*
X203791950Y-69440950D03*
X203291950Y-69440950D03*
X202791950Y-69440950D03*
X202291950Y-69440950D03*
D13*
X115291950Y-133253450D03*
X115291950Y-131528450D03*
D15*
X340112500Y-147190000D03*
X341837500Y-147190000D03*
D10*
X268701000Y-65211500D03*
X268701000Y-63386500D03*
D11*
X198654450Y-183390950D03*
X196929450Y-183390950D03*
D28*
X213155000Y-95405000D03*
X213155000Y-97405000D03*
D33*
X316945682Y-141440000D03*
X316945682Y-141940000D03*
X316945682Y-142440000D03*
X316945682Y-142940000D03*
X320095682Y-142940000D03*
X320095682Y-142440000D03*
X320095682Y-141940000D03*
X320095682Y-141440000D03*
D20*
X246954450Y-186640950D03*
X245129450Y-186640950D03*
D13*
X233930000Y-82198750D03*
X233930000Y-80473750D03*
D25*
X110291950Y-167192950D03*
X109791950Y-167192950D03*
X109291950Y-167192950D03*
X108791950Y-167192950D03*
X108291950Y-167192950D03*
X108291950Y-171592950D03*
X108791950Y-171592950D03*
X109291950Y-171592950D03*
X109791950Y-171592950D03*
X110291950Y-171592950D03*
D10*
X291041950Y-211215950D03*
X291041950Y-209390950D03*
D29*
X319128950Y-176640950D03*
X319128950Y-174640950D03*
D12*
X304200000Y-66275000D03*
X304200000Y-68000000D03*
D34*
X96858824Y-129190950D03*
X96858824Y-129990950D03*
D35*
X96858824Y-131140950D03*
X96858824Y-132140950D03*
X96858824Y-132640950D03*
X96858824Y-133640950D03*
D34*
X96858824Y-134790950D03*
X96858824Y-135590950D03*
X96858824Y-135590950D03*
X96858824Y-134790950D03*
D35*
X96858824Y-134140950D03*
X96858824Y-133140950D03*
X96858824Y-131640950D03*
X96858824Y-130640950D03*
D34*
X96858824Y-129990950D03*
X96858824Y-129190950D03*
D36*
X96283824Y-128070950D03*
D37*
X92103824Y-128070950D03*
D36*
X96283824Y-136710950D03*
D37*
X92103824Y-136710950D03*
D15*
X190929450Y-82640950D03*
X192654450Y-82640950D03*
D26*
X225841950Y-183890950D03*
X222741950Y-183890950D03*
D11*
X223517500Y-101405000D03*
X221792500Y-101405000D03*
D18*
X182129450Y-146390950D03*
X183954450Y-146390950D03*
D13*
X170791950Y-203003450D03*
X170791950Y-201278450D03*
D38*
X227905000Y-85155000D03*
X229905000Y-85155000D03*
D13*
X187791950Y-143753450D03*
X187791950Y-142028450D03*
D11*
X331612500Y-150190000D03*
X329887500Y-150190000D03*
D39*
X221253950Y-138865950D03*
X221253950Y-139815950D03*
X221253950Y-140765950D03*
X223753950Y-140765950D03*
X223753950Y-138865950D03*
D18*
X318216450Y-166640950D03*
X320041450Y-166640950D03*
D40*
X112829950Y-110890950D03*
X112829950Y-112160950D03*
X112829950Y-113430950D03*
X112829950Y-114700950D03*
X118253950Y-114700950D03*
X118253950Y-113430950D03*
X118253950Y-112160950D03*
X118253950Y-110890950D03*
D17*
X238951000Y-63886500D03*
X238951000Y-65711500D03*
D12*
X253291950Y-153528450D03*
X253291950Y-155253450D03*
D15*
X263789500Y-98598000D03*
X265514500Y-98598000D03*
X257289500Y-82848000D03*
X259014500Y-82848000D03*
D18*
X269587500Y-111250000D03*
X271412500Y-111250000D03*
D31*
X105541950Y-122890950D03*
X104041950Y-122890950D03*
D15*
X183929450Y-209440950D03*
X185654450Y-209440950D03*
D25*
X126291950Y-167192950D03*
X125791950Y-167192950D03*
X125291950Y-167192950D03*
X124791950Y-167192950D03*
X124291950Y-167192950D03*
X124291950Y-171592950D03*
X124791950Y-171592950D03*
X125291950Y-171592950D03*
X125791950Y-171592950D03*
X126291950Y-171592950D03*
X191791950Y-73840950D03*
X192291950Y-73840950D03*
X192791950Y-73840950D03*
X193291950Y-73840950D03*
X193791950Y-73840950D03*
X193791950Y-69440950D03*
X193291950Y-69440950D03*
X192791950Y-69440950D03*
X192291950Y-69440950D03*
X191791950Y-69440950D03*
D16*
X144691950Y-82640950D03*
X154891950Y-82640950D03*
D26*
X307928950Y-186390950D03*
X304828950Y-186390950D03*
D20*
X265613500Y-74299000D03*
X263788500Y-74299000D03*
D11*
X198654450Y-69390950D03*
X196929450Y-69390950D03*
D41*
X230291950Y-113440950D03*
X230291950Y-110340950D03*
D39*
X319746182Y-153634250D03*
X319746182Y-152684250D03*
X319746182Y-151734250D03*
X317246182Y-151734250D03*
X317246182Y-152684250D03*
X317246182Y-153634250D03*
D20*
X250341950Y-196165950D03*
X248516950Y-196165950D03*
D15*
X246929450Y-145890950D03*
X248654450Y-145890950D03*
D11*
X229792500Y-92336250D03*
X228067500Y-92336250D03*
D13*
X180541950Y-179253450D03*
X180541950Y-177528450D03*
D40*
X206750000Y-194000000D03*
X206750000Y-192730000D03*
X206750000Y-191460000D03*
X206750000Y-190190000D03*
X201326000Y-190190000D03*
X201326000Y-191460000D03*
X201326000Y-192730000D03*
X201326000Y-194000000D03*
D10*
X323250000Y-123102500D03*
X323250000Y-121277500D03*
D42*
X250051000Y-57969000D03*
X250051000Y-59239000D03*
X250051000Y-60509000D03*
X250051000Y-61779000D03*
X250051000Y-63049000D03*
X250051000Y-64319000D03*
X250051000Y-65589000D03*
X250051000Y-66859000D03*
X250051000Y-68129000D03*
X259351000Y-68129000D03*
X259351000Y-66859000D03*
X259351000Y-65589000D03*
X259351000Y-64319000D03*
X259351000Y-63049000D03*
X259351000Y-61779000D03*
X259351000Y-60509000D03*
X259351000Y-59239000D03*
X259351000Y-57969000D03*
D20*
X256454450Y-169140950D03*
X254629450Y-169140950D03*
D18*
X207629450Y-177890950D03*
X209454450Y-177890950D03*
D43*
X143291950Y-70740950D03*
X143291950Y-66540950D03*
D44*
X314700000Y-52000000D03*
X317800000Y-52000000D03*
D45*
X110691950Y-71965950D03*
X108991950Y-71965950D03*
X107291950Y-71965950D03*
X105591950Y-71965950D03*
X103891950Y-71965950D03*
D46*
X107291950Y-82315950D03*
D26*
X317050000Y-109190000D03*
X313950000Y-109190000D03*
D10*
X261291950Y-160303450D03*
X261291950Y-158478450D03*
D17*
X238902000Y-92935500D03*
X238902000Y-94760500D03*
X264679450Y-190753450D03*
X264679450Y-192578450D03*
D12*
X301300000Y-66237500D03*
X301300000Y-67962500D03*
D13*
X282811950Y-166753450D03*
X282811950Y-165028450D03*
D17*
X265402000Y-78935500D03*
X265402000Y-80760500D03*
D10*
X274951000Y-65211500D03*
X274951000Y-63386500D03*
D12*
X121541950Y-171778450D03*
X121541950Y-173503450D03*
D15*
X212067500Y-91836250D03*
X213792500Y-91836250D03*
D13*
X329862500Y-137802500D03*
X329862500Y-136077500D03*
D18*
X301087500Y-54250000D03*
X302912500Y-54250000D03*
D20*
X246954450Y-172140950D03*
X245129450Y-172140950D03*
D13*
X265291950Y-144753450D03*
X265291950Y-143028450D03*
X277791950Y-166753450D03*
X277791950Y-165028450D03*
X264291950Y-138253450D03*
X264291950Y-136528450D03*
D39*
X319770682Y-147640000D03*
X319770682Y-146690000D03*
X319770682Y-145740000D03*
X317270682Y-145740000D03*
X317270682Y-146690000D03*
X317270682Y-147640000D03*
D17*
X228855700Y-190704700D03*
X228855700Y-192529700D03*
D15*
X210743200Y-201030200D03*
X212468200Y-201030200D03*
D33*
X316921182Y-156434250D03*
X316921182Y-156934250D03*
X316921182Y-157434250D03*
X316921182Y-157934250D03*
X320071182Y-157934250D03*
X320071182Y-157434250D03*
X320071182Y-156934250D03*
X320071182Y-156434250D03*
D11*
X271791950Y-191665950D03*
X270066950Y-191665950D03*
D31*
X190311810Y-151621090D03*
X191811810Y-151621090D03*
D11*
X331612500Y-147190000D03*
X329887500Y-147190000D03*
D18*
X254629450Y-165890950D03*
X256454450Y-165890950D03*
X137879450Y-161140950D03*
X139704450Y-161140950D03*
D47*
X191291950Y-141190950D03*
X191791950Y-141190950D03*
X192291950Y-141190950D03*
X192791950Y-141190950D03*
X192791950Y-138040950D03*
X192291950Y-138040950D03*
X191791950Y-138040950D03*
X191291950Y-138040950D03*
D15*
X189429450Y-111890950D03*
X191154450Y-111890950D03*
D17*
X294291950Y-197640950D03*
X294291950Y-199465950D03*
D15*
X210679450Y-210390950D03*
X212404450Y-210390950D03*
X323633682Y-157434250D03*
X325358682Y-157434250D03*
D13*
X150541950Y-179253450D03*
X150541950Y-177528450D03*
D15*
X200929450Y-210140950D03*
X202654450Y-210140950D03*
D20*
X217204450Y-169140950D03*
X215379450Y-169140950D03*
D44*
X222741950Y-174140950D03*
X225841950Y-174140950D03*
D15*
X189429450Y-108390950D03*
X191154450Y-108390950D03*
D26*
X317100000Y-122940000D03*
X314000000Y-122940000D03*
D15*
X128429450Y-129390950D03*
X130154450Y-129390950D03*
D26*
X183591950Y-196640950D03*
X180491950Y-196640950D03*
D15*
X317750000Y-137690000D03*
X319475000Y-137690000D03*
D18*
X301087500Y-59250000D03*
X302912500Y-59250000D03*
D25*
X202291950Y-64590950D03*
X202791950Y-64590950D03*
X203291950Y-64590950D03*
X203791950Y-64590950D03*
X204291950Y-64590950D03*
X204291950Y-60190950D03*
X203791950Y-60190950D03*
X203291950Y-60190950D03*
X202791950Y-60190950D03*
X202291950Y-60190950D03*
D11*
X249813500Y-71799000D03*
X248088500Y-71799000D03*
D26*
X242251000Y-71299000D03*
X239151000Y-71299000D03*
D10*
X190541950Y-104803450D03*
X190541950Y-102978450D03*
D28*
X216355700Y-199367200D03*
X216355700Y-201367200D03*
D15*
X211449310Y-152871090D03*
X213174310Y-152871090D03*
D40*
X218193000Y-79250000D03*
X218193000Y-80520000D03*
X218193000Y-81790000D03*
X218193000Y-83060000D03*
X223617000Y-83060000D03*
X223617000Y-81790000D03*
X223617000Y-80520000D03*
X223617000Y-79250000D03*
X94079950Y-110890950D03*
X94079950Y-112160950D03*
X94079950Y-113430950D03*
X94079950Y-114700950D03*
X99503950Y-114700950D03*
X99503950Y-113430950D03*
X99503950Y-112160950D03*
X99503950Y-110890950D03*
D48*
X334645000Y-127940000D03*
X334645000Y-119940000D03*
D17*
X244402000Y-85435500D03*
X244402000Y-87260500D03*
D14*
X308666950Y-174830950D03*
X308666950Y-176100950D03*
X308666950Y-177370950D03*
X308666950Y-178640950D03*
X308666950Y-179910950D03*
X308666950Y-181180950D03*
X308666950Y-182450950D03*
X314090950Y-182450950D03*
X314090950Y-181180950D03*
X314090950Y-179910950D03*
X314090950Y-178640950D03*
X314090950Y-177370950D03*
X314090950Y-176100950D03*
X314090950Y-174830950D03*
D18*
X311216450Y-166640950D03*
X313041450Y-166640950D03*
D31*
X169061810Y-166871090D03*
X170561810Y-166871090D03*
D12*
X201541950Y-131778450D03*
X201541950Y-133503450D03*
D11*
X208904450Y-60140950D03*
X207179450Y-60140950D03*
D31*
X169061810Y-163121090D03*
X170561810Y-163121090D03*
D23*
X294101950Y-144178950D03*
X292831950Y-144178950D03*
X291561950Y-144178950D03*
X290291950Y-144178950D03*
X289021950Y-144178950D03*
X287751950Y-144178950D03*
X286481950Y-144178950D03*
X286481950Y-149602950D03*
X287751950Y-149602950D03*
X289021950Y-149602950D03*
X290291950Y-149602950D03*
X291561950Y-149602950D03*
X292831950Y-149602950D03*
X294101950Y-149602950D03*
D49*
X95316950Y-160850950D03*
X100266950Y-160850950D03*
X95316950Y-163390950D03*
X100266950Y-163390950D03*
X95316950Y-165930950D03*
X100266950Y-165930950D03*
D13*
X304200000Y-63925000D03*
X304200000Y-62200000D03*
D17*
X244451000Y-50636500D03*
X244451000Y-52461500D03*
X270902000Y-78935500D03*
X270902000Y-80760500D03*
X250273950Y-175228450D03*
X250273950Y-177053450D03*
D12*
X195179450Y-124278450D03*
X195179450Y-126003450D03*
D42*
X250002000Y-87268000D03*
X250002000Y-88538000D03*
X250002000Y-89808000D03*
X250002000Y-91078000D03*
X250002000Y-92348000D03*
X250002000Y-93618000D03*
X250002000Y-94888000D03*
X250002000Y-96158000D03*
X250002000Y-97428000D03*
X259302000Y-97428000D03*
X259302000Y-96158000D03*
X259302000Y-94888000D03*
X259302000Y-93618000D03*
X259302000Y-92348000D03*
X259302000Y-91078000D03*
X259302000Y-89808000D03*
X259302000Y-88538000D03*
X259302000Y-87268000D03*
D15*
X206679450Y-103640950D03*
X208404450Y-103640950D03*
D12*
X170791950Y-206278450D03*
X170791950Y-208003450D03*
D10*
X244402000Y-94760500D03*
X244402000Y-92935500D03*
D15*
X248929450Y-166140950D03*
X250654450Y-166140950D03*
D10*
X274902000Y-94760500D03*
X274902000Y-92935500D03*
D26*
X217841950Y-183890950D03*
X214741950Y-183890950D03*
D14*
X293003950Y-161950950D03*
X293003950Y-160680950D03*
X293003950Y-159410950D03*
X293003950Y-158140950D03*
X293003950Y-156870950D03*
X293003950Y-155600950D03*
X293003950Y-154330950D03*
X287579950Y-154330950D03*
X287579950Y-155600950D03*
X287579950Y-156870950D03*
X287579950Y-158140950D03*
X287579950Y-159410950D03*
X287579950Y-160680950D03*
X287579950Y-161950950D03*
D15*
X296429450Y-209553450D03*
X298154450Y-209553450D03*
X304887500Y-107190000D03*
X306612500Y-107190000D03*
D17*
X110791950Y-142228450D03*
X110791950Y-144053450D03*
D21*
X265750000Y-118950000D03*
X265750000Y-122050000D03*
D18*
X323716450Y-171140950D03*
X325541450Y-171140950D03*
D31*
X176061810Y-151621090D03*
X177561810Y-151621090D03*
D50*
X102641950Y-138240950D03*
X102641950Y-140040950D03*
X101441950Y-140040950D03*
X101441950Y-138240950D03*
D18*
X323716450Y-186390950D03*
X325541450Y-186390950D03*
D15*
X246566950Y-200915950D03*
X248291950Y-200915950D03*
X275066950Y-207165950D03*
X276791950Y-207165950D03*
D30*
X98041950Y-151890950D03*
X93541950Y-151890950D03*
X98041950Y-154040950D03*
X93541950Y-154040950D03*
D15*
X130929450Y-163140950D03*
X132654450Y-163140950D03*
D18*
X267516950Y-199165950D03*
X269341950Y-199165950D03*
X108129450Y-138140950D03*
X109954450Y-138140950D03*
D17*
X328878950Y-174728450D03*
X328878950Y-176553450D03*
D51*
X221880700Y-198172200D03*
X221880700Y-199442200D03*
X221880700Y-200712200D03*
X221880700Y-201982200D03*
X221880700Y-203252200D03*
X221880700Y-204522200D03*
X221880700Y-205792200D03*
X221880700Y-207062200D03*
X226830700Y-207062200D03*
X226830700Y-205792200D03*
X226830700Y-204522200D03*
X226830700Y-203252200D03*
X226830700Y-201982200D03*
X226830700Y-200712200D03*
X226830700Y-199442200D03*
X226830700Y-198172200D03*
D17*
X238902000Y-87935500D03*
X238902000Y-89760500D03*
D27*
X333982000Y-151307000D03*
X335252000Y-151307000D03*
X336522000Y-151307000D03*
X337792000Y-151307000D03*
X337792000Y-145883000D03*
X336522000Y-145883000D03*
X335252000Y-145883000D03*
X333982000Y-145883000D03*
D11*
X235718200Y-191780200D03*
X233993200Y-191780200D03*
D12*
X138291950Y-168528450D03*
X138291950Y-170253450D03*
D52*
X242079950Y-142640950D03*
X242079950Y-142140950D03*
X242079950Y-141640950D03*
X242079950Y-141140950D03*
X242079950Y-140640950D03*
X242079950Y-140140950D03*
X242079950Y-139640950D03*
X242079950Y-139140950D03*
X239003950Y-139140950D03*
X239003950Y-139640950D03*
X239003950Y-140140950D03*
X239003950Y-140640950D03*
X239003950Y-141140950D03*
X239003950Y-141640950D03*
X239003950Y-142140950D03*
X239003950Y-142640950D03*
D31*
X94291950Y-87140950D03*
X94291950Y-85640950D03*
D12*
X150541950Y-164028450D03*
X150541950Y-165753450D03*
D20*
X225204450Y-178890950D03*
X223379450Y-178890950D03*
D10*
X268652000Y-94760500D03*
X268652000Y-92935500D03*
D11*
X298154450Y-203053450D03*
X296429450Y-203053450D03*
D53*
X132541950Y-137953450D03*
X132541950Y-134828450D03*
D11*
X198654450Y-60140950D03*
X196929450Y-60140950D03*
D18*
X101129450Y-130640950D03*
X102954450Y-130640950D03*
D15*
X323633682Y-153684250D03*
X325358682Y-153684250D03*
D52*
X255829950Y-133890950D03*
X255829950Y-133390950D03*
X255829950Y-132890950D03*
X255829950Y-132390950D03*
X255829950Y-131890950D03*
X255829950Y-131390950D03*
X255829950Y-130890950D03*
X255829950Y-130390950D03*
X252753950Y-130390950D03*
X252753950Y-130890950D03*
X252753950Y-131390950D03*
X252753950Y-131890950D03*
X252753950Y-132390950D03*
X252753950Y-132890950D03*
X252753950Y-133390950D03*
X252753950Y-133890950D03*
D10*
X324628950Y-182553450D03*
X324628950Y-180728450D03*
D13*
X236250000Y-106612500D03*
X236250000Y-104887500D03*
D15*
X198679450Y-128390950D03*
X200404450Y-128390950D03*
X115429450Y-163140950D03*
X117154450Y-163140950D03*
D54*
X325578950Y-189740950D03*
X323678950Y-189740950D03*
X324628950Y-192040950D03*
D11*
X213905000Y-79155000D03*
X212180000Y-79155000D03*
D14*
X211791950Y-138870950D03*
X211791950Y-140140950D03*
X211791950Y-141410950D03*
X211791950Y-142680950D03*
X211791950Y-143950950D03*
X211791950Y-145220950D03*
X211791950Y-146490950D03*
X211791950Y-147760950D03*
X217215950Y-147760950D03*
X217215950Y-146490950D03*
X217215950Y-145220950D03*
X217215950Y-143950950D03*
X217215950Y-142680950D03*
X217215950Y-141410950D03*
X217215950Y-140140950D03*
X217215950Y-138870950D03*
D15*
X216567500Y-101336250D03*
X218292500Y-101336250D03*
D17*
X238951000Y-58636500D03*
X238951000Y-60461500D03*
D11*
X220792500Y-105836250D03*
X219067500Y-105836250D03*
D15*
X258289500Y-101348000D03*
X260014500Y-101348000D03*
D41*
X235541950Y-113440950D03*
X235541950Y-110340950D03*
D31*
X224791950Y-157140950D03*
X226291950Y-157140950D03*
D39*
X196041950Y-137165950D03*
X196041950Y-138115950D03*
X196041950Y-139065950D03*
X198541950Y-139065950D03*
X198541950Y-137165950D03*
D17*
X320000000Y-121277500D03*
X320000000Y-123102500D03*
D25*
X134041950Y-167192950D03*
X133541950Y-167192950D03*
X133041950Y-167192950D03*
X132541950Y-167192950D03*
X132041950Y-167192950D03*
X132041950Y-171592950D03*
X132541950Y-171592950D03*
X133041950Y-171592950D03*
X133541950Y-171592950D03*
X134041950Y-171592950D03*
D13*
X264291950Y-150253450D03*
X264291950Y-148528450D03*
D15*
X257338500Y-53799000D03*
X259063500Y-53799000D03*
D11*
X208904450Y-64640950D03*
X207179450Y-64640950D03*
D41*
X188291950Y-205240950D03*
X188291950Y-202140950D03*
D31*
X183061810Y-151621090D03*
X184561810Y-151621090D03*
D13*
X269041950Y-144753450D03*
X269041950Y-143028450D03*
D41*
X225291950Y-113440950D03*
X225291950Y-110340950D03*
D15*
X323408182Y-145690000D03*
X325133182Y-145690000D03*
D13*
X104041950Y-128253450D03*
X104041950Y-126528450D03*
D12*
X227503950Y-133453450D03*
X227503950Y-135178450D03*
D15*
X340112500Y-150190000D03*
X341837500Y-150190000D03*
D55*
X131479450Y-145140950D03*
X134604450Y-145140950D03*
D31*
X224791950Y-161390950D03*
X226291950Y-161390950D03*
X169061810Y-155621090D03*
X170561810Y-155621090D03*
D12*
X229541950Y-179028450D03*
X229541950Y-180753450D03*
D15*
X128429450Y-132390950D03*
X130154450Y-132390950D03*
D20*
X182954450Y-191140950D03*
X181129450Y-191140950D03*
D15*
X203179450Y-174390950D03*
X204904450Y-174390950D03*
D11*
X241404450Y-164410950D03*
X239679450Y-164410950D03*
D13*
X197291950Y-148503450D03*
X197291950Y-146778450D03*
D15*
X123679450Y-156640950D03*
X125404450Y-156640950D03*
D28*
X254152000Y-102598000D03*
X254152000Y-104598000D03*
D12*
X211753950Y-133453450D03*
X211753950Y-135178450D03*
D10*
X329862500Y-142852500D03*
X329862500Y-141027500D03*
D18*
X231193200Y-199367200D03*
X233018200Y-199367200D03*
D13*
X259791950Y-150253450D03*
X259791950Y-148528450D03*
D14*
X240579950Y-175580950D03*
X240579950Y-176850950D03*
X240579950Y-178120950D03*
X240579950Y-179390950D03*
X240579950Y-180660950D03*
X240579950Y-181930950D03*
X240579950Y-183200950D03*
X246003950Y-183200950D03*
X246003950Y-181930950D03*
X246003950Y-180660950D03*
X246003950Y-179390950D03*
X246003950Y-178120950D03*
X246003950Y-176850950D03*
X246003950Y-175580950D03*
D12*
X151791950Y-208028450D03*
X151791950Y-209753450D03*
D15*
X184929450Y-178390950D03*
X186654450Y-178390950D03*
D11*
X198654450Y-73890950D03*
X196929450Y-73890950D03*
D56*
X203124450Y-103665950D03*
X201854450Y-103665950D03*
X200584450Y-103665950D03*
X199314450Y-103665950D03*
X198044450Y-103665950D03*
X196774450Y-103665950D03*
X195504450Y-103665950D03*
X194234450Y-103665950D03*
X194234450Y-108615950D03*
X195504450Y-108615950D03*
X196774450Y-108615950D03*
X198044450Y-108615950D03*
X199314450Y-108615950D03*
X200584450Y-108615950D03*
X201854450Y-108615950D03*
X203124450Y-108615950D03*
D20*
X207454450Y-94390950D03*
X205629450Y-94390950D03*
D11*
X208904450Y-69390950D03*
X207179450Y-69390950D03*
D17*
X244402000Y-78935500D03*
X244402000Y-80760500D03*
D11*
X311112500Y-107190000D03*
X309387500Y-107190000D03*
D17*
X270951000Y-56136500D03*
X270951000Y-57961500D03*
D15*
X244137500Y-122500000D03*
X245862500Y-122500000D03*
D11*
X152654450Y-161140950D03*
X150929450Y-161140950D03*
D17*
X196291950Y-97728450D03*
X196291950Y-99553450D03*
D28*
X235791950Y-175140950D03*
X235791950Y-177140950D03*
D15*
X246566950Y-205165950D03*
X248291950Y-205165950D03*
D57*
X261741950Y-142390950D03*
X260791950Y-142390950D03*
X259841950Y-142390950D03*
X259841950Y-144890950D03*
X261741950Y-144890950D03*
D52*
X255829950Y-145890950D03*
X255829950Y-145390950D03*
X255829950Y-144890950D03*
X255829950Y-144390950D03*
X255829950Y-143890950D03*
X255829950Y-143390950D03*
X255829950Y-142890950D03*
X255829950Y-142390950D03*
X252753950Y-142390950D03*
X252753950Y-142890950D03*
X252753950Y-143390950D03*
X252753950Y-143890950D03*
X252753950Y-144390950D03*
X252753950Y-144890950D03*
X252753950Y-145390950D03*
X252753950Y-145890950D03*
D12*
X217253950Y-133453450D03*
X217253950Y-135178450D03*
D58*
X119541950Y-147128950D03*
X120041950Y-147128950D03*
X120541950Y-147128950D03*
X121041950Y-147128950D03*
X121541950Y-147128950D03*
X122041950Y-147128950D03*
X122541950Y-147128950D03*
X123041950Y-147128950D03*
X123541950Y-147128950D03*
X124041950Y-147128950D03*
X124541950Y-147128950D03*
X125041950Y-147128950D03*
X125541950Y-147128950D03*
X126041950Y-147128950D03*
X126541950Y-147128950D03*
X127041950Y-147128950D03*
D59*
X129029950Y-145140950D03*
X129029950Y-144640950D03*
X129029950Y-144140950D03*
X129029950Y-143640950D03*
X129029950Y-143140950D03*
X129029950Y-142640950D03*
X129029950Y-142140950D03*
X129029950Y-141640950D03*
X129029950Y-141140950D03*
X129029950Y-140640950D03*
X129029950Y-140140950D03*
X129029950Y-139640950D03*
X129029950Y-139140950D03*
X129029950Y-138640950D03*
X129029950Y-138140950D03*
X129029950Y-137640950D03*
D58*
X127041950Y-135652950D03*
X126541950Y-135652950D03*
X126041950Y-135652950D03*
X125541950Y-135652950D03*
X125041950Y-135652950D03*
X124541950Y-135652950D03*
X124041950Y-135652950D03*
X123541950Y-135652950D03*
X123041950Y-135652950D03*
X122541950Y-135652950D03*
X122041950Y-135652950D03*
X121541950Y-135652950D03*
X121041950Y-135652950D03*
X120541950Y-135652950D03*
X120041950Y-135652950D03*
X119541950Y-135652950D03*
D59*
X117553950Y-137640950D03*
X117553950Y-138140950D03*
X117553950Y-138640950D03*
X117553950Y-139140950D03*
X117553950Y-139640950D03*
X117553950Y-140140950D03*
X117553950Y-140640950D03*
X117553950Y-141140950D03*
X117553950Y-141640950D03*
X117553950Y-142140950D03*
X117553950Y-142640950D03*
X117553950Y-143140950D03*
X117553950Y-143640950D03*
X117553950Y-144140950D03*
X117553950Y-144640950D03*
X117553950Y-145140950D03*
D18*
X259379450Y-164140950D03*
X261204450Y-164140950D03*
D15*
X263838500Y-68799000D03*
X265563500Y-68799000D03*
D53*
X136291950Y-137953450D03*
X136291950Y-134828450D03*
D31*
X124791950Y-122890950D03*
X123291950Y-122890950D03*
D60*
X203241950Y-179890950D03*
X203241950Y-179390950D03*
X203241950Y-178890950D03*
X203241950Y-178390950D03*
X203241950Y-177890950D03*
X198841950Y-177890950D03*
X198841950Y-178390950D03*
X198841950Y-178890950D03*
X198841950Y-179390950D03*
X198841950Y-179890950D03*
D18*
X175129450Y-146390950D03*
X176954450Y-146390950D03*
D11*
X208904450Y-85890950D03*
X207179450Y-85890950D03*
D17*
X324628950Y-174728450D03*
X324628950Y-176553450D03*
D11*
X208904450Y-82890950D03*
X207179450Y-82890950D03*
D17*
X244451000Y-56136500D03*
X244451000Y-57961500D03*
D23*
X301940000Y-118902000D03*
X303210000Y-118902000D03*
X304480000Y-118902000D03*
X305750000Y-118902000D03*
X307020000Y-118902000D03*
X308290000Y-118902000D03*
X309560000Y-118902000D03*
X309560000Y-113478000D03*
X308290000Y-113478000D03*
X307020000Y-113478000D03*
X305750000Y-113478000D03*
X304480000Y-113478000D03*
X303210000Y-113478000D03*
X301940000Y-113478000D03*
D61*
X311428950Y-171140950D03*
X312828950Y-171140950D03*
D18*
X97879450Y-122890950D03*
X99704450Y-122890950D03*
D62*
X335925000Y-156400000D03*
X335925000Y-158940000D03*
X335925000Y-161480000D03*
D18*
X192379450Y-129390950D03*
X194204450Y-129390950D03*
D10*
X208291950Y-90803450D03*
X208291950Y-88978450D03*
D11*
X201154450Y-95140950D03*
X199429450Y-95140950D03*
D13*
X104041950Y-171753450D03*
X104041950Y-170028450D03*
D17*
X270951000Y-50636500D03*
X270951000Y-52461500D03*
D15*
X246929450Y-142390950D03*
X248654450Y-142390950D03*
X258338500Y-71799000D03*
X260063500Y-71799000D03*
X203179450Y-183390950D03*
X204904450Y-183390950D03*
D11*
X208041950Y-124390950D03*
X206316950Y-124390950D03*
X208904450Y-73890950D03*
X207179450Y-73890950D03*
D13*
X259791950Y-138253450D03*
X259791950Y-136528450D03*
D63*
X175541950Y-176890950D03*
X175041950Y-176890950D03*
X174541950Y-176890950D03*
X174041950Y-176890950D03*
D64*
X173291950Y-177640950D03*
X173291950Y-178140950D03*
X173291950Y-178640950D03*
X173291950Y-179140950D03*
D63*
X174041950Y-179890950D03*
X174541950Y-179890950D03*
X175041950Y-179890950D03*
X175541950Y-179890950D03*
D64*
X176291950Y-179140950D03*
X176291950Y-178640950D03*
X176291950Y-178140950D03*
X176291950Y-177640950D03*
D65*
X174791950Y-178390950D03*
D13*
X238291950Y-147478450D03*
X238291950Y-145753450D03*
D10*
X250291950Y-183553450D03*
X250291950Y-181728450D03*
D15*
X181679450Y-174640950D03*
X183404450Y-174640950D03*
D11*
X260112500Y-106500000D03*
X258387500Y-106500000D03*
X200291950Y-124390950D03*
X198566950Y-124390950D03*
D13*
X208541950Y-99503450D03*
X208541950Y-97778450D03*
D26*
X169341950Y-197390950D03*
X166241950Y-197390950D03*
D17*
X177291950Y-171478450D03*
X177291950Y-173303450D03*
X326895000Y-127777500D03*
X326895000Y-129602500D03*
D15*
X246929450Y-137390950D03*
X248654450Y-137390950D03*
X199429450Y-99390950D03*
X201154450Y-99390950D03*
D17*
X326895000Y-107527500D03*
X326895000Y-109352500D03*
D54*
X323678950Y-166790950D03*
X325578950Y-166790950D03*
X324628950Y-164490950D03*
D15*
X181699310Y-170121090D03*
X183424310Y-170121090D03*
D11*
X208154450Y-128390950D03*
X206429450Y-128390950D03*
D18*
X238087500Y-50500000D03*
X239912500Y-50500000D03*
D27*
X334730000Y-177750000D03*
X336000000Y-177750000D03*
X337270000Y-177750000D03*
X338540000Y-177750000D03*
X338540000Y-172326000D03*
X337270000Y-172326000D03*
X336000000Y-172326000D03*
X334730000Y-172326000D03*
D39*
X224003950Y-147515950D03*
X224003950Y-146565950D03*
X224003950Y-145615950D03*
X221503950Y-145615950D03*
X221503950Y-147515950D03*
D13*
X250500000Y-79112500D03*
X250500000Y-77387500D03*
D18*
X239629450Y-172140950D03*
X241454450Y-172140950D03*
D17*
X99291950Y-85478450D03*
X99291950Y-87303450D03*
D11*
X255154450Y-137390950D03*
X253429450Y-137390950D03*
D13*
X172541950Y-173253450D03*
X172541950Y-171528450D03*
D61*
X311428950Y-186390950D03*
X312828950Y-186390950D03*
D13*
X166291950Y-203003450D03*
X166291950Y-201278450D03*
D15*
X206679450Y-108640950D03*
X208404450Y-108640950D03*
D66*
X110831950Y-59190950D03*
X112751950Y-59190950D03*
X111791950Y-57090950D03*
D60*
X203241950Y-170890950D03*
X203241950Y-170390950D03*
X203241950Y-169890950D03*
X203241950Y-169390950D03*
X203241950Y-168890950D03*
X198841950Y-168890950D03*
X198841950Y-169390950D03*
X198841950Y-169890950D03*
X198841950Y-170390950D03*
X198841950Y-170890950D03*
D23*
X197616810Y-165528090D03*
X198886810Y-165528090D03*
X200156810Y-165528090D03*
X201426810Y-165528090D03*
X202696810Y-165528090D03*
X203966810Y-165528090D03*
X205236810Y-165528090D03*
X206506810Y-165528090D03*
X206506810Y-160104090D03*
X205236810Y-160104090D03*
X203966810Y-160104090D03*
X202696810Y-160104090D03*
X201426810Y-160104090D03*
X200156810Y-160104090D03*
X198886810Y-160104090D03*
X197616810Y-160104090D03*
D18*
X207129450Y-79890950D03*
X208954450Y-79890950D03*
D13*
X171041950Y-143753450D03*
X171041950Y-142028450D03*
D15*
X304887500Y-109940000D03*
X306612500Y-109940000D03*
D12*
X326895000Y-112577500D03*
X326895000Y-114302500D03*
D38*
X212042500Y-84155000D03*
X214042500Y-84155000D03*
D11*
X229404450Y-143140950D03*
X227679450Y-143140950D03*
D18*
X182129450Y-141890950D03*
X183954450Y-141890950D03*
D50*
X118991950Y-154190950D03*
X118991950Y-155590950D03*
X120091950Y-155590950D03*
X120091950Y-154190950D03*
D44*
X186991950Y-191140950D03*
X190091950Y-191140950D03*
D41*
X220231950Y-113440950D03*
X220231950Y-110340950D03*
D62*
X335862500Y-136150000D03*
X335862500Y-138690000D03*
X335862500Y-141230000D03*
D10*
X191541950Y-90803450D03*
X191541950Y-88978450D03*
D28*
X228655000Y-95405000D03*
X228655000Y-97405000D03*
D40*
X237829950Y-156755950D03*
X237829950Y-158025950D03*
X237829950Y-159295950D03*
X237829950Y-160565950D03*
X243253950Y-160565950D03*
X243253950Y-159295950D03*
X243253950Y-158025950D03*
X243253950Y-156755950D03*
D23*
X307190000Y-67712000D03*
X308460000Y-67712000D03*
X309730000Y-67712000D03*
X311000000Y-67712000D03*
X312270000Y-67712000D03*
X313540000Y-67712000D03*
X314810000Y-67712000D03*
X314810000Y-62288000D03*
X313540000Y-62288000D03*
X312270000Y-62288000D03*
X311000000Y-62288000D03*
X309730000Y-62288000D03*
X308460000Y-62288000D03*
X307190000Y-62288000D03*
D31*
X224791950Y-165640950D03*
X226291950Y-165640950D03*
D12*
X222503950Y-133453450D03*
X222503950Y-135178450D03*
D11*
X210904450Y-111890950D03*
X209179450Y-111890950D03*
D39*
X106291950Y-131440950D03*
X106291950Y-132390950D03*
X106291950Y-133340950D03*
X108791950Y-133340950D03*
X108791950Y-132390950D03*
X108791950Y-131440950D03*
D31*
X169061810Y-151621090D03*
X170561810Y-151621090D03*
D10*
X182791950Y-204603450D03*
X182791950Y-202778450D03*
D18*
X288129450Y-193303450D03*
X289954450Y-193303450D03*
X239629450Y-186640950D03*
X241454450Y-186640950D03*
D17*
X209179450Y-118978450D03*
X209179450Y-120803450D03*
D52*
X253753950Y-159140950D03*
X253753950Y-159640950D03*
X253753950Y-160140950D03*
X253753950Y-160640950D03*
X253753950Y-161140950D03*
X253753950Y-161640950D03*
X253753950Y-162140950D03*
X253753950Y-162640950D03*
X256829950Y-162640950D03*
X256829950Y-162140950D03*
X256829950Y-161640950D03*
X256829950Y-161140950D03*
X256829950Y-160640950D03*
X256829950Y-160140950D03*
X256829950Y-159640950D03*
X256829950Y-159140950D03*
D57*
X261741950Y-130640950D03*
X260791950Y-130640950D03*
X259841950Y-130640950D03*
X259841950Y-133140950D03*
X261741950Y-133140950D03*
D26*
X279300000Y-124000000D03*
X276200000Y-124000000D03*
D12*
X329675000Y-159827500D03*
X329675000Y-161552500D03*
D18*
X207629450Y-169140950D03*
X209454450Y-169140950D03*
D51*
X258204450Y-197970950D03*
X258204450Y-199240950D03*
X258204450Y-200510950D03*
X258204450Y-201780950D03*
X258204450Y-203050950D03*
X258204450Y-204320950D03*
X258204450Y-205590950D03*
X258204450Y-206860950D03*
X263154450Y-206860950D03*
X263154450Y-205590950D03*
X263154450Y-204320950D03*
X263154450Y-203050950D03*
X263154450Y-201780950D03*
X263154450Y-200510950D03*
X263154450Y-199240950D03*
X263154450Y-197970950D03*
D11*
X193041950Y-120140950D03*
X191316950Y-120140950D03*
D15*
X238743200Y-207367200D03*
X240468200Y-207367200D03*
D11*
X311112500Y-109940000D03*
X309387500Y-109940000D03*
D67*
X109926950Y-97100950D03*
D68*
X120201950Y-99640950D03*
D67*
X109926950Y-102180950D03*
X141464450Y-97350950D03*
D68*
X151739450Y-99890950D03*
D67*
X141464450Y-102430950D03*
D45*
X133391950Y-61490950D03*
X135091950Y-61490950D03*
X136791950Y-61490950D03*
X138491950Y-61490950D03*
X140191950Y-61490950D03*
D46*
X136791950Y-51140950D03*
D17*
X161791950Y-141978450D03*
X161791950Y-143803450D03*
D12*
X155541950Y-164028450D03*
X155541950Y-165753450D03*
D26*
X304178950Y-181140950D03*
X301078950Y-181140950D03*
D15*
X229929450Y-170140950D03*
X231654450Y-170140950D03*
D18*
X269587500Y-117750000D03*
X271412500Y-117750000D03*
D11*
X229404450Y-147390950D03*
X227679450Y-147390950D03*
D17*
X201791950Y-204478450D03*
X201791950Y-206303450D03*
X265451000Y-50636500D03*
X265451000Y-52461500D03*
D10*
X107291950Y-144053450D03*
X107291950Y-142228450D03*
X185041950Y-186053450D03*
X185041950Y-184228450D03*
D13*
X293041950Y-166753450D03*
X293041950Y-165028450D03*
D20*
X214268200Y-196367200D03*
X212443200Y-196367200D03*
D10*
X166291950Y-208053450D03*
X166291950Y-206228450D03*
D31*
X169061810Y-159371090D03*
X170561810Y-159371090D03*
D15*
X116679450Y-150390950D03*
X118404450Y-150390950D03*
D11*
X229792500Y-89086250D03*
X228067500Y-89086250D03*
D32*
X319828950Y-171140950D03*
X318428950Y-171140950D03*
D13*
X242791950Y-147503450D03*
X242791950Y-145778450D03*
D11*
X125384450Y-153390950D03*
X123659450Y-153390950D03*
D15*
X246929450Y-130390950D03*
X248654450Y-130390950D03*
X283429450Y-191803450D03*
X285154450Y-191803450D03*
D18*
X311216450Y-191140950D03*
X313041450Y-191140950D03*
D14*
X182523810Y-165816090D03*
X182523810Y-164546090D03*
X182523810Y-163276090D03*
X182523810Y-162006090D03*
X182523810Y-160736090D03*
X182523810Y-159466090D03*
X182523810Y-158196090D03*
X182523810Y-156926090D03*
X177099810Y-156926090D03*
X177099810Y-158196090D03*
X177099810Y-159466090D03*
X177099810Y-160736090D03*
X177099810Y-162006090D03*
X177099810Y-163276090D03*
X177099810Y-164546090D03*
X177099810Y-165816090D03*
D13*
X155541950Y-179253450D03*
X155541950Y-177528450D03*
D15*
X244137500Y-119000000D03*
X245862500Y-119000000D03*
D13*
X259000000Y-79112500D03*
X259000000Y-77387500D03*
D26*
X307928950Y-171140950D03*
X304828950Y-171140950D03*
D20*
X217204450Y-178890950D03*
X215379450Y-178890950D03*
D15*
X212067500Y-88336250D03*
X213792500Y-88336250D03*
D18*
X318216450Y-191140950D03*
X320041450Y-191140950D03*
D11*
X210904450Y-115390950D03*
X209179450Y-115390950D03*
D13*
X204541950Y-99503450D03*
X204541950Y-97778450D03*
D12*
X147041950Y-208028450D03*
X147041950Y-209753450D03*
D26*
X304178950Y-176140950D03*
X301078950Y-176140950D03*
D11*
X198654450Y-64640950D03*
X196929450Y-64640950D03*
D15*
X248137500Y-106500000D03*
X249862500Y-106500000D03*
D20*
X258704450Y-155390950D03*
X256879450Y-155390950D03*
D15*
X248929450Y-162140950D03*
X250654450Y-162140950D03*
D12*
X191179450Y-124278450D03*
X191179450Y-126003450D03*
D18*
X156629450Y-161140950D03*
X158454450Y-161140950D03*
D27*
X287136950Y-203015450D03*
X288406950Y-203015450D03*
X289676950Y-203015450D03*
X290946950Y-203015450D03*
X290946950Y-197591450D03*
X289676950Y-197591450D03*
X288406950Y-197591450D03*
X287136950Y-197591450D03*
D10*
X328878950Y-182553450D03*
X328878950Y-180728450D03*
D12*
X206291950Y-131778450D03*
X206291950Y-133503450D03*
X191291950Y-132778450D03*
X191291950Y-134503450D03*
D11*
X112654450Y-63140950D03*
X110929450Y-63140950D03*
D69*
X334645000Y-104440000D03*
X334645000Y-112440000D03*
D28*
X252679450Y-199165950D03*
X252679450Y-201165950D03*
D11*
X232968200Y-195030200D03*
X231243200Y-195030200D03*
D17*
X329675000Y-154777500D03*
X329675000Y-156602500D03*
D15*
X239679450Y-152910950D03*
X241404450Y-152910950D03*
D21*
X270500000Y-101950000D03*
X270500000Y-105050000D03*
D13*
X326895000Y-119802500D03*
X326895000Y-118077500D03*
D44*
X187241950Y-196640950D03*
X190341950Y-196640950D03*
D39*
X196041950Y-141665950D03*
X196041950Y-142615950D03*
X196041950Y-143565950D03*
X198541950Y-143565950D03*
X198541950Y-141665950D03*
D18*
X101129450Y-134140950D03*
X102954450Y-134140950D03*
D13*
X301300000Y-63925000D03*
X301300000Y-62200000D03*
D70*
X114041950Y-145828450D03*
X114041950Y-148953450D03*
D15*
X191679450Y-95140950D03*
X193404450Y-95140950D03*
D20*
X265564500Y-104348000D03*
X263739500Y-104348000D03*
D10*
X203429450Y-126053450D03*
X203429450Y-124228450D03*
D28*
X319128950Y-180640950D03*
X319128950Y-182640950D03*
D17*
X323250000Y-109027500D03*
X323250000Y-110852500D03*
D44*
X314700000Y-57500000D03*
X317800000Y-57500000D03*
D23*
X280236950Y-155678950D03*
X278966950Y-155678950D03*
X277696950Y-155678950D03*
X276426950Y-155678950D03*
X275156950Y-155678950D03*
X273886950Y-155678950D03*
X272616950Y-155678950D03*
X271346950Y-155678950D03*
X271346950Y-161102950D03*
X272616950Y-161102950D03*
X273886950Y-161102950D03*
X275156950Y-161102950D03*
X276426950Y-161102950D03*
X277696950Y-161102950D03*
X278966950Y-161102950D03*
X280236950Y-161102950D03*
D10*
X320000000Y-110852500D03*
X320000000Y-109027500D03*
D40*
X161753950Y-207045950D03*
X161753950Y-205775950D03*
X161753950Y-204505950D03*
X161753950Y-203235950D03*
X156329950Y-203235950D03*
X156329950Y-204505950D03*
X156329950Y-205775950D03*
X156329950Y-207045950D03*
D18*
X238087500Y-55000000D03*
X239912500Y-55000000D03*
D12*
X249291950Y-153528450D03*
X249291950Y-155253450D03*
D18*
X205879450Y-204390950D03*
X207704450Y-204390950D03*
D11*
X252264500Y-82848000D03*
X250539500Y-82848000D03*
D12*
X121291950Y-165528450D03*
X121291950Y-167253450D03*
D15*
X123429450Y-163140950D03*
X125154450Y-163140950D03*
D51*
X218430000Y-89095000D03*
X218430000Y-90365000D03*
X218430000Y-91635000D03*
X218430000Y-92905000D03*
X218430000Y-94175000D03*
X218430000Y-95445000D03*
X218430000Y-96715000D03*
X223380000Y-96715000D03*
X223380000Y-95445000D03*
X223380000Y-94175000D03*
X223380000Y-92905000D03*
X223380000Y-91635000D03*
X223380000Y-90365000D03*
X223380000Y-89095000D03*
D20*
X197204450Y-90890950D03*
X195379450Y-90890950D03*
D17*
X119791950Y-125978450D03*
X119791950Y-127803450D03*
D13*
X240250000Y-106612500D03*
X240250000Y-104887500D03*
D11*
X249764500Y-101348000D03*
X248039500Y-101348000D03*
D18*
X202379450Y-90890950D03*
X204204450Y-90890950D03*
D10*
X118291950Y-119053450D03*
X118291950Y-117228450D03*
D15*
X229929450Y-174640950D03*
X231654450Y-174640950D03*
D10*
X283291950Y-197590950D03*
X283291950Y-195765950D03*
X265451000Y-60711500D03*
X265451000Y-58886500D03*
D17*
X294291950Y-192390950D03*
X294291950Y-194215950D03*
D15*
X107929450Y-163140950D03*
X109654450Y-163140950D03*
D71*
X108896950Y-50640950D03*
X111686950Y-50640950D03*
D13*
X201791950Y-148503450D03*
X201791950Y-146778450D03*
M02*
