M48
; DRILL file {KiCad 9.0.3-1.fc42app2} date 2025-10-05T13:47:22+0300
; FORMAT={-:-/ absolute / metric / decimal}
; #@! TF.CreationDate,2025-10-05T13:47:22+03:00
; #@! TF.GenerationSoftware,Kicad,Pcbnew,9.0.3-1.fc42app2
; #@! TF.FileFunction,Plated,1,4,PTH
FMAT,2
METRIC
; #@! TA.AperFunction,Plated,PTH,ViaDrill
T1C0.500
; #@! TA.AperFunction,Plated,PTH,ComponentDrill
T2C0.600
; #@! TA.AperFunction,Plated,PTH,ComponentDrill
T3C0.740
; #@! TA.AperFunction,Plated,PTH,ComponentDrill
T4C0.800
; #@! TA.AperFunction,Plated,PTH,ComponentDrill
T5C0.850
; #@! TA.AperFunction,Plated,PTH,ViaDrill
T6C1.000
; #@! TA.AperFunction,Plated,PTH,ComponentDrill
T7C1.000
; #@! TA.AperFunction,Plated,PTH,ComponentDrill
T8C1.020
; #@! TA.AperFunction,Plated,PTH,ComponentDrill
T9C1.200
; #@! TA.AperFunction,Plated,PTH,ComponentDrill
T10C1.250
; #@! TA.AperFunction,Plated,PTH,ComponentDrill
T11C1.300
; #@! TA.AperFunction,Plated,PTH,ComponentDrill
T12C1.500
; #@! TA.AperFunction,Plated,PTH,ComponentDrill
T13C1.700
; #@! TA.AperFunction,Plated,PTH,ComponentDrill
T14C2.000
; #@! TA.AperFunction,Plated,PTH,ComponentDrill
T15C2.970
; #@! TA.AperFunction,Plated,PTH,ComponentDrill
T16C3.160
; #@! TA.AperFunction,Plated,PTH,ComponentDrill
T17C3.280
; #@! TA.AperFunction,Plated,PTH,ComponentDrill
T18C3.320
; #@! TA.AperFunction,Plated,PTH,ComponentDrill
T19C3.640
; #@! TA.AperFunction,Plated,PTH,ViaDrill
T20C4.500
%
G90
G05
T1
X94.567Y-199.141
X97.075Y-165.424
X97.25Y-164.0
X98.6Y-147.5
X99.5Y-110.5
X102.042Y-162.891
X102.042Y-165.391
X103.5Y-130.25
X103.5Y-134.75
X103.75Y-169.5
X104.25Y-153.758
X104.292Y-184.366
X104.292Y-190.616
X105.5Y-181.141
X108.25Y-101.641
X110.25Y-162.5
X113.492Y-167.191
X113.5Y-169.143
X115.75Y-136.174
X115.75Y-140.391
X116.0Y-172.25
X117.75Y-162.75
X118.299Y-146.271
X119.075Y-134.674
X119.5Y-142.75
X119.5Y-144.5
X119.716Y-141.216
X120.1Y-133.1
X120.5Y-153.75
X121.25Y-168.0
X121.25Y-173.503
X121.3Y-137.4
X121.8Y-145.6
X122.225Y-140.075
X122.6Y-142.9
X123.6Y-138.5
X124.2Y-139.7
X124.95Y-144.55
X125.0Y-137.887
X125.3Y-122.3
X125.73Y-145.626
X125.75Y-138.891
X125.75Y-162.75
X126.7Y-137.299
X127.1Y-143.7
X128.0Y-136.75
X128.75Y-167.141
X129.342Y-169.092
X129.9Y-137.2
X131.5Y-172.0
X131.6Y-140.4
X132.292Y-141.641
X132.916Y-143.516
X133.25Y-140.0
X133.25Y-162.75
X133.969Y-165.445
X134.5Y-110.641
X137.773Y-170.773
X150.725Y-176.975
X151.0Y-179.8
X155.1Y-166.4
X155.888Y-207.488
X158.5Y-161.0
X162.25Y-202.75
X170.562Y-155.621
X170.562Y-159.371
X170.562Y-163.121
X171.1Y-151.9
X171.1Y-166.5
X172.542Y-171.528
X174.4Y-141.9
X174.792Y-178.391
X175.1Y-175.4
X177.292Y-171.478
X178.379Y-151.621
X181.3Y-144.3
X181.5Y-174.2
X182.792Y-202.141
X183.312Y-160.736
X183.312Y-162.006
X183.312Y-163.276
X183.625Y-170.625
X184.095Y-158.405
X184.2Y-159.75
X184.562Y-151.621
X185.042Y-184.228
X187.449Y-166.3
X187.8Y-141.3
X188.25Y-162.0
X188.308Y-159.408
X188.55Y-157.95
X188.792Y-205.891
X189.2Y-164.3
X189.5Y-161.4
X190.2Y-166.1
X191.025Y-137.775
X191.3Y-64.1
X191.3Y-73.841
X191.35Y-68.45
X191.416Y-61.016
X191.562Y-158.371
X191.8Y-159.8
X192.25Y-165.816
X192.4Y-58.7
X192.4Y-151.6
X192.948Y-82.348
X193.954Y-141.154
X194.2Y-64.641
X194.2Y-73.891
X194.25Y-108.7
X195.0Y-138.041
X195.042Y-83.2
X195.5Y-141.2
X196.2Y-97.0
X196.5Y-173.9
X196.8Y-107.4
X197.019Y-69.481
X198.1Y-110.4
X198.429Y-124.529
X198.75Y-174.5
X198.75Y-183.5
X198.925Y-82.275
X199.0Y-78.3
X199.1Y-116.2
X199.1Y-120.5
X199.2Y-65.3
X199.314Y-108.7
X199.4Y-59.6
X199.491Y-90.691
X199.6Y-151.6
X200.167Y-93.516
X200.292Y-114.141
X200.5Y-102.75
X200.6Y-107.5
X201.4Y-159.4
X201.542Y-111.6
X201.542Y-133.2
X201.618Y-114.082
X202.697Y-160.104
X202.725Y-173.975
X203.25Y-113.999
X203.5Y-63.0
X203.5Y-126.6
X203.6Y-66.0
X203.8Y-75.6
X203.979Y-159.379
X204.292Y-85.891
X204.8Y-59.5
X205.045Y-90.945
X205.237Y-160.104
X205.487Y-115.166
X205.542Y-94.891
X206.25Y-151.655
X206.75Y-82.5
X207.5Y-192.75
X208.25Y-204.0
X209.7Y-80.0
X210.7Y-142.616
X211.0Y-146.491
X211.004Y-143.951
X211.9Y-196.0
X212.0Y-151.25
X212.5Y-141.411
X212.542Y-140.141
X212.56Y-145.239
X214.042Y-183.891
X214.6Y-146.7
X214.792Y-178.891
X215.0Y-168.7
X215.7Y-94.5
X216.1Y-101.9
X216.1Y-160.681
X217.308Y-94.408
X217.726Y-83.526
X217.792Y-164.491
X218.9Y-163.4
X219.039Y-202.593
X219.225Y-105.525
X220.1Y-140.6
X221.042Y-207.062
X222.0Y-183.891
X222.856Y-205.792
X224.0Y-142.5
X224.083Y-94.383
X224.25Y-88.75
X224.3Y-79.25
X224.7Y-164.8
X224.75Y-153.75
X224.8Y-161.0
X224.9Y-157.4
X225.5Y-187.5
X226.25Y-153.75
X226.416Y-157.016
X226.441Y-161.241
X226.542Y-183.891
X226.566Y-165.366
X227.051Y-197.951
X227.63Y-147.406
X227.792Y-205.891
X227.8Y-85.1
X230.4Y-145.8
X230.716Y-186.716
X230.792Y-182.7
X231.9Y-145.8
X232.057Y-175.043
X232.9Y-142.5
X233.0Y-147.0
X233.1Y-139.6
X233.3Y-141.3
X234.5Y-146.7
X234.742Y-151.471
X235.042Y-183.391
X235.1Y-138.2
X235.1Y-140.2
X235.725Y-145.075
X235.792Y-160.7
X236.3Y-151.7
X236.809Y-164.134
X237.4Y-139.4
X237.8Y-138.2
X238.275Y-160.975
X238.572Y-143.072
X238.7Y-133.6
X238.8Y-135.75
X239.451Y-58.049
X239.451Y-60.799
X239.5Y-50.0
X239.6Y-109.2
X239.652Y-87.598
X239.652Y-90.098
X240.2Y-127.7
X240.3Y-130.5
X240.821Y-140.679
X241.4Y-124.3
X241.425Y-187.274
X241.792Y-172.641
X241.8Y-126.5
X241.8Y-164.9
X242.2Y-138.6
X243.2Y-179.391
X243.254Y-156.5
X243.292Y-169.0
X243.95Y-50.05
X244.425Y-78.175
X244.55Y-115.95
X244.792Y-172.641
X244.792Y-187.141
X244.8Y-85.0
X244.9Y-55.5
X244.941Y-162.241
X245.216Y-170.024
X245.292Y-152.1
X245.55Y-140.649
X246.3Y-130.0
X246.514Y-67.123
X246.792Y-152.141
X246.8Y-162.3
X247.343Y-88.627
X247.402Y-93.598
X247.426Y-64.274
X247.5Y-59.1
X247.5Y-90.0
X247.509Y-60.509
X248.042Y-96.598
X248.25Y-195.7
X248.654Y-142.391
X248.9Y-133.891
X249.8Y-143.4
X250.1Y-145.8
X250.4Y-132.6
X250.492Y-140.6
X250.8Y-144.6
X250.9Y-142.8
X251.1Y-130.2
X251.2Y-131.6
X251.2Y-161.7
X252.7Y-129.969
X252.916Y-181.516
X253.042Y-135.141
X253.5Y-105.4
X253.85Y-137.85
X254.5Y-143.0
X254.5Y-203.2
X254.5Y-210.891
X254.8Y-129.391
X255.19Y-146.816
X255.75Y-107.9
X256.542Y-209.141
X256.7Y-146.9
X256.8Y-155.391
X256.819Y-158.781
X257.0Y-92.25
X257.042Y-168.753
X257.1Y-63.049
X257.275Y-133.624
X257.275Y-163.624
X257.542Y-206.891
X258.042Y-142.391
X258.4Y-162.641
X258.5Y-144.165
X258.6Y-161.4
X258.65Y-145.45
X258.7Y-146.9
X259.1Y-151.3
X259.179Y-205.591
X259.3Y-131.5
X260.4Y-152.4
X260.6Y-72.3
X260.7Y-106.9
X260.8Y-128.5
X260.8Y-129.7
X261.792Y-143.3
X262.042Y-199.391
X262.292Y-205.641
X263.152Y-103.848
X263.201Y-73.799
X263.292Y-182.4
X263.292Y-186.7
X263.542Y-142.6
X263.8Y-138.7
X264.3Y-198.0
X264.902Y-87.598
X264.976Y-58.313
X265.0Y-50.3
X266.25Y-98.2
X266.375Y-68.375
X267.0Y-70.5
X267.9Y-151.2
X269.75Y-105.5
X270.525Y-50.275
X271.5Y-152.7
X272.0Y-143.5
X272.6Y-156.3
X273.789Y-157.989
X275.792Y-147.008
X276.4Y-154.0
X277.062Y-147.6
X277.741Y-156.441
X278.4Y-161.3
X278.792Y-136.5
X278.929Y-154.929
X279.596Y-144.896
X280.9Y-154.9
X283.195Y-164.544
X285.4Y-134.3
X285.9Y-145.1
X286.042Y-207.303
X286.792Y-183.141
X286.991Y-187.691
X287.0Y-196.6
X287.2Y-136.7
X287.641Y-145.041
X288.1Y-183.1
X289.0Y-150.6
X291.042Y-211.216
X291.168Y-202.332
X291.8Y-156.871
X291.985Y-153.926
X292.769Y-140.163
X294.292Y-192.391
X297.725Y-58.475
X297.75Y-55.0
X299.5Y-62.2
X299.5Y-68.0
X300.525Y-80.975
X301.2Y-121.0
X304.675Y-110.575
X305.801Y-60.899
X306.792Y-81.0
X307.25Y-60.75
X307.991Y-178.691
X308.7Y-109.4
X309.7Y-60.3
X311.113Y-109.5
X311.3Y-139.3
X311.3Y-141.2
X313.19Y-174.81
X313.225Y-182.475
X313.475Y-154.19
X313.5Y-60.3
X313.8Y-52.0
X314.566Y-152.723
X314.7Y-157.4
X314.726Y-146.705
X314.775Y-178.624
X315.246Y-155.934
X315.265Y-144.935
X315.4Y-150.9
X315.8Y-143.5
X317.229Y-138.021
X321.07Y-155.935
X321.521Y-145.69
X323.0Y-146.25
X323.025Y-153.775
X333.5Y-145.883
X336.004Y-178.895
X338.0Y-152.1
T3
X106.042Y-111.978
X106.042Y-114.518
X106.042Y-117.058
X125.292Y-111.978
X125.292Y-114.518
X125.292Y-117.058
X218.316Y-191.617
X220.856Y-191.617
X223.396Y-191.617
X232.106Y-204.7
X232.106Y-207.24
X232.106Y-209.78
X239.606Y-196.704
X239.606Y-199.244
X239.606Y-201.784
X254.512Y-191.416
X256.792Y-175.974
X256.792Y-178.514
X256.792Y-181.054
X257.052Y-191.416
X259.592Y-191.416
X265.042Y-175.974
X265.042Y-178.514
X265.042Y-181.054
X268.429Y-204.749
X268.429Y-207.289
X268.429Y-209.829
X273.292Y-176.061
X273.292Y-178.601
X273.292Y-181.141
X275.929Y-196.749
X275.929Y-199.289
X275.929Y-201.829
X281.542Y-176.061
X281.542Y-178.601
X281.542Y-181.141
X284.087Y-64.75
X286.627Y-64.75
X289.167Y-64.75
X290.879Y-174.891
X290.879Y-182.391
X293.419Y-174.891
X293.419Y-182.391
X295.959Y-174.891
X295.959Y-182.391
X316.337Y-102.69
X316.337Y-129.19
X318.877Y-102.69
X318.877Y-129.19
X321.417Y-102.69
X321.417Y-129.19
T4
X93.442Y-182.891
X93.442Y-184.891
X93.442Y-186.891
X93.442Y-188.891
X93.442Y-190.891
X93.442Y-192.891
X95.942Y-182.891
X95.942Y-184.891
X95.942Y-186.891
X95.942Y-188.891
X95.942Y-190.891
X95.942Y-192.891
X170.042Y-190.891
X172.042Y-190.891
X174.042Y-190.891
X197.042Y-50.791
X197.042Y-53.291
X199.042Y-50.791
X199.042Y-53.291
X201.042Y-50.791
X201.042Y-53.291
X203.042Y-50.791
X203.042Y-53.291
X205.042Y-50.791
X205.042Y-53.291
X207.042Y-50.791
X207.042Y-53.291
T5
X95.042Y-98.141
X98.542Y-98.141
X120.792Y-81.641
X120.792Y-86.641
X122.292Y-50.641
X122.292Y-55.641
X132.329Y-95.141
X132.329Y-98.641
X150.792Y-50.641
X150.792Y-55.641
X163.292Y-55.391
X163.292Y-58.891
X164.292Y-78.891
X164.292Y-82.391
T6
X331.645Y-104.44
X331.645Y-112.44
X331.645Y-119.94
X331.645Y-127.94
X333.863Y-136.14
X333.863Y-138.69
X333.863Y-141.24
X333.925Y-156.39
X333.925Y-158.94
X333.925Y-161.49
T7
X93.292Y-204.141
X94.042Y-122.641
X94.292Y-140.391
X96.792Y-72.141
X96.792Y-82.141
X96.792Y-91.141
X99.042Y-204.141
X104.542Y-195.391
X104.542Y-204.141
X112.792Y-122.641
X135.542Y-155.891
X136.042Y-120.641
X136.042Y-126.891
X145.792Y-141.891
X145.792Y-156.391
X148.292Y-156.391
X149.042Y-203.141
X150.792Y-141.891
X150.792Y-156.391
X160.542Y-155.891
X162.542Y-165.141
X162.542Y-169.641
X162.542Y-176.391
X162.542Y-180.891
X163.542Y-97.141
X163.542Y-103.391
X165.792Y-146.391
X167.292Y-171.641
X167.292Y-176.141
X167.292Y-180.641
X167.292Y-185.141
X172.542Y-185.141
X175.792Y-204.641
X177.042Y-123.391
X177.042Y-137.891
X177.542Y-185.141
X179.542Y-137.891
X182.042Y-123.391
X182.042Y-137.891
X190.292Y-50.391
X190.292Y-54.891
X192.042Y-146.391
X193.292Y-169.891
X193.292Y-174.391
X193.292Y-178.891
X193.292Y-183.391
X198.0Y-189.0
X202.042Y-138.141
X202.042Y-142.641
X206.542Y-138.116
X206.542Y-142.616
X208.542Y-174.141
X208.542Y-183.391
X213.155Y-101.905
X213.292Y-107.641
X213.542Y-50.391
X213.542Y-54.891
X213.542Y-59.391
X213.542Y-63.641
X213.542Y-68.141
X213.542Y-72.641
X215.042Y-113.141
X219.792Y-75.641
X225.43Y-75.586
X228.655Y-102.155
X235.25Y-75.75
X235.25Y-101.5
X249.542Y-158.503
X263.25Y-65.25
X263.25Y-95.0
X265.042Y-155.503
X265.042Y-160.003
X265.042Y-164.503
X265.042Y-169.003
X270.5Y-98.75
X271.0Y-74.25
X284.792Y-124.141
X286.75Y-52.0
X286.75Y-57.75
X291.292Y-124.141
X297.5Y-113.44
X297.5Y-118.94
X299.792Y-109.391
X302.5Y-127.69
X307.0Y-141.94
X307.0Y-146.44
X307.0Y-150.94
X307.0Y-155.69
X309.0Y-102.69
X309.0Y-127.69
X323.5Y-149.44
X327.0Y-100.19
X327.0Y-132.69
X327.5Y-149.44
X336.73Y-168.288
T8
X150.792Y-111.391
X153.332Y-111.391
X155.872Y-111.391
X158.412Y-111.391
X215.792Y-118.101
X215.792Y-120.641
X215.792Y-125.641
X215.792Y-128.181
X218.332Y-118.101
X218.332Y-120.641
X218.332Y-125.641
X218.332Y-128.181
X220.872Y-118.101
X220.872Y-120.641
X220.872Y-125.641
X220.872Y-128.181
X223.412Y-118.101
X223.412Y-120.641
X223.412Y-125.641
X223.412Y-128.181
X229.042Y-118.141
X229.042Y-120.681
X229.042Y-125.621
X229.042Y-128.161
X231.582Y-118.141
X231.582Y-120.681
X231.582Y-125.621
X231.582Y-128.161
X234.122Y-118.141
X234.122Y-120.681
X234.122Y-125.621
X234.122Y-128.161
X236.662Y-118.141
X236.662Y-120.681
X236.662Y-125.621
X236.662Y-128.161
T9
X114.792Y-188.941
X114.792Y-207.441
X117.292Y-188.941
X117.292Y-207.441
X119.792Y-188.941
X119.792Y-207.441
X134.292Y-188.941
X134.292Y-207.441
X136.792Y-188.941
X136.792Y-207.441
X139.292Y-188.941
X139.292Y-207.441
X152.542Y-197.191
X155.042Y-197.191
X157.542Y-197.191
X177.292Y-61.441
X177.292Y-79.941
X177.292Y-99.191
X177.292Y-117.941
X179.792Y-61.441
X179.792Y-79.941
X179.792Y-99.191
X179.792Y-117.941
X182.292Y-61.441
X182.292Y-79.941
X182.292Y-99.191
X182.292Y-117.941
X252.25Y-123.3
X254.75Y-123.3
X257.25Y-123.3
X282.675Y-92.5
X282.825Y-74.75
X282.825Y-78.25
X288.075Y-75.55
X336.075Y-77.45
X341.175Y-89.0
X341.175Y-92.5
X341.325Y-74.75
X341.325Y-78.25
T10
X91.892Y-194.491
X97.492Y-181.291
X195.442Y-49.241
X208.642Y-54.841
T11
X221.5Y-67.975
X223.5Y-67.975
X225.5Y-67.975
X227.5Y-67.975
X229.5Y-67.975
X231.5Y-67.975
X278.75Y-117.725
X280.75Y-117.725
X282.75Y-117.725
X284.75Y-117.725
X286.75Y-117.725
X288.75Y-117.725
T12
X116.892Y-66.641
X116.892Y-73.291
X135.642Y-66.641
X135.642Y-73.291
X167.942Y-190.891
X176.142Y-190.891
X327.01Y-51.965
X327.01Y-63.395
X339.71Y-51.965
X339.71Y-63.395
T13
X286.825Y-86.55
X286.975Y-80.7
X288.025Y-94.95
X288.175Y-72.3
X335.825Y-94.95
X335.975Y-72.3
X337.025Y-86.55
X337.175Y-80.7
T14
X336.51Y-51.965
X336.51Y-63.395
T15
X220.7Y-56.975
X232.3Y-56.975
X277.95Y-106.725
X289.55Y-106.725
T16
X97.292Y-60.991
X100.292Y-65.691
T17
X142.692Y-148.891
X153.892Y-148.891
X173.942Y-130.391
X185.142Y-130.391
T18
X112.892Y-181.941
X112.892Y-200.441
X121.692Y-181.941
X121.692Y-200.441
X132.392Y-181.941
X132.392Y-200.441
X141.192Y-181.941
X141.192Y-200.441
X150.642Y-190.191
X159.442Y-190.191
X175.392Y-54.441
X175.392Y-72.941
X175.392Y-92.191
X175.392Y-110.941
X184.192Y-54.441
X184.192Y-72.941
X184.192Y-92.191
X184.192Y-110.941
X250.35Y-116.3
X259.15Y-116.3
T19
X103.292Y-60.991
T20
X94.792Y-209.891
X96.542Y-50.491
X278.542Y-50.391
X338.292Y-209.891
T2
X92.504Y-128.071G85X91.704Y-128.071
G05
X92.504Y-136.711G85X91.704Y-136.711
G05
X96.834Y-128.071G85X95.734Y-128.071
G05
X96.834Y-136.711G85X95.734Y-136.711
G05
T12
X196.042Y-200.691G85X195.042Y-200.691
G05
X196.042Y-205.391G85X195.042Y-205.391
G05
X196.042Y-210.091G85X195.042Y-210.091
G05
X272.042Y-131.391G85X272.042Y-136.891
G05
X283.042Y-131.391G85X283.042Y-136.891
G05
X294.042Y-131.391G85X294.042Y-136.891
G05
M30
