G04 #@! TF.GenerationSoftware,KiCad,Pcbnew,9.0.3-1.fc42app2*
G04 #@! TF.CreationDate,2025-10-05T13:47:14+03:00*
G04 #@! TF.ProjectId,ModulinV2,4d6f6475-6c69-46e5-9632-2e6b69636164,rev?*
G04 #@! TF.SameCoordinates,Original*
G04 #@! TF.FileFunction,Legend,Bot*
G04 #@! TF.FilePolarity,Positive*
%FSLAX46Y46*%
G04 Gerber Fmt 4.6, Leading zero omitted, Abs format (unit mm)*
G04 Created by KiCad (PCBNEW 9.0.3-1.fc42app2) date 2025-10-05 13:47:14*
%MOMM*%
%LPD*%
G01*
G04 APERTURE LIST*
%ADD10C,0.150000*%
%ADD11C,0.254000*%
%ADD12C,0.120000*%
%ADD13C,0.200000*%
G04 APERTURE END LIST*
D10*
X206875283Y-75954819D02*
X206875283Y-76669104D01*
X206875283Y-76669104D02*
X206922902Y-76811961D01*
X206922902Y-76811961D02*
X207018140Y-76907200D01*
X207018140Y-76907200D02*
X207160997Y-76954819D01*
X207160997Y-76954819D02*
X207256235Y-76954819D01*
X206399092Y-76954819D02*
X206399092Y-75954819D01*
X206399092Y-75954819D02*
X206018140Y-75954819D01*
X206018140Y-75954819D02*
X205922902Y-76002438D01*
X205922902Y-76002438D02*
X205875283Y-76050057D01*
X205875283Y-76050057D02*
X205827664Y-76145295D01*
X205827664Y-76145295D02*
X205827664Y-76288152D01*
X205827664Y-76288152D02*
X205875283Y-76383390D01*
X205875283Y-76383390D02*
X205922902Y-76431009D01*
X205922902Y-76431009D02*
X206018140Y-76478628D01*
X206018140Y-76478628D02*
X206399092Y-76478628D01*
X205256235Y-76383390D02*
X205351473Y-76335771D01*
X205351473Y-76335771D02*
X205399092Y-76288152D01*
X205399092Y-76288152D02*
X205446711Y-76192914D01*
X205446711Y-76192914D02*
X205446711Y-76145295D01*
X205446711Y-76145295D02*
X205399092Y-76050057D01*
X205399092Y-76050057D02*
X205351473Y-76002438D01*
X205351473Y-76002438D02*
X205256235Y-75954819D01*
X205256235Y-75954819D02*
X205065759Y-75954819D01*
X205065759Y-75954819D02*
X204970521Y-76002438D01*
X204970521Y-76002438D02*
X204922902Y-76050057D01*
X204922902Y-76050057D02*
X204875283Y-76145295D01*
X204875283Y-76145295D02*
X204875283Y-76192914D01*
X204875283Y-76192914D02*
X204922902Y-76288152D01*
X204922902Y-76288152D02*
X204970521Y-76335771D01*
X204970521Y-76335771D02*
X205065759Y-76383390D01*
X205065759Y-76383390D02*
X205256235Y-76383390D01*
X205256235Y-76383390D02*
X205351473Y-76431009D01*
X205351473Y-76431009D02*
X205399092Y-76478628D01*
X205399092Y-76478628D02*
X205446711Y-76573866D01*
X205446711Y-76573866D02*
X205446711Y-76764342D01*
X205446711Y-76764342D02*
X205399092Y-76859580D01*
X205399092Y-76859580D02*
X205351473Y-76907200D01*
X205351473Y-76907200D02*
X205256235Y-76954819D01*
X205256235Y-76954819D02*
X205065759Y-76954819D01*
X205065759Y-76954819D02*
X204970521Y-76907200D01*
X204970521Y-76907200D02*
X204922902Y-76859580D01*
X204922902Y-76859580D02*
X204875283Y-76764342D01*
X204875283Y-76764342D02*
X204875283Y-76573866D01*
X204875283Y-76573866D02*
X204922902Y-76478628D01*
X204922902Y-76478628D02*
X204970521Y-76431009D01*
X204970521Y-76431009D02*
X205065759Y-76383390D01*
X200625283Y-75954819D02*
X200625283Y-76669104D01*
X200625283Y-76669104D02*
X200672902Y-76811961D01*
X200672902Y-76811961D02*
X200768140Y-76907200D01*
X200768140Y-76907200D02*
X200910997Y-76954819D01*
X200910997Y-76954819D02*
X201006235Y-76954819D01*
X200149092Y-76954819D02*
X200149092Y-75954819D01*
X200149092Y-75954819D02*
X199768140Y-75954819D01*
X199768140Y-75954819D02*
X199672902Y-76002438D01*
X199672902Y-76002438D02*
X199625283Y-76050057D01*
X199625283Y-76050057D02*
X199577664Y-76145295D01*
X199577664Y-76145295D02*
X199577664Y-76288152D01*
X199577664Y-76288152D02*
X199625283Y-76383390D01*
X199625283Y-76383390D02*
X199672902Y-76431009D01*
X199672902Y-76431009D02*
X199768140Y-76478628D01*
X199768140Y-76478628D02*
X200149092Y-76478628D01*
X199101473Y-76954819D02*
X198910997Y-76954819D01*
X198910997Y-76954819D02*
X198815759Y-76907200D01*
X198815759Y-76907200D02*
X198768140Y-76859580D01*
X198768140Y-76859580D02*
X198672902Y-76716723D01*
X198672902Y-76716723D02*
X198625283Y-76526247D01*
X198625283Y-76526247D02*
X198625283Y-76145295D01*
X198625283Y-76145295D02*
X198672902Y-76050057D01*
X198672902Y-76050057D02*
X198720521Y-76002438D01*
X198720521Y-76002438D02*
X198815759Y-75954819D01*
X198815759Y-75954819D02*
X199006235Y-75954819D01*
X199006235Y-75954819D02*
X199101473Y-76002438D01*
X199101473Y-76002438D02*
X199149092Y-76050057D01*
X199149092Y-76050057D02*
X199196711Y-76145295D01*
X199196711Y-76145295D02*
X199196711Y-76383390D01*
X199196711Y-76383390D02*
X199149092Y-76478628D01*
X199149092Y-76478628D02*
X199101473Y-76526247D01*
X199101473Y-76526247D02*
X199006235Y-76573866D01*
X199006235Y-76573866D02*
X198815759Y-76573866D01*
X198815759Y-76573866D02*
X198720521Y-76526247D01*
X198720521Y-76526247D02*
X198672902Y-76478628D01*
X198672902Y-76478628D02*
X198625283Y-76383390D01*
X202083333Y-115820769D02*
X202083333Y-116535054D01*
X202083333Y-116535054D02*
X202130952Y-116677911D01*
X202130952Y-116677911D02*
X202226190Y-116773150D01*
X202226190Y-116773150D02*
X202369047Y-116820769D01*
X202369047Y-116820769D02*
X202464285Y-116820769D01*
X201607142Y-116820769D02*
X201607142Y-115820769D01*
X201607142Y-115820769D02*
X201226190Y-115820769D01*
X201226190Y-115820769D02*
X201130952Y-115868388D01*
X201130952Y-115868388D02*
X201083333Y-115916007D01*
X201083333Y-115916007D02*
X201035714Y-116011245D01*
X201035714Y-116011245D02*
X201035714Y-116154102D01*
X201035714Y-116154102D02*
X201083333Y-116249340D01*
X201083333Y-116249340D02*
X201130952Y-116296959D01*
X201130952Y-116296959D02*
X201226190Y-116344578D01*
X201226190Y-116344578D02*
X201607142Y-116344578D01*
X200702380Y-115820769D02*
X200083333Y-115820769D01*
X200083333Y-115820769D02*
X200416666Y-116201721D01*
X200416666Y-116201721D02*
X200273809Y-116201721D01*
X200273809Y-116201721D02*
X200178571Y-116249340D01*
X200178571Y-116249340D02*
X200130952Y-116296959D01*
X200130952Y-116296959D02*
X200083333Y-116392197D01*
X200083333Y-116392197D02*
X200083333Y-116630292D01*
X200083333Y-116630292D02*
X200130952Y-116725530D01*
X200130952Y-116725530D02*
X200178571Y-116773150D01*
X200178571Y-116773150D02*
X200273809Y-116820769D01*
X200273809Y-116820769D02*
X200559523Y-116820769D01*
X200559523Y-116820769D02*
X200654761Y-116773150D01*
X200654761Y-116773150D02*
X200702380Y-116725530D01*
X245859580Y-179748092D02*
X245907200Y-179700473D01*
X245907200Y-179700473D02*
X245954819Y-179557616D01*
X245954819Y-179557616D02*
X245954819Y-179462378D01*
X245954819Y-179462378D02*
X245907200Y-179319521D01*
X245907200Y-179319521D02*
X245811961Y-179224283D01*
X245811961Y-179224283D02*
X245716723Y-179176664D01*
X245716723Y-179176664D02*
X245526247Y-179129045D01*
X245526247Y-179129045D02*
X245383390Y-179129045D01*
X245383390Y-179129045D02*
X245192914Y-179176664D01*
X245192914Y-179176664D02*
X245097676Y-179224283D01*
X245097676Y-179224283D02*
X245002438Y-179319521D01*
X245002438Y-179319521D02*
X244954819Y-179462378D01*
X244954819Y-179462378D02*
X244954819Y-179557616D01*
X244954819Y-179557616D02*
X245002438Y-179700473D01*
X245002438Y-179700473D02*
X245050057Y-179748092D01*
X244954819Y-180605235D02*
X244954819Y-180414759D01*
X244954819Y-180414759D02*
X245002438Y-180319521D01*
X245002438Y-180319521D02*
X245050057Y-180271902D01*
X245050057Y-180271902D02*
X245192914Y-180176664D01*
X245192914Y-180176664D02*
X245383390Y-180129045D01*
X245383390Y-180129045D02*
X245764342Y-180129045D01*
X245764342Y-180129045D02*
X245859580Y-180176664D01*
X245859580Y-180176664D02*
X245907200Y-180224283D01*
X245907200Y-180224283D02*
X245954819Y-180319521D01*
X245954819Y-180319521D02*
X245954819Y-180509997D01*
X245954819Y-180509997D02*
X245907200Y-180605235D01*
X245907200Y-180605235D02*
X245859580Y-180652854D01*
X245859580Y-180652854D02*
X245764342Y-180700473D01*
X245764342Y-180700473D02*
X245526247Y-180700473D01*
X245526247Y-180700473D02*
X245431009Y-180652854D01*
X245431009Y-180652854D02*
X245383390Y-180605235D01*
X245383390Y-180605235D02*
X245335771Y-180509997D01*
X245335771Y-180509997D02*
X245335771Y-180319521D01*
X245335771Y-180319521D02*
X245383390Y-180224283D01*
X245383390Y-180224283D02*
X245431009Y-180176664D01*
X245431009Y-180176664D02*
X245526247Y-180129045D01*
X244954819Y-181319521D02*
X244954819Y-181414759D01*
X244954819Y-181414759D02*
X245002438Y-181509997D01*
X245002438Y-181509997D02*
X245050057Y-181557616D01*
X245050057Y-181557616D02*
X245145295Y-181605235D01*
X245145295Y-181605235D02*
X245335771Y-181652854D01*
X245335771Y-181652854D02*
X245573866Y-181652854D01*
X245573866Y-181652854D02*
X245764342Y-181605235D01*
X245764342Y-181605235D02*
X245859580Y-181557616D01*
X245859580Y-181557616D02*
X245907200Y-181509997D01*
X245907200Y-181509997D02*
X245954819Y-181414759D01*
X245954819Y-181414759D02*
X245954819Y-181319521D01*
X245954819Y-181319521D02*
X245907200Y-181224283D01*
X245907200Y-181224283D02*
X245859580Y-181176664D01*
X245859580Y-181176664D02*
X245764342Y-181129045D01*
X245764342Y-181129045D02*
X245573866Y-181081426D01*
X245573866Y-181081426D02*
X245335771Y-181081426D01*
X245335771Y-181081426D02*
X245145295Y-181129045D01*
X245145295Y-181129045D02*
X245050057Y-181176664D01*
X245050057Y-181176664D02*
X245002438Y-181224283D01*
X245002438Y-181224283D02*
X244954819Y-181319521D01*
X307331074Y-185609580D02*
X307378693Y-185657200D01*
X307378693Y-185657200D02*
X307521550Y-185704819D01*
X307521550Y-185704819D02*
X307616788Y-185704819D01*
X307616788Y-185704819D02*
X307759645Y-185657200D01*
X307759645Y-185657200D02*
X307854883Y-185561961D01*
X307854883Y-185561961D02*
X307902502Y-185466723D01*
X307902502Y-185466723D02*
X307950121Y-185276247D01*
X307950121Y-185276247D02*
X307950121Y-185133390D01*
X307950121Y-185133390D02*
X307902502Y-184942914D01*
X307902502Y-184942914D02*
X307854883Y-184847676D01*
X307854883Y-184847676D02*
X307759645Y-184752438D01*
X307759645Y-184752438D02*
X307616788Y-184704819D01*
X307616788Y-184704819D02*
X307521550Y-184704819D01*
X307521550Y-184704819D02*
X307378693Y-184752438D01*
X307378693Y-184752438D02*
X307331074Y-184800057D01*
X306473931Y-184704819D02*
X306664407Y-184704819D01*
X306664407Y-184704819D02*
X306759645Y-184752438D01*
X306759645Y-184752438D02*
X306807264Y-184800057D01*
X306807264Y-184800057D02*
X306902502Y-184942914D01*
X306902502Y-184942914D02*
X306950121Y-185133390D01*
X306950121Y-185133390D02*
X306950121Y-185514342D01*
X306950121Y-185514342D02*
X306902502Y-185609580D01*
X306902502Y-185609580D02*
X306854883Y-185657200D01*
X306854883Y-185657200D02*
X306759645Y-185704819D01*
X306759645Y-185704819D02*
X306569169Y-185704819D01*
X306569169Y-185704819D02*
X306473931Y-185657200D01*
X306473931Y-185657200D02*
X306426312Y-185609580D01*
X306426312Y-185609580D02*
X306378693Y-185514342D01*
X306378693Y-185514342D02*
X306378693Y-185276247D01*
X306378693Y-185276247D02*
X306426312Y-185181009D01*
X306426312Y-185181009D02*
X306473931Y-185133390D01*
X306473931Y-185133390D02*
X306569169Y-185085771D01*
X306569169Y-185085771D02*
X306759645Y-185085771D01*
X306759645Y-185085771D02*
X306854883Y-185133390D01*
X306854883Y-185133390D02*
X306902502Y-185181009D01*
X306902502Y-185181009D02*
X306950121Y-185276247D01*
X306045359Y-184704819D02*
X305426312Y-184704819D01*
X305426312Y-184704819D02*
X305759645Y-185085771D01*
X305759645Y-185085771D02*
X305616788Y-185085771D01*
X305616788Y-185085771D02*
X305521550Y-185133390D01*
X305521550Y-185133390D02*
X305473931Y-185181009D01*
X305473931Y-185181009D02*
X305426312Y-185276247D01*
X305426312Y-185276247D02*
X305426312Y-185514342D01*
X305426312Y-185514342D02*
X305473931Y-185609580D01*
X305473931Y-185609580D02*
X305521550Y-185657200D01*
X305521550Y-185657200D02*
X305616788Y-185704819D01*
X305616788Y-185704819D02*
X305902502Y-185704819D01*
X305902502Y-185704819D02*
X305997740Y-185657200D01*
X305997740Y-185657200D02*
X306045359Y-185609580D01*
X255722780Y-93109580D02*
X255770399Y-93157200D01*
X255770399Y-93157200D02*
X255913256Y-93204819D01*
X255913256Y-93204819D02*
X256008494Y-93204819D01*
X256008494Y-93204819D02*
X256151351Y-93157200D01*
X256151351Y-93157200D02*
X256246589Y-93061961D01*
X256246589Y-93061961D02*
X256294208Y-92966723D01*
X256294208Y-92966723D02*
X256341827Y-92776247D01*
X256341827Y-92776247D02*
X256341827Y-92633390D01*
X256341827Y-92633390D02*
X256294208Y-92442914D01*
X256294208Y-92442914D02*
X256246589Y-92347676D01*
X256246589Y-92347676D02*
X256151351Y-92252438D01*
X256151351Y-92252438D02*
X256008494Y-92204819D01*
X256008494Y-92204819D02*
X255913256Y-92204819D01*
X255913256Y-92204819D02*
X255770399Y-92252438D01*
X255770399Y-92252438D02*
X255722780Y-92300057D01*
X254770399Y-93204819D02*
X255341827Y-93204819D01*
X255056113Y-93204819D02*
X255056113Y-92204819D01*
X255056113Y-92204819D02*
X255151351Y-92347676D01*
X255151351Y-92347676D02*
X255246589Y-92442914D01*
X255246589Y-92442914D02*
X255341827Y-92490533D01*
X254294208Y-93204819D02*
X254103732Y-93204819D01*
X254103732Y-93204819D02*
X254008494Y-93157200D01*
X254008494Y-93157200D02*
X253960875Y-93109580D01*
X253960875Y-93109580D02*
X253865637Y-92966723D01*
X253865637Y-92966723D02*
X253818018Y-92776247D01*
X253818018Y-92776247D02*
X253818018Y-92395295D01*
X253818018Y-92395295D02*
X253865637Y-92300057D01*
X253865637Y-92300057D02*
X253913256Y-92252438D01*
X253913256Y-92252438D02*
X254008494Y-92204819D01*
X254008494Y-92204819D02*
X254198970Y-92204819D01*
X254198970Y-92204819D02*
X254294208Y-92252438D01*
X254294208Y-92252438D02*
X254341827Y-92300057D01*
X254341827Y-92300057D02*
X254389446Y-92395295D01*
X254389446Y-92395295D02*
X254389446Y-92633390D01*
X254389446Y-92633390D02*
X254341827Y-92728628D01*
X254341827Y-92728628D02*
X254294208Y-92776247D01*
X254294208Y-92776247D02*
X254198970Y-92823866D01*
X254198970Y-92823866D02*
X254008494Y-92823866D01*
X254008494Y-92823866D02*
X253913256Y-92776247D01*
X253913256Y-92776247D02*
X253865637Y-92728628D01*
X253865637Y-92728628D02*
X253818018Y-92633390D01*
X253341827Y-93204819D02*
X253151351Y-93204819D01*
X253151351Y-93204819D02*
X253056113Y-93157200D01*
X253056113Y-93157200D02*
X253008494Y-93109580D01*
X253008494Y-93109580D02*
X252913256Y-92966723D01*
X252913256Y-92966723D02*
X252865637Y-92776247D01*
X252865637Y-92776247D02*
X252865637Y-92395295D01*
X252865637Y-92395295D02*
X252913256Y-92300057D01*
X252913256Y-92300057D02*
X252960875Y-92252438D01*
X252960875Y-92252438D02*
X253056113Y-92204819D01*
X253056113Y-92204819D02*
X253246589Y-92204819D01*
X253246589Y-92204819D02*
X253341827Y-92252438D01*
X253341827Y-92252438D02*
X253389446Y-92300057D01*
X253389446Y-92300057D02*
X253437065Y-92395295D01*
X253437065Y-92395295D02*
X253437065Y-92633390D01*
X253437065Y-92633390D02*
X253389446Y-92728628D01*
X253389446Y-92728628D02*
X253341827Y-92776247D01*
X253341827Y-92776247D02*
X253246589Y-92823866D01*
X253246589Y-92823866D02*
X253056113Y-92823866D01*
X253056113Y-92823866D02*
X252960875Y-92776247D01*
X252960875Y-92776247D02*
X252913256Y-92728628D01*
X252913256Y-92728628D02*
X252865637Y-92633390D01*
X255704819Y-108880952D02*
X255228628Y-108547619D01*
X255704819Y-108309524D02*
X254704819Y-108309524D01*
X254704819Y-108309524D02*
X254704819Y-108690476D01*
X254704819Y-108690476D02*
X254752438Y-108785714D01*
X254752438Y-108785714D02*
X254800057Y-108833333D01*
X254800057Y-108833333D02*
X254895295Y-108880952D01*
X254895295Y-108880952D02*
X255038152Y-108880952D01*
X255038152Y-108880952D02*
X255133390Y-108833333D01*
X255133390Y-108833333D02*
X255181009Y-108785714D01*
X255181009Y-108785714D02*
X255228628Y-108690476D01*
X255228628Y-108690476D02*
X255228628Y-108309524D01*
X255704819Y-109833333D02*
X255704819Y-109261905D01*
X255704819Y-109547619D02*
X254704819Y-109547619D01*
X254704819Y-109547619D02*
X254847676Y-109452381D01*
X254847676Y-109452381D02*
X254942914Y-109357143D01*
X254942914Y-109357143D02*
X254990533Y-109261905D01*
X254704819Y-110738095D02*
X254704819Y-110261905D01*
X254704819Y-110261905D02*
X255181009Y-110214286D01*
X255181009Y-110214286D02*
X255133390Y-110261905D01*
X255133390Y-110261905D02*
X255085771Y-110357143D01*
X255085771Y-110357143D02*
X255085771Y-110595238D01*
X255085771Y-110595238D02*
X255133390Y-110690476D01*
X255133390Y-110690476D02*
X255181009Y-110738095D01*
X255181009Y-110738095D02*
X255276247Y-110785714D01*
X255276247Y-110785714D02*
X255514342Y-110785714D01*
X255514342Y-110785714D02*
X255609580Y-110738095D01*
X255609580Y-110738095D02*
X255657200Y-110690476D01*
X255657200Y-110690476D02*
X255704819Y-110595238D01*
X255704819Y-110595238D02*
X255704819Y-110357143D01*
X255704819Y-110357143D02*
X255657200Y-110261905D01*
X255657200Y-110261905D02*
X255609580Y-110214286D01*
X254704819Y-111690476D02*
X254704819Y-111214286D01*
X254704819Y-111214286D02*
X255181009Y-111166667D01*
X255181009Y-111166667D02*
X255133390Y-111214286D01*
X255133390Y-111214286D02*
X255085771Y-111309524D01*
X255085771Y-111309524D02*
X255085771Y-111547619D01*
X255085771Y-111547619D02*
X255133390Y-111642857D01*
X255133390Y-111642857D02*
X255181009Y-111690476D01*
X255181009Y-111690476D02*
X255276247Y-111738095D01*
X255276247Y-111738095D02*
X255514342Y-111738095D01*
X255514342Y-111738095D02*
X255609580Y-111690476D01*
X255609580Y-111690476D02*
X255657200Y-111642857D01*
X255657200Y-111642857D02*
X255704819Y-111547619D01*
X255704819Y-111547619D02*
X255704819Y-111309524D01*
X255704819Y-111309524D02*
X255657200Y-111214286D01*
X255657200Y-111214286D02*
X255609580Y-111166667D01*
X255619047Y-96859580D02*
X255666666Y-96907200D01*
X255666666Y-96907200D02*
X255809523Y-96954819D01*
X255809523Y-96954819D02*
X255904761Y-96954819D01*
X255904761Y-96954819D02*
X256047618Y-96907200D01*
X256047618Y-96907200D02*
X256142856Y-96811961D01*
X256142856Y-96811961D02*
X256190475Y-96716723D01*
X256190475Y-96716723D02*
X256238094Y-96526247D01*
X256238094Y-96526247D02*
X256238094Y-96383390D01*
X256238094Y-96383390D02*
X256190475Y-96192914D01*
X256190475Y-96192914D02*
X256142856Y-96097676D01*
X256142856Y-96097676D02*
X256047618Y-96002438D01*
X256047618Y-96002438D02*
X255904761Y-95954819D01*
X255904761Y-95954819D02*
X255809523Y-95954819D01*
X255809523Y-95954819D02*
X255666666Y-96002438D01*
X255666666Y-96002438D02*
X255619047Y-96050057D01*
X255238094Y-96050057D02*
X255190475Y-96002438D01*
X255190475Y-96002438D02*
X255095237Y-95954819D01*
X255095237Y-95954819D02*
X254857142Y-95954819D01*
X254857142Y-95954819D02*
X254761904Y-96002438D01*
X254761904Y-96002438D02*
X254714285Y-96050057D01*
X254714285Y-96050057D02*
X254666666Y-96145295D01*
X254666666Y-96145295D02*
X254666666Y-96240533D01*
X254666666Y-96240533D02*
X254714285Y-96383390D01*
X254714285Y-96383390D02*
X255285713Y-96954819D01*
X255285713Y-96954819D02*
X254666666Y-96954819D01*
X254047618Y-95954819D02*
X253952380Y-95954819D01*
X253952380Y-95954819D02*
X253857142Y-96002438D01*
X253857142Y-96002438D02*
X253809523Y-96050057D01*
X253809523Y-96050057D02*
X253761904Y-96145295D01*
X253761904Y-96145295D02*
X253714285Y-96335771D01*
X253714285Y-96335771D02*
X253714285Y-96573866D01*
X253714285Y-96573866D02*
X253761904Y-96764342D01*
X253761904Y-96764342D02*
X253809523Y-96859580D01*
X253809523Y-96859580D02*
X253857142Y-96907200D01*
X253857142Y-96907200D02*
X253952380Y-96954819D01*
X253952380Y-96954819D02*
X254047618Y-96954819D01*
X254047618Y-96954819D02*
X254142856Y-96907200D01*
X254142856Y-96907200D02*
X254190475Y-96859580D01*
X254190475Y-96859580D02*
X254238094Y-96764342D01*
X254238094Y-96764342D02*
X254285713Y-96573866D01*
X254285713Y-96573866D02*
X254285713Y-96335771D01*
X254285713Y-96335771D02*
X254238094Y-96145295D01*
X254238094Y-96145295D02*
X254190475Y-96050057D01*
X254190475Y-96050057D02*
X254142856Y-96002438D01*
X254142856Y-96002438D02*
X254047618Y-95954819D01*
X253333332Y-96050057D02*
X253285713Y-96002438D01*
X253285713Y-96002438D02*
X253190475Y-95954819D01*
X253190475Y-95954819D02*
X252952380Y-95954819D01*
X252952380Y-95954819D02*
X252857142Y-96002438D01*
X252857142Y-96002438D02*
X252809523Y-96050057D01*
X252809523Y-96050057D02*
X252761904Y-96145295D01*
X252761904Y-96145295D02*
X252761904Y-96240533D01*
X252761904Y-96240533D02*
X252809523Y-96383390D01*
X252809523Y-96383390D02*
X253380951Y-96954819D01*
X253380951Y-96954819D02*
X252761904Y-96954819D01*
X118816769Y-137748092D02*
X118340578Y-137414759D01*
X118816769Y-137176664D02*
X117816769Y-137176664D01*
X117816769Y-137176664D02*
X117816769Y-137557616D01*
X117816769Y-137557616D02*
X117864388Y-137652854D01*
X117864388Y-137652854D02*
X117912007Y-137700473D01*
X117912007Y-137700473D02*
X118007245Y-137748092D01*
X118007245Y-137748092D02*
X118150102Y-137748092D01*
X118150102Y-137748092D02*
X118245340Y-137700473D01*
X118245340Y-137700473D02*
X118292959Y-137652854D01*
X118292959Y-137652854D02*
X118340578Y-137557616D01*
X118340578Y-137557616D02*
X118340578Y-137176664D01*
X118816769Y-138700473D02*
X118816769Y-138129045D01*
X118816769Y-138414759D02*
X117816769Y-138414759D01*
X117816769Y-138414759D02*
X117959626Y-138319521D01*
X117959626Y-138319521D02*
X118054864Y-138224283D01*
X118054864Y-138224283D02*
X118102483Y-138129045D01*
X117816769Y-139319521D02*
X117816769Y-139414759D01*
X117816769Y-139414759D02*
X117864388Y-139509997D01*
X117864388Y-139509997D02*
X117912007Y-139557616D01*
X117912007Y-139557616D02*
X118007245Y-139605235D01*
X118007245Y-139605235D02*
X118197721Y-139652854D01*
X118197721Y-139652854D02*
X118435816Y-139652854D01*
X118435816Y-139652854D02*
X118626292Y-139605235D01*
X118626292Y-139605235D02*
X118721530Y-139557616D01*
X118721530Y-139557616D02*
X118769150Y-139509997D01*
X118769150Y-139509997D02*
X118816769Y-139414759D01*
X118816769Y-139414759D02*
X118816769Y-139319521D01*
X118816769Y-139319521D02*
X118769150Y-139224283D01*
X118769150Y-139224283D02*
X118721530Y-139176664D01*
X118721530Y-139176664D02*
X118626292Y-139129045D01*
X118626292Y-139129045D02*
X118435816Y-139081426D01*
X118435816Y-139081426D02*
X118197721Y-139081426D01*
X118197721Y-139081426D02*
X118007245Y-139129045D01*
X118007245Y-139129045D02*
X117912007Y-139176664D01*
X117912007Y-139176664D02*
X117864388Y-139224283D01*
X117864388Y-139224283D02*
X117816769Y-139319521D01*
X197601473Y-79954819D02*
X197601473Y-80669104D01*
X197601473Y-80669104D02*
X197649092Y-80811961D01*
X197649092Y-80811961D02*
X197744330Y-80907200D01*
X197744330Y-80907200D02*
X197887187Y-80954819D01*
X197887187Y-80954819D02*
X197982425Y-80954819D01*
X197125282Y-80954819D02*
X197125282Y-79954819D01*
X197125282Y-79954819D02*
X196744330Y-79954819D01*
X196744330Y-79954819D02*
X196649092Y-80002438D01*
X196649092Y-80002438D02*
X196601473Y-80050057D01*
X196601473Y-80050057D02*
X196553854Y-80145295D01*
X196553854Y-80145295D02*
X196553854Y-80288152D01*
X196553854Y-80288152D02*
X196601473Y-80383390D01*
X196601473Y-80383390D02*
X196649092Y-80431009D01*
X196649092Y-80431009D02*
X196744330Y-80478628D01*
X196744330Y-80478628D02*
X197125282Y-80478628D01*
X195601473Y-80954819D02*
X196172901Y-80954819D01*
X195887187Y-80954819D02*
X195887187Y-79954819D01*
X195887187Y-79954819D02*
X195982425Y-80097676D01*
X195982425Y-80097676D02*
X196077663Y-80192914D01*
X196077663Y-80192914D02*
X196172901Y-80240533D01*
X194649092Y-80954819D02*
X195220520Y-80954819D01*
X194934806Y-80954819D02*
X194934806Y-79954819D01*
X194934806Y-79954819D02*
X195030044Y-80097676D01*
X195030044Y-80097676D02*
X195125282Y-80192914D01*
X195125282Y-80192914D02*
X195220520Y-80240533D01*
X289184807Y-135070530D02*
X289232426Y-135118150D01*
X289232426Y-135118150D02*
X289375283Y-135165769D01*
X289375283Y-135165769D02*
X289470521Y-135165769D01*
X289470521Y-135165769D02*
X289613378Y-135118150D01*
X289613378Y-135118150D02*
X289708616Y-135022911D01*
X289708616Y-135022911D02*
X289756235Y-134927673D01*
X289756235Y-134927673D02*
X289803854Y-134737197D01*
X289803854Y-134737197D02*
X289803854Y-134594340D01*
X289803854Y-134594340D02*
X289756235Y-134403864D01*
X289756235Y-134403864D02*
X289708616Y-134308626D01*
X289708616Y-134308626D02*
X289613378Y-134213388D01*
X289613378Y-134213388D02*
X289470521Y-134165769D01*
X289470521Y-134165769D02*
X289375283Y-134165769D01*
X289375283Y-134165769D02*
X289232426Y-134213388D01*
X289232426Y-134213388D02*
X289184807Y-134261007D01*
X288851473Y-134165769D02*
X288184807Y-134165769D01*
X288184807Y-134165769D02*
X288613378Y-135165769D01*
X287899092Y-134165769D02*
X287280045Y-134165769D01*
X287280045Y-134165769D02*
X287613378Y-134546721D01*
X287613378Y-134546721D02*
X287470521Y-134546721D01*
X287470521Y-134546721D02*
X287375283Y-134594340D01*
X287375283Y-134594340D02*
X287327664Y-134641959D01*
X287327664Y-134641959D02*
X287280045Y-134737197D01*
X287280045Y-134737197D02*
X287280045Y-134975292D01*
X287280045Y-134975292D02*
X287327664Y-135070530D01*
X287327664Y-135070530D02*
X287375283Y-135118150D01*
X287375283Y-135118150D02*
X287470521Y-135165769D01*
X287470521Y-135165769D02*
X287756235Y-135165769D01*
X287756235Y-135165769D02*
X287851473Y-135118150D01*
X287851473Y-135118150D02*
X287899092Y-135070530D01*
D11*
X180126904Y-142824318D02*
X180550238Y-142219556D01*
X180852619Y-142824318D02*
X180852619Y-141554318D01*
X180852619Y-141554318D02*
X180368809Y-141554318D01*
X180368809Y-141554318D02*
X180247857Y-141614794D01*
X180247857Y-141614794D02*
X180187380Y-141675270D01*
X180187380Y-141675270D02*
X180126904Y-141796222D01*
X180126904Y-141796222D02*
X180126904Y-141977651D01*
X180126904Y-141977651D02*
X180187380Y-142098603D01*
X180187380Y-142098603D02*
X180247857Y-142159080D01*
X180247857Y-142159080D02*
X180368809Y-142219556D01*
X180368809Y-142219556D02*
X180852619Y-142219556D01*
X179582619Y-142824318D02*
X179582619Y-141554318D01*
X179582619Y-141554318D02*
X178856904Y-142824318D01*
X178856904Y-142824318D02*
X178856904Y-141554318D01*
X177586904Y-142824318D02*
X178312619Y-142824318D01*
X177949762Y-142824318D02*
X177949762Y-141554318D01*
X177949762Y-141554318D02*
X178070714Y-141735746D01*
X178070714Y-141735746D02*
X178191666Y-141856699D01*
X178191666Y-141856699D02*
X178312619Y-141917175D01*
D10*
X307038540Y-180609580D02*
X307086159Y-180657200D01*
X307086159Y-180657200D02*
X307229016Y-180704819D01*
X307229016Y-180704819D02*
X307324254Y-180704819D01*
X307324254Y-180704819D02*
X307467111Y-180657200D01*
X307467111Y-180657200D02*
X307562349Y-180561961D01*
X307562349Y-180561961D02*
X307609968Y-180466723D01*
X307609968Y-180466723D02*
X307657587Y-180276247D01*
X307657587Y-180276247D02*
X307657587Y-180133390D01*
X307657587Y-180133390D02*
X307609968Y-179942914D01*
X307609968Y-179942914D02*
X307562349Y-179847676D01*
X307562349Y-179847676D02*
X307467111Y-179752438D01*
X307467111Y-179752438D02*
X307324254Y-179704819D01*
X307324254Y-179704819D02*
X307229016Y-179704819D01*
X307229016Y-179704819D02*
X307086159Y-179752438D01*
X307086159Y-179752438D02*
X307038540Y-179800057D01*
X306181397Y-179704819D02*
X306371873Y-179704819D01*
X306371873Y-179704819D02*
X306467111Y-179752438D01*
X306467111Y-179752438D02*
X306514730Y-179800057D01*
X306514730Y-179800057D02*
X306609968Y-179942914D01*
X306609968Y-179942914D02*
X306657587Y-180133390D01*
X306657587Y-180133390D02*
X306657587Y-180514342D01*
X306657587Y-180514342D02*
X306609968Y-180609580D01*
X306609968Y-180609580D02*
X306562349Y-180657200D01*
X306562349Y-180657200D02*
X306467111Y-180704819D01*
X306467111Y-180704819D02*
X306276635Y-180704819D01*
X306276635Y-180704819D02*
X306181397Y-180657200D01*
X306181397Y-180657200D02*
X306133778Y-180609580D01*
X306133778Y-180609580D02*
X306086159Y-180514342D01*
X306086159Y-180514342D02*
X306086159Y-180276247D01*
X306086159Y-180276247D02*
X306133778Y-180181009D01*
X306133778Y-180181009D02*
X306181397Y-180133390D01*
X306181397Y-180133390D02*
X306276635Y-180085771D01*
X306276635Y-180085771D02*
X306467111Y-180085771D01*
X306467111Y-180085771D02*
X306562349Y-180133390D01*
X306562349Y-180133390D02*
X306609968Y-180181009D01*
X306609968Y-180181009D02*
X306657587Y-180276247D01*
X305181397Y-179704819D02*
X305657587Y-179704819D01*
X305657587Y-179704819D02*
X305705206Y-180181009D01*
X305705206Y-180181009D02*
X305657587Y-180133390D01*
X305657587Y-180133390D02*
X305562349Y-180085771D01*
X305562349Y-180085771D02*
X305324254Y-180085771D01*
X305324254Y-180085771D02*
X305229016Y-180133390D01*
X305229016Y-180133390D02*
X305181397Y-180181009D01*
X305181397Y-180181009D02*
X305133778Y-180276247D01*
X305133778Y-180276247D02*
X305133778Y-180514342D01*
X305133778Y-180514342D02*
X305181397Y-180609580D01*
X305181397Y-180609580D02*
X305229016Y-180657200D01*
X305229016Y-180657200D02*
X305324254Y-180704819D01*
X305324254Y-180704819D02*
X305562349Y-180704819D01*
X305562349Y-180704819D02*
X305657587Y-180657200D01*
X305657587Y-180657200D02*
X305705206Y-180609580D01*
X238109580Y-179601825D02*
X238157200Y-179554206D01*
X238157200Y-179554206D02*
X238204819Y-179411349D01*
X238204819Y-179411349D02*
X238204819Y-179316111D01*
X238204819Y-179316111D02*
X238157200Y-179173254D01*
X238157200Y-179173254D02*
X238061961Y-179078016D01*
X238061961Y-179078016D02*
X237966723Y-179030397D01*
X237966723Y-179030397D02*
X237776247Y-178982778D01*
X237776247Y-178982778D02*
X237633390Y-178982778D01*
X237633390Y-178982778D02*
X237442914Y-179030397D01*
X237442914Y-179030397D02*
X237347676Y-179078016D01*
X237347676Y-179078016D02*
X237252438Y-179173254D01*
X237252438Y-179173254D02*
X237204819Y-179316111D01*
X237204819Y-179316111D02*
X237204819Y-179411349D01*
X237204819Y-179411349D02*
X237252438Y-179554206D01*
X237252438Y-179554206D02*
X237300057Y-179601825D01*
X237204819Y-180506587D02*
X237204819Y-180030397D01*
X237204819Y-180030397D02*
X237681009Y-179982778D01*
X237681009Y-179982778D02*
X237633390Y-180030397D01*
X237633390Y-180030397D02*
X237585771Y-180125635D01*
X237585771Y-180125635D02*
X237585771Y-180363730D01*
X237585771Y-180363730D02*
X237633390Y-180458968D01*
X237633390Y-180458968D02*
X237681009Y-180506587D01*
X237681009Y-180506587D02*
X237776247Y-180554206D01*
X237776247Y-180554206D02*
X238014342Y-180554206D01*
X238014342Y-180554206D02*
X238109580Y-180506587D01*
X238109580Y-180506587D02*
X238157200Y-180458968D01*
X238157200Y-180458968D02*
X238204819Y-180363730D01*
X238204819Y-180363730D02*
X238204819Y-180125635D01*
X238204819Y-180125635D02*
X238157200Y-180030397D01*
X238157200Y-180030397D02*
X238109580Y-179982778D01*
X237204819Y-180887540D02*
X237204819Y-181554206D01*
X237204819Y-181554206D02*
X238204819Y-181125635D01*
X289184807Y-131165769D02*
X289518140Y-130689578D01*
X289756235Y-131165769D02*
X289756235Y-130165769D01*
X289756235Y-130165769D02*
X289375283Y-130165769D01*
X289375283Y-130165769D02*
X289280045Y-130213388D01*
X289280045Y-130213388D02*
X289232426Y-130261007D01*
X289232426Y-130261007D02*
X289184807Y-130356245D01*
X289184807Y-130356245D02*
X289184807Y-130499102D01*
X289184807Y-130499102D02*
X289232426Y-130594340D01*
X289232426Y-130594340D02*
X289280045Y-130641959D01*
X289280045Y-130641959D02*
X289375283Y-130689578D01*
X289375283Y-130689578D02*
X289756235Y-130689578D01*
X288708616Y-131165769D02*
X288518140Y-131165769D01*
X288518140Y-131165769D02*
X288422902Y-131118150D01*
X288422902Y-131118150D02*
X288375283Y-131070530D01*
X288375283Y-131070530D02*
X288280045Y-130927673D01*
X288280045Y-130927673D02*
X288232426Y-130737197D01*
X288232426Y-130737197D02*
X288232426Y-130356245D01*
X288232426Y-130356245D02*
X288280045Y-130261007D01*
X288280045Y-130261007D02*
X288327664Y-130213388D01*
X288327664Y-130213388D02*
X288422902Y-130165769D01*
X288422902Y-130165769D02*
X288613378Y-130165769D01*
X288613378Y-130165769D02*
X288708616Y-130213388D01*
X288708616Y-130213388D02*
X288756235Y-130261007D01*
X288756235Y-130261007D02*
X288803854Y-130356245D01*
X288803854Y-130356245D02*
X288803854Y-130594340D01*
X288803854Y-130594340D02*
X288756235Y-130689578D01*
X288756235Y-130689578D02*
X288708616Y-130737197D01*
X288708616Y-130737197D02*
X288613378Y-130784816D01*
X288613378Y-130784816D02*
X288422902Y-130784816D01*
X288422902Y-130784816D02*
X288327664Y-130737197D01*
X288327664Y-130737197D02*
X288280045Y-130689578D01*
X288280045Y-130689578D02*
X288232426Y-130594340D01*
X287375283Y-130165769D02*
X287565759Y-130165769D01*
X287565759Y-130165769D02*
X287660997Y-130213388D01*
X287660997Y-130213388D02*
X287708616Y-130261007D01*
X287708616Y-130261007D02*
X287803854Y-130403864D01*
X287803854Y-130403864D02*
X287851473Y-130594340D01*
X287851473Y-130594340D02*
X287851473Y-130975292D01*
X287851473Y-130975292D02*
X287803854Y-131070530D01*
X287803854Y-131070530D02*
X287756235Y-131118150D01*
X287756235Y-131118150D02*
X287660997Y-131165769D01*
X287660997Y-131165769D02*
X287470521Y-131165769D01*
X287470521Y-131165769D02*
X287375283Y-131118150D01*
X287375283Y-131118150D02*
X287327664Y-131070530D01*
X287327664Y-131070530D02*
X287280045Y-130975292D01*
X287280045Y-130975292D02*
X287280045Y-130737197D01*
X287280045Y-130737197D02*
X287327664Y-130641959D01*
X287327664Y-130641959D02*
X287375283Y-130594340D01*
X287375283Y-130594340D02*
X287470521Y-130546721D01*
X287470521Y-130546721D02*
X287660997Y-130546721D01*
X287660997Y-130546721D02*
X287756235Y-130594340D01*
X287756235Y-130594340D02*
X287803854Y-130641959D01*
X287803854Y-130641959D02*
X287851473Y-130737197D01*
X251774819Y-108880952D02*
X251298628Y-108547619D01*
X251774819Y-108309524D02*
X250774819Y-108309524D01*
X250774819Y-108309524D02*
X250774819Y-108690476D01*
X250774819Y-108690476D02*
X250822438Y-108785714D01*
X250822438Y-108785714D02*
X250870057Y-108833333D01*
X250870057Y-108833333D02*
X250965295Y-108880952D01*
X250965295Y-108880952D02*
X251108152Y-108880952D01*
X251108152Y-108880952D02*
X251203390Y-108833333D01*
X251203390Y-108833333D02*
X251251009Y-108785714D01*
X251251009Y-108785714D02*
X251298628Y-108690476D01*
X251298628Y-108690476D02*
X251298628Y-108309524D01*
X251774819Y-109833333D02*
X251774819Y-109261905D01*
X251774819Y-109547619D02*
X250774819Y-109547619D01*
X250774819Y-109547619D02*
X250917676Y-109452381D01*
X250917676Y-109452381D02*
X251012914Y-109357143D01*
X251012914Y-109357143D02*
X251060533Y-109261905D01*
X250774819Y-110738095D02*
X250774819Y-110261905D01*
X250774819Y-110261905D02*
X251251009Y-110214286D01*
X251251009Y-110214286D02*
X251203390Y-110261905D01*
X251203390Y-110261905D02*
X251155771Y-110357143D01*
X251155771Y-110357143D02*
X251155771Y-110595238D01*
X251155771Y-110595238D02*
X251203390Y-110690476D01*
X251203390Y-110690476D02*
X251251009Y-110738095D01*
X251251009Y-110738095D02*
X251346247Y-110785714D01*
X251346247Y-110785714D02*
X251584342Y-110785714D01*
X251584342Y-110785714D02*
X251679580Y-110738095D01*
X251679580Y-110738095D02*
X251727200Y-110690476D01*
X251727200Y-110690476D02*
X251774819Y-110595238D01*
X251774819Y-110595238D02*
X251774819Y-110357143D01*
X251774819Y-110357143D02*
X251727200Y-110261905D01*
X251727200Y-110261905D02*
X251679580Y-110214286D01*
X250774819Y-111642857D02*
X250774819Y-111452381D01*
X250774819Y-111452381D02*
X250822438Y-111357143D01*
X250822438Y-111357143D02*
X250870057Y-111309524D01*
X250870057Y-111309524D02*
X251012914Y-111214286D01*
X251012914Y-111214286D02*
X251203390Y-111166667D01*
X251203390Y-111166667D02*
X251584342Y-111166667D01*
X251584342Y-111166667D02*
X251679580Y-111214286D01*
X251679580Y-111214286D02*
X251727200Y-111261905D01*
X251727200Y-111261905D02*
X251774819Y-111357143D01*
X251774819Y-111357143D02*
X251774819Y-111547619D01*
X251774819Y-111547619D02*
X251727200Y-111642857D01*
X251727200Y-111642857D02*
X251679580Y-111690476D01*
X251679580Y-111690476D02*
X251584342Y-111738095D01*
X251584342Y-111738095D02*
X251346247Y-111738095D01*
X251346247Y-111738095D02*
X251251009Y-111690476D01*
X251251009Y-111690476D02*
X251203390Y-111642857D01*
X251203390Y-111642857D02*
X251155771Y-111547619D01*
X251155771Y-111547619D02*
X251155771Y-111357143D01*
X251155771Y-111357143D02*
X251203390Y-111261905D01*
X251203390Y-111261905D02*
X251251009Y-111214286D01*
X251251009Y-111214286D02*
X251346247Y-111166667D01*
X278184807Y-131204819D02*
X278518140Y-130728628D01*
X278756235Y-131204819D02*
X278756235Y-130204819D01*
X278756235Y-130204819D02*
X278375283Y-130204819D01*
X278375283Y-130204819D02*
X278280045Y-130252438D01*
X278280045Y-130252438D02*
X278232426Y-130300057D01*
X278232426Y-130300057D02*
X278184807Y-130395295D01*
X278184807Y-130395295D02*
X278184807Y-130538152D01*
X278184807Y-130538152D02*
X278232426Y-130633390D01*
X278232426Y-130633390D02*
X278280045Y-130681009D01*
X278280045Y-130681009D02*
X278375283Y-130728628D01*
X278375283Y-130728628D02*
X278756235Y-130728628D01*
X277708616Y-131204819D02*
X277518140Y-131204819D01*
X277518140Y-131204819D02*
X277422902Y-131157200D01*
X277422902Y-131157200D02*
X277375283Y-131109580D01*
X277375283Y-131109580D02*
X277280045Y-130966723D01*
X277280045Y-130966723D02*
X277232426Y-130776247D01*
X277232426Y-130776247D02*
X277232426Y-130395295D01*
X277232426Y-130395295D02*
X277280045Y-130300057D01*
X277280045Y-130300057D02*
X277327664Y-130252438D01*
X277327664Y-130252438D02*
X277422902Y-130204819D01*
X277422902Y-130204819D02*
X277613378Y-130204819D01*
X277613378Y-130204819D02*
X277708616Y-130252438D01*
X277708616Y-130252438D02*
X277756235Y-130300057D01*
X277756235Y-130300057D02*
X277803854Y-130395295D01*
X277803854Y-130395295D02*
X277803854Y-130633390D01*
X277803854Y-130633390D02*
X277756235Y-130728628D01*
X277756235Y-130728628D02*
X277708616Y-130776247D01*
X277708616Y-130776247D02*
X277613378Y-130823866D01*
X277613378Y-130823866D02*
X277422902Y-130823866D01*
X277422902Y-130823866D02*
X277327664Y-130776247D01*
X277327664Y-130776247D02*
X277280045Y-130728628D01*
X277280045Y-130728628D02*
X277232426Y-130633390D01*
X276899092Y-130204819D02*
X276232426Y-130204819D01*
X276232426Y-130204819D02*
X276660997Y-131204819D01*
X256015314Y-67609580D02*
X256062933Y-67657200D01*
X256062933Y-67657200D02*
X256205790Y-67704819D01*
X256205790Y-67704819D02*
X256301028Y-67704819D01*
X256301028Y-67704819D02*
X256443885Y-67657200D01*
X256443885Y-67657200D02*
X256539123Y-67561961D01*
X256539123Y-67561961D02*
X256586742Y-67466723D01*
X256586742Y-67466723D02*
X256634361Y-67276247D01*
X256634361Y-67276247D02*
X256634361Y-67133390D01*
X256634361Y-67133390D02*
X256586742Y-66942914D01*
X256586742Y-66942914D02*
X256539123Y-66847676D01*
X256539123Y-66847676D02*
X256443885Y-66752438D01*
X256443885Y-66752438D02*
X256301028Y-66704819D01*
X256301028Y-66704819D02*
X256205790Y-66704819D01*
X256205790Y-66704819D02*
X256062933Y-66752438D01*
X256062933Y-66752438D02*
X256015314Y-66800057D01*
X255634361Y-66800057D02*
X255586742Y-66752438D01*
X255586742Y-66752438D02*
X255491504Y-66704819D01*
X255491504Y-66704819D02*
X255253409Y-66704819D01*
X255253409Y-66704819D02*
X255158171Y-66752438D01*
X255158171Y-66752438D02*
X255110552Y-66800057D01*
X255110552Y-66800057D02*
X255062933Y-66895295D01*
X255062933Y-66895295D02*
X255062933Y-66990533D01*
X255062933Y-66990533D02*
X255110552Y-67133390D01*
X255110552Y-67133390D02*
X255681980Y-67704819D01*
X255681980Y-67704819D02*
X255062933Y-67704819D01*
X254443885Y-66704819D02*
X254348647Y-66704819D01*
X254348647Y-66704819D02*
X254253409Y-66752438D01*
X254253409Y-66752438D02*
X254205790Y-66800057D01*
X254205790Y-66800057D02*
X254158171Y-66895295D01*
X254158171Y-66895295D02*
X254110552Y-67085771D01*
X254110552Y-67085771D02*
X254110552Y-67323866D01*
X254110552Y-67323866D02*
X254158171Y-67514342D01*
X254158171Y-67514342D02*
X254205790Y-67609580D01*
X254205790Y-67609580D02*
X254253409Y-67657200D01*
X254253409Y-67657200D02*
X254348647Y-67704819D01*
X254348647Y-67704819D02*
X254443885Y-67704819D01*
X254443885Y-67704819D02*
X254539123Y-67657200D01*
X254539123Y-67657200D02*
X254586742Y-67609580D01*
X254586742Y-67609580D02*
X254634361Y-67514342D01*
X254634361Y-67514342D02*
X254681980Y-67323866D01*
X254681980Y-67323866D02*
X254681980Y-67085771D01*
X254681980Y-67085771D02*
X254634361Y-66895295D01*
X254634361Y-66895295D02*
X254586742Y-66800057D01*
X254586742Y-66800057D02*
X254539123Y-66752438D01*
X254539123Y-66752438D02*
X254443885Y-66704819D01*
X253158171Y-67704819D02*
X253729599Y-67704819D01*
X253443885Y-67704819D02*
X253443885Y-66704819D01*
X253443885Y-66704819D02*
X253539123Y-66847676D01*
X253539123Y-66847676D02*
X253634361Y-66942914D01*
X253634361Y-66942914D02*
X253729599Y-66990533D01*
X278184807Y-135109580D02*
X278232426Y-135157200D01*
X278232426Y-135157200D02*
X278375283Y-135204819D01*
X278375283Y-135204819D02*
X278470521Y-135204819D01*
X278470521Y-135204819D02*
X278613378Y-135157200D01*
X278613378Y-135157200D02*
X278708616Y-135061961D01*
X278708616Y-135061961D02*
X278756235Y-134966723D01*
X278756235Y-134966723D02*
X278803854Y-134776247D01*
X278803854Y-134776247D02*
X278803854Y-134633390D01*
X278803854Y-134633390D02*
X278756235Y-134442914D01*
X278756235Y-134442914D02*
X278708616Y-134347676D01*
X278708616Y-134347676D02*
X278613378Y-134252438D01*
X278613378Y-134252438D02*
X278470521Y-134204819D01*
X278470521Y-134204819D02*
X278375283Y-134204819D01*
X278375283Y-134204819D02*
X278232426Y-134252438D01*
X278232426Y-134252438D02*
X278184807Y-134300057D01*
X277851473Y-134204819D02*
X277184807Y-134204819D01*
X277184807Y-134204819D02*
X277613378Y-135204819D01*
X276375283Y-134538152D02*
X276375283Y-135204819D01*
X276613378Y-134157200D02*
X276851473Y-134871485D01*
X276851473Y-134871485D02*
X276232426Y-134871485D01*
X96601473Y-196454819D02*
X96601473Y-197169104D01*
X96601473Y-197169104D02*
X96649092Y-197311961D01*
X96649092Y-197311961D02*
X96744330Y-197407200D01*
X96744330Y-197407200D02*
X96887187Y-197454819D01*
X96887187Y-197454819D02*
X96982425Y-197454819D01*
X96125282Y-197454819D02*
X96125282Y-196454819D01*
X96125282Y-196454819D02*
X95744330Y-196454819D01*
X95744330Y-196454819D02*
X95649092Y-196502438D01*
X95649092Y-196502438D02*
X95601473Y-196550057D01*
X95601473Y-196550057D02*
X95553854Y-196645295D01*
X95553854Y-196645295D02*
X95553854Y-196788152D01*
X95553854Y-196788152D02*
X95601473Y-196883390D01*
X95601473Y-196883390D02*
X95649092Y-196931009D01*
X95649092Y-196931009D02*
X95744330Y-196978628D01*
X95744330Y-196978628D02*
X96125282Y-196978628D01*
X94601473Y-197454819D02*
X95172901Y-197454819D01*
X94887187Y-197454819D02*
X94887187Y-196454819D01*
X94887187Y-196454819D02*
X94982425Y-196597676D01*
X94982425Y-196597676D02*
X95077663Y-196692914D01*
X95077663Y-196692914D02*
X95172901Y-196740533D01*
X93696711Y-196454819D02*
X94172901Y-196454819D01*
X94172901Y-196454819D02*
X94220520Y-196931009D01*
X94220520Y-196931009D02*
X94172901Y-196883390D01*
X94172901Y-196883390D02*
X94077663Y-196835771D01*
X94077663Y-196835771D02*
X93839568Y-196835771D01*
X93839568Y-196835771D02*
X93744330Y-196883390D01*
X93744330Y-196883390D02*
X93696711Y-196931009D01*
X93696711Y-196931009D02*
X93649092Y-197026247D01*
X93649092Y-197026247D02*
X93649092Y-197264342D01*
X93649092Y-197264342D02*
X93696711Y-197359580D01*
X93696711Y-197359580D02*
X93744330Y-197407200D01*
X93744330Y-197407200D02*
X93839568Y-197454819D01*
X93839568Y-197454819D02*
X94077663Y-197454819D01*
X94077663Y-197454819D02*
X94172901Y-197407200D01*
X94172901Y-197407200D02*
X94220520Y-197359580D01*
X266809523Y-52704819D02*
X266809523Y-53419104D01*
X266809523Y-53419104D02*
X266857142Y-53561961D01*
X266857142Y-53561961D02*
X266952380Y-53657200D01*
X266952380Y-53657200D02*
X267095237Y-53704819D01*
X267095237Y-53704819D02*
X267190475Y-53704819D01*
X266333332Y-53704819D02*
X266333332Y-52704819D01*
X266333332Y-52704819D02*
X265952380Y-52704819D01*
X265952380Y-52704819D02*
X265857142Y-52752438D01*
X265857142Y-52752438D02*
X265809523Y-52800057D01*
X265809523Y-52800057D02*
X265761904Y-52895295D01*
X265761904Y-52895295D02*
X265761904Y-53038152D01*
X265761904Y-53038152D02*
X265809523Y-53133390D01*
X265809523Y-53133390D02*
X265857142Y-53181009D01*
X265857142Y-53181009D02*
X265952380Y-53228628D01*
X265952380Y-53228628D02*
X266333332Y-53228628D01*
X264809523Y-53704819D02*
X265380951Y-53704819D01*
X265095237Y-53704819D02*
X265095237Y-52704819D01*
X265095237Y-52704819D02*
X265190475Y-52847676D01*
X265190475Y-52847676D02*
X265285713Y-52942914D01*
X265285713Y-52942914D02*
X265380951Y-52990533D01*
X263952380Y-52704819D02*
X264142856Y-52704819D01*
X264142856Y-52704819D02*
X264238094Y-52752438D01*
X264238094Y-52752438D02*
X264285713Y-52800057D01*
X264285713Y-52800057D02*
X264380951Y-52942914D01*
X264380951Y-52942914D02*
X264428570Y-53133390D01*
X264428570Y-53133390D02*
X264428570Y-53514342D01*
X264428570Y-53514342D02*
X264380951Y-53609580D01*
X264380951Y-53609580D02*
X264333332Y-53657200D01*
X264333332Y-53657200D02*
X264238094Y-53704819D01*
X264238094Y-53704819D02*
X264047618Y-53704819D01*
X264047618Y-53704819D02*
X263952380Y-53657200D01*
X263952380Y-53657200D02*
X263904761Y-53609580D01*
X263904761Y-53609580D02*
X263857142Y-53514342D01*
X263857142Y-53514342D02*
X263857142Y-53276247D01*
X263857142Y-53276247D02*
X263904761Y-53181009D01*
X263904761Y-53181009D02*
X263952380Y-53133390D01*
X263952380Y-53133390D02*
X264047618Y-53085771D01*
X264047618Y-53085771D02*
X264238094Y-53085771D01*
X264238094Y-53085771D02*
X264333332Y-53133390D01*
X264333332Y-53133390D02*
X264380951Y-53181009D01*
X264380951Y-53181009D02*
X264428570Y-53276247D01*
X321471530Y-177248092D02*
X321519150Y-177200473D01*
X321519150Y-177200473D02*
X321566769Y-177057616D01*
X321566769Y-177057616D02*
X321566769Y-176962378D01*
X321566769Y-176962378D02*
X321519150Y-176819521D01*
X321519150Y-176819521D02*
X321423911Y-176724283D01*
X321423911Y-176724283D02*
X321328673Y-176676664D01*
X321328673Y-176676664D02*
X321138197Y-176629045D01*
X321138197Y-176629045D02*
X320995340Y-176629045D01*
X320995340Y-176629045D02*
X320804864Y-176676664D01*
X320804864Y-176676664D02*
X320709626Y-176724283D01*
X320709626Y-176724283D02*
X320614388Y-176819521D01*
X320614388Y-176819521D02*
X320566769Y-176962378D01*
X320566769Y-176962378D02*
X320566769Y-177057616D01*
X320566769Y-177057616D02*
X320614388Y-177200473D01*
X320614388Y-177200473D02*
X320662007Y-177248092D01*
X320566769Y-177581426D02*
X320566769Y-178248092D01*
X320566769Y-178248092D02*
X321566769Y-177819521D01*
X321566769Y-179152854D02*
X321566769Y-178581426D01*
X321566769Y-178867140D02*
X320566769Y-178867140D01*
X320566769Y-178867140D02*
X320709626Y-178771902D01*
X320709626Y-178771902D02*
X320804864Y-178676664D01*
X320804864Y-178676664D02*
X320852483Y-178581426D01*
X263309523Y-75454819D02*
X263309523Y-76169104D01*
X263309523Y-76169104D02*
X263357142Y-76311961D01*
X263357142Y-76311961D02*
X263452380Y-76407200D01*
X263452380Y-76407200D02*
X263595237Y-76454819D01*
X263595237Y-76454819D02*
X263690475Y-76454819D01*
X262833332Y-76454819D02*
X262833332Y-75454819D01*
X262833332Y-75454819D02*
X262452380Y-75454819D01*
X262452380Y-75454819D02*
X262357142Y-75502438D01*
X262357142Y-75502438D02*
X262309523Y-75550057D01*
X262309523Y-75550057D02*
X262261904Y-75645295D01*
X262261904Y-75645295D02*
X262261904Y-75788152D01*
X262261904Y-75788152D02*
X262309523Y-75883390D01*
X262309523Y-75883390D02*
X262357142Y-75931009D01*
X262357142Y-75931009D02*
X262452380Y-75978628D01*
X262452380Y-75978628D02*
X262833332Y-75978628D01*
X261309523Y-76454819D02*
X261880951Y-76454819D01*
X261595237Y-76454819D02*
X261595237Y-75454819D01*
X261595237Y-75454819D02*
X261690475Y-75597676D01*
X261690475Y-75597676D02*
X261785713Y-75692914D01*
X261785713Y-75692914D02*
X261880951Y-75740533D01*
X260976189Y-75454819D02*
X260309523Y-75454819D01*
X260309523Y-75454819D02*
X260738094Y-76454819D01*
D11*
X127187381Y-73865268D02*
X127187381Y-72595268D01*
X127187381Y-72595268D02*
X126885000Y-72595268D01*
X126885000Y-72595268D02*
X126703571Y-72655744D01*
X126703571Y-72655744D02*
X126582619Y-72776696D01*
X126582619Y-72776696D02*
X126522142Y-72897649D01*
X126522142Y-72897649D02*
X126461666Y-73139553D01*
X126461666Y-73139553D02*
X126461666Y-73320982D01*
X126461666Y-73320982D02*
X126522142Y-73562887D01*
X126522142Y-73562887D02*
X126582619Y-73683839D01*
X126582619Y-73683839D02*
X126703571Y-73804792D01*
X126703571Y-73804792D02*
X126885000Y-73865268D01*
X126885000Y-73865268D02*
X127187381Y-73865268D01*
X126038333Y-72595268D02*
X125191666Y-72595268D01*
X125191666Y-72595268D02*
X125735952Y-73865268D01*
D10*
X316971530Y-177248092D02*
X317019150Y-177200473D01*
X317019150Y-177200473D02*
X317066769Y-177057616D01*
X317066769Y-177057616D02*
X317066769Y-176962378D01*
X317066769Y-176962378D02*
X317019150Y-176819521D01*
X317019150Y-176819521D02*
X316923911Y-176724283D01*
X316923911Y-176724283D02*
X316828673Y-176676664D01*
X316828673Y-176676664D02*
X316638197Y-176629045D01*
X316638197Y-176629045D02*
X316495340Y-176629045D01*
X316495340Y-176629045D02*
X316304864Y-176676664D01*
X316304864Y-176676664D02*
X316209626Y-176724283D01*
X316209626Y-176724283D02*
X316114388Y-176819521D01*
X316114388Y-176819521D02*
X316066769Y-176962378D01*
X316066769Y-176962378D02*
X316066769Y-177057616D01*
X316066769Y-177057616D02*
X316114388Y-177200473D01*
X316114388Y-177200473D02*
X316162007Y-177248092D01*
X316066769Y-178105235D02*
X316066769Y-177914759D01*
X316066769Y-177914759D02*
X316114388Y-177819521D01*
X316114388Y-177819521D02*
X316162007Y-177771902D01*
X316162007Y-177771902D02*
X316304864Y-177676664D01*
X316304864Y-177676664D02*
X316495340Y-177629045D01*
X316495340Y-177629045D02*
X316876292Y-177629045D01*
X316876292Y-177629045D02*
X316971530Y-177676664D01*
X316971530Y-177676664D02*
X317019150Y-177724283D01*
X317019150Y-177724283D02*
X317066769Y-177819521D01*
X317066769Y-177819521D02*
X317066769Y-178009997D01*
X317066769Y-178009997D02*
X317019150Y-178105235D01*
X317019150Y-178105235D02*
X316971530Y-178152854D01*
X316971530Y-178152854D02*
X316876292Y-178200473D01*
X316876292Y-178200473D02*
X316638197Y-178200473D01*
X316638197Y-178200473D02*
X316542959Y-178152854D01*
X316542959Y-178152854D02*
X316495340Y-178105235D01*
X316495340Y-178105235D02*
X316447721Y-178009997D01*
X316447721Y-178009997D02*
X316447721Y-177819521D01*
X316447721Y-177819521D02*
X316495340Y-177724283D01*
X316495340Y-177724283D02*
X316542959Y-177676664D01*
X316542959Y-177676664D02*
X316638197Y-177629045D01*
X317066769Y-178676664D02*
X317066769Y-178867140D01*
X317066769Y-178867140D02*
X317019150Y-178962378D01*
X317019150Y-178962378D02*
X316971530Y-179009997D01*
X316971530Y-179009997D02*
X316828673Y-179105235D01*
X316828673Y-179105235D02*
X316638197Y-179152854D01*
X316638197Y-179152854D02*
X316257245Y-179152854D01*
X316257245Y-179152854D02*
X316162007Y-179105235D01*
X316162007Y-179105235D02*
X316114388Y-179057616D01*
X316114388Y-179057616D02*
X316066769Y-178962378D01*
X316066769Y-178962378D02*
X316066769Y-178771902D01*
X316066769Y-178771902D02*
X316114388Y-178676664D01*
X316114388Y-178676664D02*
X316162007Y-178629045D01*
X316162007Y-178629045D02*
X316257245Y-178581426D01*
X316257245Y-178581426D02*
X316495340Y-178581426D01*
X316495340Y-178581426D02*
X316590578Y-178629045D01*
X316590578Y-178629045D02*
X316638197Y-178676664D01*
X316638197Y-178676664D02*
X316685816Y-178771902D01*
X316685816Y-178771902D02*
X316685816Y-178962378D01*
X316685816Y-178962378D02*
X316638197Y-179057616D01*
X316638197Y-179057616D02*
X316590578Y-179105235D01*
X316590578Y-179105235D02*
X316495340Y-179152854D01*
X204351473Y-79954819D02*
X204351473Y-80669104D01*
X204351473Y-80669104D02*
X204399092Y-80811961D01*
X204399092Y-80811961D02*
X204494330Y-80907200D01*
X204494330Y-80907200D02*
X204637187Y-80954819D01*
X204637187Y-80954819D02*
X204732425Y-80954819D01*
X203875282Y-80954819D02*
X203875282Y-79954819D01*
X203875282Y-79954819D02*
X203494330Y-79954819D01*
X203494330Y-79954819D02*
X203399092Y-80002438D01*
X203399092Y-80002438D02*
X203351473Y-80050057D01*
X203351473Y-80050057D02*
X203303854Y-80145295D01*
X203303854Y-80145295D02*
X203303854Y-80288152D01*
X203303854Y-80288152D02*
X203351473Y-80383390D01*
X203351473Y-80383390D02*
X203399092Y-80431009D01*
X203399092Y-80431009D02*
X203494330Y-80478628D01*
X203494330Y-80478628D02*
X203875282Y-80478628D01*
X202351473Y-80954819D02*
X202922901Y-80954819D01*
X202637187Y-80954819D02*
X202637187Y-79954819D01*
X202637187Y-79954819D02*
X202732425Y-80097676D01*
X202732425Y-80097676D02*
X202827663Y-80192914D01*
X202827663Y-80192914D02*
X202922901Y-80240533D01*
X201732425Y-79954819D02*
X201637187Y-79954819D01*
X201637187Y-79954819D02*
X201541949Y-80002438D01*
X201541949Y-80002438D02*
X201494330Y-80050057D01*
X201494330Y-80050057D02*
X201446711Y-80145295D01*
X201446711Y-80145295D02*
X201399092Y-80335771D01*
X201399092Y-80335771D02*
X201399092Y-80573866D01*
X201399092Y-80573866D02*
X201446711Y-80764342D01*
X201446711Y-80764342D02*
X201494330Y-80859580D01*
X201494330Y-80859580D02*
X201541949Y-80907200D01*
X201541949Y-80907200D02*
X201637187Y-80954819D01*
X201637187Y-80954819D02*
X201732425Y-80954819D01*
X201732425Y-80954819D02*
X201827663Y-80907200D01*
X201827663Y-80907200D02*
X201875282Y-80859580D01*
X201875282Y-80859580D02*
X201922901Y-80764342D01*
X201922901Y-80764342D02*
X201970520Y-80573866D01*
X201970520Y-80573866D02*
X201970520Y-80335771D01*
X201970520Y-80335771D02*
X201922901Y-80145295D01*
X201922901Y-80145295D02*
X201875282Y-80050057D01*
X201875282Y-80050057D02*
X201827663Y-80002438D01*
X201827663Y-80002438D02*
X201732425Y-79954819D01*
X115816769Y-138224283D02*
X115340578Y-137890950D01*
X115816769Y-137652855D02*
X114816769Y-137652855D01*
X114816769Y-137652855D02*
X114816769Y-138033807D01*
X114816769Y-138033807D02*
X114864388Y-138129045D01*
X114864388Y-138129045D02*
X114912007Y-138176664D01*
X114912007Y-138176664D02*
X115007245Y-138224283D01*
X115007245Y-138224283D02*
X115150102Y-138224283D01*
X115150102Y-138224283D02*
X115245340Y-138176664D01*
X115245340Y-138176664D02*
X115292959Y-138129045D01*
X115292959Y-138129045D02*
X115340578Y-138033807D01*
X115340578Y-138033807D02*
X115340578Y-137652855D01*
X114816769Y-138557617D02*
X114816769Y-139224283D01*
X114816769Y-139224283D02*
X115816769Y-138795712D01*
X96601473Y-173545769D02*
X96601473Y-174260054D01*
X96601473Y-174260054D02*
X96649092Y-174402911D01*
X96649092Y-174402911D02*
X96744330Y-174498150D01*
X96744330Y-174498150D02*
X96887187Y-174545769D01*
X96887187Y-174545769D02*
X96982425Y-174545769D01*
X96125282Y-174545769D02*
X96125282Y-173545769D01*
X96125282Y-173545769D02*
X95744330Y-173545769D01*
X95744330Y-173545769D02*
X95649092Y-173593388D01*
X95649092Y-173593388D02*
X95601473Y-173641007D01*
X95601473Y-173641007D02*
X95553854Y-173736245D01*
X95553854Y-173736245D02*
X95553854Y-173879102D01*
X95553854Y-173879102D02*
X95601473Y-173974340D01*
X95601473Y-173974340D02*
X95649092Y-174021959D01*
X95649092Y-174021959D02*
X95744330Y-174069578D01*
X95744330Y-174069578D02*
X96125282Y-174069578D01*
X94601473Y-174545769D02*
X95172901Y-174545769D01*
X94887187Y-174545769D02*
X94887187Y-173545769D01*
X94887187Y-173545769D02*
X94982425Y-173688626D01*
X94982425Y-173688626D02*
X95077663Y-173783864D01*
X95077663Y-173783864D02*
X95172901Y-173831483D01*
X94268139Y-173545769D02*
X93649092Y-173545769D01*
X93649092Y-173545769D02*
X93982425Y-173926721D01*
X93982425Y-173926721D02*
X93839568Y-173926721D01*
X93839568Y-173926721D02*
X93744330Y-173974340D01*
X93744330Y-173974340D02*
X93696711Y-174021959D01*
X93696711Y-174021959D02*
X93649092Y-174117197D01*
X93649092Y-174117197D02*
X93649092Y-174355292D01*
X93649092Y-174355292D02*
X93696711Y-174450530D01*
X93696711Y-174450530D02*
X93744330Y-174498150D01*
X93744330Y-174498150D02*
X93839568Y-174545769D01*
X93839568Y-174545769D02*
X94125282Y-174545769D01*
X94125282Y-174545769D02*
X94220520Y-174498150D01*
X94220520Y-174498150D02*
X94268139Y-174450530D01*
X101704819Y-182331426D02*
X102419104Y-182331426D01*
X102419104Y-182331426D02*
X102561961Y-182283807D01*
X102561961Y-182283807D02*
X102657200Y-182188569D01*
X102657200Y-182188569D02*
X102704819Y-182045712D01*
X102704819Y-182045712D02*
X102704819Y-181950474D01*
X102704819Y-182807617D02*
X101704819Y-182807617D01*
X101704819Y-182807617D02*
X101704819Y-183188569D01*
X101704819Y-183188569D02*
X101752438Y-183283807D01*
X101752438Y-183283807D02*
X101800057Y-183331426D01*
X101800057Y-183331426D02*
X101895295Y-183379045D01*
X101895295Y-183379045D02*
X102038152Y-183379045D01*
X102038152Y-183379045D02*
X102133390Y-183331426D01*
X102133390Y-183331426D02*
X102181009Y-183283807D01*
X102181009Y-183283807D02*
X102228628Y-183188569D01*
X102228628Y-183188569D02*
X102228628Y-182807617D01*
X102704819Y-184331426D02*
X102704819Y-183759998D01*
X102704819Y-184045712D02*
X101704819Y-184045712D01*
X101704819Y-184045712D02*
X101847676Y-183950474D01*
X101847676Y-183950474D02*
X101942914Y-183855236D01*
X101942914Y-183855236D02*
X101990533Y-183759998D01*
X101800057Y-184712379D02*
X101752438Y-184759998D01*
X101752438Y-184759998D02*
X101704819Y-184855236D01*
X101704819Y-184855236D02*
X101704819Y-185093331D01*
X101704819Y-185093331D02*
X101752438Y-185188569D01*
X101752438Y-185188569D02*
X101800057Y-185236188D01*
X101800057Y-185236188D02*
X101895295Y-185283807D01*
X101895295Y-185283807D02*
X101990533Y-185283807D01*
X101990533Y-185283807D02*
X102133390Y-185236188D01*
X102133390Y-185236188D02*
X102704819Y-184664760D01*
X102704819Y-184664760D02*
X102704819Y-185283807D01*
X256119047Y-63859580D02*
X256166666Y-63907200D01*
X256166666Y-63907200D02*
X256309523Y-63954819D01*
X256309523Y-63954819D02*
X256404761Y-63954819D01*
X256404761Y-63954819D02*
X256547618Y-63907200D01*
X256547618Y-63907200D02*
X256642856Y-63811961D01*
X256642856Y-63811961D02*
X256690475Y-63716723D01*
X256690475Y-63716723D02*
X256738094Y-63526247D01*
X256738094Y-63526247D02*
X256738094Y-63383390D01*
X256738094Y-63383390D02*
X256690475Y-63192914D01*
X256690475Y-63192914D02*
X256642856Y-63097676D01*
X256642856Y-63097676D02*
X256547618Y-63002438D01*
X256547618Y-63002438D02*
X256404761Y-62954819D01*
X256404761Y-62954819D02*
X256309523Y-62954819D01*
X256309523Y-62954819D02*
X256166666Y-63002438D01*
X256166666Y-63002438D02*
X256119047Y-63050057D01*
X255166666Y-63954819D02*
X255738094Y-63954819D01*
X255452380Y-63954819D02*
X255452380Y-62954819D01*
X255452380Y-62954819D02*
X255547618Y-63097676D01*
X255547618Y-63097676D02*
X255642856Y-63192914D01*
X255642856Y-63192914D02*
X255738094Y-63240533D01*
X254690475Y-63954819D02*
X254499999Y-63954819D01*
X254499999Y-63954819D02*
X254404761Y-63907200D01*
X254404761Y-63907200D02*
X254357142Y-63859580D01*
X254357142Y-63859580D02*
X254261904Y-63716723D01*
X254261904Y-63716723D02*
X254214285Y-63526247D01*
X254214285Y-63526247D02*
X254214285Y-63145295D01*
X254214285Y-63145295D02*
X254261904Y-63050057D01*
X254261904Y-63050057D02*
X254309523Y-63002438D01*
X254309523Y-63002438D02*
X254404761Y-62954819D01*
X254404761Y-62954819D02*
X254595237Y-62954819D01*
X254595237Y-62954819D02*
X254690475Y-63002438D01*
X254690475Y-63002438D02*
X254738094Y-63050057D01*
X254738094Y-63050057D02*
X254785713Y-63145295D01*
X254785713Y-63145295D02*
X254785713Y-63383390D01*
X254785713Y-63383390D02*
X254738094Y-63478628D01*
X254738094Y-63478628D02*
X254690475Y-63526247D01*
X254690475Y-63526247D02*
X254595237Y-63573866D01*
X254595237Y-63573866D02*
X254404761Y-63573866D01*
X254404761Y-63573866D02*
X254309523Y-63526247D01*
X254309523Y-63526247D02*
X254261904Y-63478628D01*
X254261904Y-63478628D02*
X254214285Y-63383390D01*
X253642856Y-63383390D02*
X253738094Y-63335771D01*
X253738094Y-63335771D02*
X253785713Y-63288152D01*
X253785713Y-63288152D02*
X253833332Y-63192914D01*
X253833332Y-63192914D02*
X253833332Y-63145295D01*
X253833332Y-63145295D02*
X253785713Y-63050057D01*
X253785713Y-63050057D02*
X253738094Y-63002438D01*
X253738094Y-63002438D02*
X253642856Y-62954819D01*
X253642856Y-62954819D02*
X253452380Y-62954819D01*
X253452380Y-62954819D02*
X253357142Y-63002438D01*
X253357142Y-63002438D02*
X253309523Y-63050057D01*
X253309523Y-63050057D02*
X253261904Y-63145295D01*
X253261904Y-63145295D02*
X253261904Y-63192914D01*
X253261904Y-63192914D02*
X253309523Y-63288152D01*
X253309523Y-63288152D02*
X253357142Y-63335771D01*
X253357142Y-63335771D02*
X253452380Y-63383390D01*
X253452380Y-63383390D02*
X253642856Y-63383390D01*
X253642856Y-63383390D02*
X253738094Y-63431009D01*
X253738094Y-63431009D02*
X253785713Y-63478628D01*
X253785713Y-63478628D02*
X253833332Y-63573866D01*
X253833332Y-63573866D02*
X253833332Y-63764342D01*
X253833332Y-63764342D02*
X253785713Y-63859580D01*
X253785713Y-63859580D02*
X253738094Y-63907200D01*
X253738094Y-63907200D02*
X253642856Y-63954819D01*
X253642856Y-63954819D02*
X253452380Y-63954819D01*
X253452380Y-63954819D02*
X253357142Y-63907200D01*
X253357142Y-63907200D02*
X253309523Y-63859580D01*
X253309523Y-63859580D02*
X253261904Y-63764342D01*
X253261904Y-63764342D02*
X253261904Y-63573866D01*
X253261904Y-63573866D02*
X253309523Y-63478628D01*
X253309523Y-63478628D02*
X253357142Y-63431009D01*
X253357142Y-63431009D02*
X253452380Y-63383390D01*
X101704819Y-188581426D02*
X102419104Y-188581426D01*
X102419104Y-188581426D02*
X102561961Y-188533807D01*
X102561961Y-188533807D02*
X102657200Y-188438569D01*
X102657200Y-188438569D02*
X102704819Y-188295712D01*
X102704819Y-188295712D02*
X102704819Y-188200474D01*
X102704819Y-189057617D02*
X101704819Y-189057617D01*
X101704819Y-189057617D02*
X101704819Y-189438569D01*
X101704819Y-189438569D02*
X101752438Y-189533807D01*
X101752438Y-189533807D02*
X101800057Y-189581426D01*
X101800057Y-189581426D02*
X101895295Y-189629045D01*
X101895295Y-189629045D02*
X102038152Y-189629045D01*
X102038152Y-189629045D02*
X102133390Y-189581426D01*
X102133390Y-189581426D02*
X102181009Y-189533807D01*
X102181009Y-189533807D02*
X102228628Y-189438569D01*
X102228628Y-189438569D02*
X102228628Y-189057617D01*
X102704819Y-190581426D02*
X102704819Y-190009998D01*
X102704819Y-190295712D02*
X101704819Y-190295712D01*
X101704819Y-190295712D02*
X101847676Y-190200474D01*
X101847676Y-190200474D02*
X101942914Y-190105236D01*
X101942914Y-190105236D02*
X101990533Y-190009998D01*
X102038152Y-191438569D02*
X102704819Y-191438569D01*
X101657200Y-191200474D02*
X102371485Y-190962379D01*
X102371485Y-190962379D02*
X102371485Y-191581426D01*
X202083333Y-119704819D02*
X202083333Y-120419104D01*
X202083333Y-120419104D02*
X202130952Y-120561961D01*
X202130952Y-120561961D02*
X202226190Y-120657200D01*
X202226190Y-120657200D02*
X202369047Y-120704819D01*
X202369047Y-120704819D02*
X202464285Y-120704819D01*
X201607142Y-120704819D02*
X201607142Y-119704819D01*
X201607142Y-119704819D02*
X201226190Y-119704819D01*
X201226190Y-119704819D02*
X201130952Y-119752438D01*
X201130952Y-119752438D02*
X201083333Y-119800057D01*
X201083333Y-119800057D02*
X201035714Y-119895295D01*
X201035714Y-119895295D02*
X201035714Y-120038152D01*
X201035714Y-120038152D02*
X201083333Y-120133390D01*
X201083333Y-120133390D02*
X201130952Y-120181009D01*
X201130952Y-120181009D02*
X201226190Y-120228628D01*
X201226190Y-120228628D02*
X201607142Y-120228628D01*
X200178571Y-120038152D02*
X200178571Y-120704819D01*
X200416666Y-119657200D02*
X200654761Y-120371485D01*
X200654761Y-120371485D02*
X200035714Y-120371485D01*
D11*
X214918854Y-150074318D02*
X215342188Y-149469556D01*
X215644569Y-150074318D02*
X215644569Y-148804318D01*
X215644569Y-148804318D02*
X215160759Y-148804318D01*
X215160759Y-148804318D02*
X215039807Y-148864794D01*
X215039807Y-148864794D02*
X214979330Y-148925270D01*
X214979330Y-148925270D02*
X214918854Y-149046222D01*
X214918854Y-149046222D02*
X214918854Y-149227651D01*
X214918854Y-149227651D02*
X214979330Y-149348603D01*
X214979330Y-149348603D02*
X215039807Y-149409080D01*
X215039807Y-149409080D02*
X215160759Y-149469556D01*
X215160759Y-149469556D02*
X215644569Y-149469556D01*
X214374569Y-150074318D02*
X214374569Y-148804318D01*
X214374569Y-148804318D02*
X213648854Y-150074318D01*
X213648854Y-150074318D02*
X213648854Y-148804318D01*
X213104569Y-148925270D02*
X213044093Y-148864794D01*
X213044093Y-148864794D02*
X212923140Y-148804318D01*
X212923140Y-148804318D02*
X212620759Y-148804318D01*
X212620759Y-148804318D02*
X212499807Y-148864794D01*
X212499807Y-148864794D02*
X212439331Y-148925270D01*
X212439331Y-148925270D02*
X212378854Y-149046222D01*
X212378854Y-149046222D02*
X212378854Y-149167175D01*
X212378854Y-149167175D02*
X212439331Y-149348603D01*
X212439331Y-149348603D02*
X213165045Y-150074318D01*
X213165045Y-150074318D02*
X212378854Y-150074318D01*
D12*
X204641950Y-77390950D02*
X204641950Y-79390950D01*
X204641950Y-79390950D02*
X207441950Y-79390950D01*
X207441950Y-77390950D02*
X204641950Y-77390950D01*
X207441950Y-79390950D02*
X207441950Y-77390950D01*
X198391950Y-77390950D02*
X198391950Y-79390950D01*
X198391950Y-79390950D02*
X201191950Y-79390950D01*
X201191950Y-77390950D02*
X198391950Y-77390950D01*
X201191950Y-79390950D02*
X201191950Y-77390950D01*
X198541950Y-117140950D02*
X198541950Y-119090950D01*
X198541950Y-119090950D02*
X204041950Y-119090950D01*
X202391950Y-119640950D02*
X202691950Y-119340950D01*
X202691950Y-119340950D02*
X202991950Y-119640950D01*
X202991950Y-119640950D02*
X202391950Y-119640950D01*
X204041950Y-117140950D02*
X198541950Y-117140950D01*
X204041950Y-119090950D02*
X204041950Y-117140950D01*
X246531950Y-180537217D02*
X246531950Y-180244683D01*
X247551950Y-180537217D02*
X247551950Y-180244683D01*
X306395683Y-186400950D02*
X306688217Y-186400950D01*
X306395683Y-187420950D02*
X306688217Y-187420950D01*
X254603733Y-93740000D02*
X254896267Y-93740000D01*
X254603733Y-94760000D02*
X254896267Y-94760000D01*
X256227500Y-110254724D02*
X256227500Y-109745276D01*
X257272500Y-110254724D02*
X257272500Y-109745276D01*
X254603733Y-97490000D02*
X254896267Y-97490000D01*
X254603733Y-98510000D02*
X254896267Y-98510000D01*
X119269450Y-138136226D02*
X119269450Y-138645674D01*
X120314450Y-138136226D02*
X120314450Y-138645674D01*
X194891950Y-81390950D02*
X194891950Y-83390950D01*
X194891950Y-83390950D02*
X197691950Y-83390950D01*
X197691950Y-81390950D02*
X194891950Y-81390950D01*
X197691950Y-83390950D02*
X197691950Y-81390950D01*
X288688217Y-135630950D02*
X288395683Y-135630950D01*
X288688217Y-136650950D02*
X288395683Y-136650950D01*
D13*
X177453950Y-143690950D02*
X177453950Y-143690950D01*
X177453950Y-143790950D02*
X177453950Y-143790950D01*
X177453950Y-143790950D02*
X177453950Y-143790950D01*
X177453950Y-143690950D02*
G75*
G02*
X177453950Y-143790950I0J-50000D01*
G01*
X177453950Y-143790950D02*
G75*
G02*
X177453950Y-143690950I0J50000D01*
G01*
X177453950Y-143790950D02*
G75*
G02*
X177453950Y-143690950I0J50000D01*
G01*
D12*
X306395683Y-181380950D02*
X306688217Y-181380950D01*
X306395683Y-182400950D02*
X306688217Y-182400950D01*
X238781950Y-180537217D02*
X238781950Y-180244683D01*
X239801950Y-180537217D02*
X239801950Y-180244683D01*
X288796674Y-131618450D02*
X288287226Y-131618450D01*
X288796674Y-132663450D02*
X288287226Y-132663450D01*
X252227500Y-109745276D02*
X252227500Y-110254724D01*
X253272500Y-109745276D02*
X253272500Y-110254724D01*
X277287226Y-131618450D02*
X277796674Y-131618450D01*
X277287226Y-132663450D02*
X277796674Y-132663450D01*
X254603733Y-68240000D02*
X254896267Y-68240000D01*
X254603733Y-69260000D02*
X254896267Y-69260000D01*
X277395683Y-135630950D02*
X277688217Y-135630950D01*
X277395683Y-136650950D02*
X277688217Y-136650950D01*
X93891950Y-198140950D02*
X93891950Y-200140950D01*
X93891950Y-200140950D02*
X96691950Y-200140950D01*
X96691950Y-198140950D02*
X93891950Y-198140950D01*
X96691950Y-200140950D02*
X96691950Y-198140950D01*
X264100000Y-54250000D02*
X264100000Y-56250000D01*
X264100000Y-56250000D02*
X266900000Y-56250000D01*
X266900000Y-54250000D02*
X264100000Y-54250000D01*
X266900000Y-56250000D02*
X266900000Y-54250000D01*
X322031950Y-177744683D02*
X322031950Y-178037217D01*
X323051950Y-177744683D02*
X323051950Y-178037217D01*
X260600000Y-77000000D02*
X260600000Y-79000000D01*
X260600000Y-79000000D02*
X263400000Y-79000000D01*
X263400000Y-77000000D02*
X260600000Y-77000000D01*
X263400000Y-79000000D02*
X263400000Y-77000000D01*
D13*
X121541950Y-70640950D02*
X121541950Y-75940950D01*
X121541950Y-73290950D02*
X118541950Y-73290950D01*
X121541950Y-75940950D02*
X131041950Y-75940950D01*
X131041950Y-70640950D02*
X121541950Y-70640950D01*
X131041950Y-73290950D02*
X128391950Y-70640950D01*
X131041950Y-75940950D02*
X131041950Y-70640950D01*
X134141950Y-73290950D02*
X131141950Y-73290950D01*
D12*
X317531950Y-177744683D02*
X317531950Y-178037217D01*
X318551950Y-177744683D02*
X318551950Y-178037217D01*
X201641950Y-81390950D02*
X201641950Y-83390950D01*
X201641950Y-83390950D02*
X204441950Y-83390950D01*
X204441950Y-81390950D02*
X201641950Y-81390950D01*
X204441950Y-83390950D02*
X204441950Y-81390950D01*
X116269450Y-138136226D02*
X116269450Y-138645674D01*
X117314450Y-138136226D02*
X117314450Y-138645674D01*
X93891950Y-174890950D02*
X93891950Y-176890950D01*
X93891950Y-176890950D02*
X96691950Y-176890950D01*
X96691950Y-174890950D02*
X93891950Y-174890950D01*
X96691950Y-176890950D02*
X96691950Y-174890950D01*
X103291950Y-182240950D02*
X103291950Y-185040950D01*
X103291950Y-185040950D02*
X105291950Y-185040950D01*
X105291950Y-182240950D02*
X103291950Y-182240950D01*
X105291950Y-185040950D02*
X105291950Y-182240950D01*
X254603733Y-64490000D02*
X254896267Y-64490000D01*
X254603733Y-65510000D02*
X254896267Y-65510000D01*
X103291950Y-188490950D02*
X103291950Y-191290950D01*
X103291950Y-191290950D02*
X105291950Y-191290950D01*
X105291950Y-188490950D02*
X103291950Y-188490950D01*
X105291950Y-191290950D02*
X105291950Y-188490950D01*
X198541950Y-121140950D02*
X198541950Y-123090950D01*
X198541950Y-123090950D02*
X204041950Y-123090950D01*
X202391950Y-123640950D02*
X202691950Y-123340950D01*
X202691950Y-123340950D02*
X202991950Y-123640950D01*
X202991950Y-123640950D02*
X202391950Y-123640950D01*
X204041950Y-121140950D02*
X198541950Y-121140950D01*
X204041950Y-123090950D02*
X204041950Y-121140950D01*
D13*
X212203950Y-150690950D02*
X212203950Y-150690950D01*
X212203950Y-150790950D02*
X212203950Y-150790950D01*
X212203950Y-150790950D02*
X212203950Y-150790950D01*
X212203950Y-150690950D02*
G75*
G02*
X212203950Y-150790950I0J-50000D01*
G01*
X212203950Y-150790950D02*
G75*
G02*
X212203950Y-150690950I0J50000D01*
G01*
X212203950Y-150790950D02*
G75*
G02*
X212203950Y-150690950I0J50000D01*
G01*
M02*
