G04 #@! TF.GenerationSoftware,KiCad,Pcbnew,9.0.3-1.fc42app2*
G04 #@! TF.CreationDate,2025-10-05T13:47:14+03:00*
G04 #@! TF.ProjectId,ModulinV2,4d6f6475-6c69-46e5-9632-2e6b69636164,rev?*
G04 #@! TF.SameCoordinates,Original*
G04 #@! TF.FileFunction,Paste,Bot*
G04 #@! TF.FilePolarity,Positive*
%FSLAX46Y46*%
G04 Gerber Fmt 4.6, Leading zero omitted, Abs format (unit mm)*
G04 Created by KiCad (PCBNEW 9.0.3-1.fc42app2) date 2025-10-05 13:47:14*
%MOMM*%
%LPD*%
G01*
G04 APERTURE LIST*
G04 Aperture macros list*
%AMRoundRect*
0 Rectangle with rounded corners*
0 $1 Rounding radius*
0 $2 $3 $4 $5 $6 $7 $8 $9 X,Y pos of 4 corners*
0 Add a 4 corners polygon primitive as box body*
4,1,4,$2,$3,$4,$5,$6,$7,$8,$9,$2,$3,0*
0 Add four circle primitives for the rounded corners*
1,1,$1+$1,$2,$3*
1,1,$1+$1,$4,$5*
1,1,$1+$1,$6,$7*
1,1,$1+$1,$8,$9*
0 Add four rect primitives between the rounded corners*
20,1,$1+$1,$2,$3,$4,$5,0*
20,1,$1+$1,$4,$5,$6,$7,0*
20,1,$1+$1,$6,$7,$8,$9,0*
20,1,$1+$1,$8,$9,$2,$3,0*%
G04 Aperture macros list end*
%ADD10RoundRect,0.237500X0.237500X-0.300000X0.237500X0.300000X-0.237500X0.300000X-0.237500X-0.300000X0*%
%ADD11RoundRect,0.237500X-0.300000X-0.237500X0.300000X-0.237500X0.300000X0.237500X-0.300000X0.237500X0*%
%ADD12RoundRect,0.237500X0.237500X-0.250000X0.237500X0.250000X-0.237500X0.250000X-0.237500X-0.250000X0*%
%ADD13RoundRect,0.237500X-0.237500X0.250000X-0.237500X-0.250000X0.237500X-0.250000X0.237500X0.250000X0*%
%ADD14RoundRect,0.237500X0.300000X0.237500X-0.300000X0.237500X-0.300000X-0.237500X0.300000X-0.237500X0*%
%ADD15R,0.425000X0.500000*%
%ADD16R,0.250000X0.500000*%
%ADD17RoundRect,0.237500X0.250000X0.237500X-0.250000X0.237500X-0.250000X-0.237500X0.250000X-0.237500X0*%
%ADD18RoundRect,0.237500X-0.250000X-0.237500X0.250000X-0.237500X0.250000X0.237500X-0.250000X0.237500X0*%
%ADD19RoundRect,0.237500X-0.237500X0.300000X-0.237500X-0.300000X0.237500X-0.300000X0.237500X0.300000X0*%
G04 APERTURE END LIST*
D10*
X247041950Y-181253450D03*
X247041950Y-179528450D03*
D11*
X305679450Y-186910950D03*
X307404450Y-186910950D03*
X253887500Y-94250000D03*
X255612500Y-94250000D03*
D12*
X256750000Y-110912500D03*
X256750000Y-109087500D03*
D11*
X253887500Y-98000000D03*
X255612500Y-98000000D03*
D13*
X119791950Y-137478450D03*
X119791950Y-139303450D03*
D14*
X289404450Y-136140950D03*
X287679450Y-136140950D03*
D15*
X177453950Y-144640950D03*
D16*
X178040950Y-144640950D03*
X178540950Y-144640950D03*
X179040950Y-144640950D03*
X179540950Y-144640950D03*
X180040950Y-144640950D03*
X180540950Y-144640950D03*
D15*
X181129950Y-144640950D03*
X181129950Y-146140950D03*
D16*
X180540950Y-146140950D03*
X180040950Y-146140950D03*
X179540950Y-146140950D03*
X179040950Y-146140950D03*
X178540950Y-146140950D03*
X178040950Y-146140950D03*
D15*
X177453950Y-146140950D03*
D11*
X305679450Y-181890950D03*
X307404450Y-181890950D03*
D10*
X239291950Y-181253450D03*
X239291950Y-179528450D03*
D17*
X289454450Y-132140950D03*
X287629450Y-132140950D03*
D13*
X252750000Y-109087500D03*
X252750000Y-110912500D03*
D18*
X276629450Y-132140950D03*
X278454450Y-132140950D03*
D11*
X253887500Y-68750000D03*
X255612500Y-68750000D03*
X276679450Y-136140950D03*
X278404450Y-136140950D03*
D19*
X322541950Y-177028450D03*
X322541950Y-178753450D03*
X318041950Y-177028450D03*
X318041950Y-178753450D03*
D13*
X116791950Y-137478450D03*
X116791950Y-139303450D03*
D11*
X253887500Y-65000000D03*
X255612500Y-65000000D03*
D15*
X212203950Y-151640950D03*
D16*
X212790950Y-151640950D03*
X213290950Y-151640950D03*
X213790950Y-151640950D03*
X214290950Y-151640950D03*
X214790950Y-151640950D03*
X215290950Y-151640950D03*
D15*
X215879950Y-151640950D03*
X215879950Y-153140950D03*
D16*
X215290950Y-153140950D03*
X214790950Y-153140950D03*
X214290950Y-153140950D03*
X213790950Y-153140950D03*
X213290950Y-153140950D03*
X212790950Y-153140950D03*
D15*
X212203950Y-153140950D03*
M02*
